RecursiveMonoVar-CasualSemiBoldItalic.ufo
<glyph name="exclam" format="1">
  <advance width="600"/>
  <unicode hex="0021"/>
  <outline>
    <contour>
      <point x="349" y="273" type="line"/>
      <point x="379" y="342"/>
      <point x="414" y="439"/>
      <point x="431" y="509" type="curve"/>
      <point x="467" y="651" type="line" smooth="yes"/>
      <point x="477" y="693"/>
      <point x="441" y="710"/>
      <point x="380" y="710" type="curve" smooth="yes"/>
      <point x="360" y="710"/>
      <point x="345" y="709"/>
      <point x="327" y="704" type="curve"/>
      <point x="326" y="669"/>
      <point x="320" y="632"/>
      <point x="310" y="593" type="curve" smooth="yes"/>
      <point x="290" y="512" type="line"/>
      <point x="266" y="419"/>
      <point x="251" y="316"/>
      <point x="265" y="297" type="curve" smooth="yes"/>
      <point x="277" y="281"/>
      <point x="301" y="273"/>
      <point x="337" y="273" type="curve"/>
    </contour>
    <contour>
      <point x="323" y="0" type="curve"/>
      <point x="351" y="112" type="line" smooth="yes"/>
      <point x="364" y="165"/>
      <point x="314" y="178"/>
      <point x="257" y="178" type="curve" smooth="yes"/>
      <point x="234" y="178"/>
      <point x="208" y="175"/>
      <point x="186" y="169" type="curve"/>
      <point x="158" y="57" type="line" smooth="yes"/>
      <point x="145" y="4"/>
      <point x="194" y="-9"/>
      <point x="252" y="-9" type="curve" smooth="yes"/>
      <point x="274" y="-9"/>
      <point x="300" y="-6"/>
    </contour>
  </outline>
</glyph>
<glyph name="quotedbl" format="1">
  <advance width="600"/>
  <unicode hex="0022"/>
  <outline>
    <contour>
      <point x="280" y="443" type="curve"/>
      <point x="345" y="656" type="line" smooth="yes"/>
      <point x="367" y="722"/>
      <point x="341" y="754"/>
      <point x="263" y="754" type="curve" smooth="yes"/>
      <point x="248" y="754"/>
      <point x="234" y="753"/>
      <point x="221" y="750" type="curve"/>
      <point x="223" y="726"/>
      <point x="222" y="704"/>
      <point x="212" y="651" type="curve" smooth="yes"/>
      <point x="182" y="491" type="line" smooth="yes"/>
      <point x="175" y="454"/>
      <point x="190" y="439"/>
      <point x="238" y="439" type="curve" smooth="yes"/>
      <point x="254" y="439"/>
      <point x="268" y="441"/>
    </contour>
    <contour>
      <point x="513" y="443" type="curve"/>
      <point x="580" y="652" type="line" smooth="yes"/>
      <point x="603" y="722"/>
      <point x="576" y="754"/>
      <point x="506" y="754" type="curve" smooth="yes"/>
      <point x="490" y="754"/>
      <point x="479" y="753"/>
      <point x="465" y="751" type="curve"/>
      <point x="417" y="491" type="line"/>
      <point x="410" y="454"/>
      <point x="425" y="439"/>
      <point x="473" y="439" type="curve" smooth="yes"/>
      <point x="489" y="439"/>
      <point x="501" y="441"/>
    </contour>
  </outline>
</glyph>
<glyph name="numbersign" format="1">
  <advance width="600"/>
  <unicode hex="0023"/>
  <outline>
    <contour>
      <point x="297" y="715" type="curve"/>
      <point x="247" y="513"/>
      <point x="150" y="240"/>
      <point x="-20" y="-10" type="curve"/>
      <point x="-12" y="-16"/>
      <point x="-3" y="-20"/>
      <point x="19" y="-20" type="curve"/>
      <point x="50" y="-20"/>
      <point x="73" y="-13"/>
      <point x="87" y="8" type="curve" smooth="yes"/>
      <point x="250" y="257"/>
      <point x="338" y="503"/>
      <point x="385" y="691" type="curve" smooth="yes"/>
      <point x="391" y="712"/>
      <point x="370" y="720"/>
      <point x="338" y="720" type="curve" smooth="yes"/>
      <point x="324" y="720"/>
      <point x="310" y="719"/>
    </contour>
    <contour>
      <point x="515" y="715" type="curve"/>
      <point x="465" y="514"/>
      <point x="368" y="240"/>
      <point x="198" y="-10" type="curve"/>
      <point x="206" y="-16"/>
      <point x="215" y="-20"/>
      <point x="237" y="-20" type="curve"/>
      <point x="268" y="-20"/>
      <point x="290" y="-13"/>
      <point x="305" y="8" type="curve" smooth="yes"/>
      <point x="468" y="257"/>
      <point x="556" y="503"/>
      <point x="603" y="691" type="curve" smooth="yes"/>
      <point x="609" y="712"/>
      <point x="588" y="720"/>
      <point x="556" y="720" type="curve" smooth="yes"/>
      <point x="542" y="720"/>
      <point x="528" y="719"/>
    </contour>
    <contour>
      <point x="620" y="430" type="line"/>
      <point x="622" y="435"/>
      <point x="623" y="441"/>
      <point x="624" y="446" type="curve" smooth="yes"/>
      <point x="634" y="483"/>
      <point x="631" y="505"/>
      <point x="621" y="518" type="curve" smooth="yes"/>
      <point x="613" y="529"/>
      <point x="600" y="533"/>
      <point x="568" y="533" type="curve"/>
      <point x="125" y="533" type="line"/>
      <point x="118" y="518"/>
      <point x="112" y="502"/>
      <point x="109" y="488" type="curve" smooth="yes"/>
      <point x="99" y="447"/>
      <point x="107" y="430"/>
      <point x="150" y="430" type="curve"/>
    </contour>
    <contour>
      <point x="21" y="270" type="line"/>
      <point x="20" y="265"/>
      <point x="18" y="259"/>
      <point x="17" y="254" type="curve" smooth="yes"/>
      <point x="8" y="217"/>
      <point x="10" y="196"/>
      <point x="20" y="182" type="curve" smooth="yes"/>
      <point x="28" y="171"/>
      <point x="41" y="167"/>
      <point x="73" y="167" type="curve"/>
      <point x="517" y="167" type="line"/>
      <point x="523" y="182"/>
      <point x="529" y="198"/>
      <point x="532" y="212" type="curve" smooth="yes"/>
      <point x="543" y="253"/>
      <point x="534" y="270"/>
      <point x="491" y="270" type="curve"/>
    </contour>
  </outline>
</glyph>
<glyph name="percent" format="1">
  <advance width="600"/>
  <unicode hex="0025"/>
  <outline>
    <contour>
      <point x="227" y="664" type="curve"/>
      <point x="297" y="664"/>
      <point x="322" y="630"/>
      <point x="302" y="551" type="curve" smooth="yes"/>
      <point x="301" y="546" type="line" smooth="yes"/>
      <point x="286" y="486"/>
      <point x="250" y="452"/>
      <point x="194" y="452" type="curve" smooth="yes"/>
      <point x="165" y="452"/>
      <point x="151" y="460"/>
      <point x="137" y="486" type="curve"/>
      <point x="85" y="441"/>
      <point x="129" y="356"/>
      <point x="188" y="356" type="curve" smooth="yes"/>
      <point x="285" y="356"/>
      <point x="364" y="425"/>
      <point x="391" y="533" type="curve" smooth="yes"/>
      <point x="393" y="539" type="line" smooth="yes"/>
      <point x="418" y="640"/>
      <point x="373" y="710"/>
      <point x="284" y="710" type="curve" smooth="yes"/>
      <point x="258" y="710"/>
      <point x="234" y="691"/>
    </contour>
    <contour>
      <point x="236" y="408" type="curve"/>
      <point x="169" y="408"/>
      <point x="141" y="456"/>
      <point x="157" y="522" type="curve" smooth="yes"/>
      <point x="159" y="527" type="line" smooth="yes"/>
      <point x="175" y="591"/>
      <point x="219" y="635"/>
      <point x="267" y="635" type="curve" smooth="yes"/>
      <point x="303" y="635"/>
      <point x="319" y="629"/>
      <point x="341" y="603" type="curve"/>
      <point x="384" y="638"/>
      <point x="343" y="710"/>
      <point x="284" y="710" type="curve" smooth="yes"/>
      <point x="190" y="710"/>
      <point x="109" y="637"/>
      <point x="82" y="529" type="curve" smooth="yes"/>
      <point x="80" y="523" type="line" smooth="yes"/>
      <point x="54" y="420"/>
      <point x="95" y="356"/>
      <point x="188" y="356" type="curve" smooth="yes"/>
      <point x="214" y="356"/>
      <point x="229" y="379"/>
    </contour>
    <contour>
      <point x="395" y="298" type="curve"/>
      <point x="464" y="298"/>
      <point x="489" y="264"/>
      <point x="469" y="185" type="curve" smooth="yes"/>
      <point x="468" y="180" type="line" smooth="yes"/>
      <point x="453" y="120"/>
      <point x="417" y="86"/>
      <point x="361" y="86" type="curve" smooth="yes"/>
      <point x="332" y="86"/>
      <point x="318" y="94"/>
      <point x="304" y="120" type="curve"/>
      <point x="252" y="75"/>
      <point x="297" y="-10"/>
      <point x="355" y="-10" type="curve" smooth="yes"/>
      <point x="452" y="-10"/>
      <point x="532" y="59"/>
      <point x="559" y="167" type="curve" smooth="yes"/>
      <point x="560" y="173" type="line" smooth="yes"/>
      <point x="585" y="274"/>
      <point x="540" y="344"/>
      <point x="451" y="344" type="curve" smooth="yes"/>
      <point x="425" y="344"/>
      <point x="401" y="325"/>
    </contour>
    <contour>
      <point x="403" y="42" type="curve"/>
      <point x="337" y="42"/>
      <point x="308" y="90"/>
      <point x="325" y="156" type="curve" smooth="yes"/>
      <point x="326" y="161" type="line" smooth="yes"/>
      <point x="342" y="225"/>
      <point x="386" y="269"/>
      <point x="434" y="269" type="curve" smooth="yes"/>
      <point x="470" y="269"/>
      <point x="486" y="263"/>
      <point x="509" y="237" type="curve"/>
      <point x="551" y="272"/>
      <point x="510" y="344"/>
      <point x="451" y="344" type="curve" smooth="yes"/>
      <point x="357" y="344"/>
      <point x="276" y="271"/>
      <point x="249" y="163" type="curve" smooth="yes"/>
      <point x="247" y="157" type="line" smooth="yes"/>
      <point x="221" y="54"/>
      <point x="262" y="-10"/>
      <point x="355" y="-10" type="curve" smooth="yes"/>
      <point x="382" y="-10"/>
      <point x="396" y="13"/>
    </contour>
    <contour>
      <point x="390" y="413" type="curve"/>
      <point x="403" y="404"/>
      <point x="419" y="400"/>
      <point x="443" y="400" type="curve" smooth="yes"/>
      <point x="468" y="400"/>
      <point x="481" y="405"/>
      <point x="502" y="422" type="curve" smooth="yes"/>
      <point x="584" y="487"/>
      <point x="645" y="581"/>
      <point x="664" y="659" type="curve" smooth="yes"/>
      <point x="672" y="691"/>
      <point x="653" y="711"/>
      <point x="605" y="711" type="curve" smooth="yes"/>
      <point x="585" y="711"/>
      <point x="574" y="709"/>
      <point x="558" y="704" type="curve"/>
      <point x="521" y="598"/>
      <point x="475" y="504"/>
    </contour>
    <contour>
      <point x="251" y="287" type="curve"/>
      <point x="238" y="295"/>
      <point x="222" y="300"/>
      <point x="198" y="300" type="curve" smooth="yes"/>
      <point x="173" y="300"/>
      <point x="160" y="295"/>
      <point x="139" y="277" type="curve" smooth="yes"/>
      <point x="58" y="212"/>
      <point x="-4" y="118"/>
      <point x="-23" y="41" type="curve" smooth="yes"/>
      <point x="-31" y="8"/>
      <point x="-12" y="-11"/>
      <point x="36" y="-11" type="curve" smooth="yes"/>
      <point x="56" y="-11"/>
      <point x="68" y="-10"/>
      <point x="84" y="-5" type="curve"/>
      <point x="120" y="102"/>
      <point x="166" y="196"/>
    </contour>
  </outline>
</glyph>
<glyph name="ampersand" format="1">
  <advance width="600"/>
  <unicode hex="0026"/>
  <outline>
    <contour>
      <point x="435" y="710" type="curve" smooth="yes"/>
      <point x="307" y="710"/>
      <point x="196" y="617"/>
      <point x="174" y="530" type="curve" smooth="yes"/>
      <point x="166" y="497"/>
      <point x="183" y="467"/>
      <point x="249" y="467" type="curve"/>
      <point x="249" y="479"/>
      <point x="250" y="486"/>
      <point x="254" y="500" type="curve" smooth="yes"/>
      <point x="268" y="557"/>
      <point x="331" y="594"/>
      <point x="408" y="594" type="curve" smooth="yes"/>
      <point x="473" y="594"/>
      <point x="516" y="581"/>
      <point x="547" y="556" type="curve"/>
      <point x="551" y="556" type="line"/>
      <point x="560" y="569"/>
      <point x="568" y="587"/>
      <point x="573" y="606" type="curve"/>
      <point x="580" y="636"/>
      <point x="577" y="660"/>
      <point x="564" y="678" type="curve" smooth="yes"/>
      <point x="549" y="698"/>
      <point x="507" y="710"/>
    </contour>
    <contour>
      <point x="283" y="377" type="curve" smooth="yes"/>
      <point x="270" y="431"/>
      <point x="270" y="485"/>
      <point x="280" y="525" type="curve" smooth="yes"/>
      <point x="290" y="563"/>
      <point x="302" y="588"/>
      <point x="326" y="618" type="curve"/>
      <point x="268" y="633"/>
      <point x="190" y="594"/>
      <point x="174" y="530" type="curve" smooth="yes"/>
      <point x="173" y="527" type="line" smooth="yes"/>
      <point x="159" y="471"/>
      <point x="164" y="406"/>
      <point x="184" y="335" type="curve" smooth="yes"/>
      <point x="210" y="248"/>
      <point x="254" y="157"/>
      <point x="305" y="90" type="curve" smooth="yes"/>
      <point x="365" y="10"/>
      <point x="410" y="-10"/>
      <point x="447" y="-10" type="curve" smooth="yes"/>
      <point x="452" y="-10" type="line" smooth="yes"/>
      <point x="491" y="-10"/>
      <point x="514" y="13"/>
      <point x="529" y="71" type="curve" smooth="yes"/>
      <point x="534" y="92"/>
      <point x="537" y="110"/>
      <point x="537" y="125" type="curve"/>
      <point x="533" y="125" type="line"/>
      <point x="518" y="116"/>
      <point x="505" y="112"/>
      <point x="484" y="112" type="curve" smooth="yes"/>
      <point x="448" y="112"/>
      <point x="407" y="136"/>
      <point x="378" y="175" type="curve" smooth="yes"/>
      <point x="335" y="232"/>
      <point x="299" y="308"/>
    </contour>
    <contour>
      <point x="138" y="-9" type="curve" smooth="yes"/>
      <point x="226" y="-9"/>
      <point x="285" y="27"/>
      <point x="330" y="81" type="curve" smooth="yes"/>
      <point x="344" y="100"/>
      <point x="336" y="134"/>
      <point x="310" y="148" type="curve"/>
      <point x="268" y="109"/>
      <point x="235" y="94"/>
      <point x="181" y="94" type="curve" smooth="yes"/>
      <point x="125" y="94"/>
      <point x="106" y="137"/>
      <point x="119" y="190" type="curve" smooth="yes"/>
      <point x="120" y="193" type="line" smooth="yes"/>
      <point x="135" y="254"/>
      <point x="180" y="282"/>
      <point x="243" y="291" type="curve"/>
      <point x="241" y="321"/>
      <point x="233" y="364"/>
      <point x="206" y="359" type="curve" smooth="yes"/>
      <point x="129" y="344"/>
      <point x="34" y="284"/>
      <point x="6" y="170" type="curve" smooth="yes"/>
      <point x="5" y="166" type="line" smooth="yes"/>
      <point x="-21" y="63"/>
      <point x="29" y="-9"/>
    </contour>
    <contour>
      <point x="490" y="410" type="curve" smooth="yes"/>
      <point x="477" y="410"/>
      <point x="466" y="408"/>
      <point x="459" y="406" type="curve"/>
      <point x="456" y="396"/>
      <point x="454" y="386"/>
      <point x="451" y="374" type="curve" smooth="yes"/>
      <point x="432" y="302"/>
      <point x="403" y="245"/>
      <point x="350" y="188" type="curve" smooth="yes"/>
      <point x="331" y="166"/>
      <point x="352" y="139"/>
      <point x="391" y="136" type="curve"/>
      <point x="486" y="204"/>
      <point x="545" y="280"/>
      <point x="561" y="346" type="curve" smooth="yes"/>
      <point x="564" y="358" type="line" smooth="yes"/>
      <point x="572" y="389"/>
      <point x="542" y="410"/>
    </contour>
  </outline>
</glyph>
<glyph name="quotesingle" format="1">
  <advance width="600"/>
  <unicode hex="0027"/>
  <outline>
    <contour>
      <point x="398" y="443" type="curve"/>
      <point x="462" y="652" type="line" smooth="yes"/>
      <point x="485" y="722"/>
      <point x="459" y="754"/>
      <point x="380" y="754" type="curve" smooth="yes"/>
      <point x="366" y="754"/>
      <point x="352" y="753"/>
      <point x="339" y="750" type="curve"/>
      <point x="341" y="726"/>
      <point x="340" y="704"/>
      <point x="330" y="651" type="curve" smooth="yes"/>
      <point x="300" y="491" type="line" smooth="yes"/>
      <point x="293" y="454"/>
      <point x="308" y="439"/>
      <point x="355" y="439" type="curve" smooth="yes"/>
      <point x="372" y="439"/>
      <point x="386" y="441"/>
    </contour>
  </outline>
</glyph>
<glyph name="parenleft" format="1">
  <advance width="600"/>
  <unicode hex="0028"/>
  <outline>
    <contour>
      <point x="466" y="734" type="curve" smooth="yes"/>
      <point x="338" y="631"/>
      <point x="242" y="476"/>
      <point x="199" y="302" type="curve" smooth="yes"/>
      <point x="197" y="295" type="line" smooth="yes"/>
      <point x="153" y="122"/>
      <point x="172" y="-35"/>
      <point x="248" y="-136" type="curve" smooth="yes"/>
      <point x="267" y="-161"/>
      <point x="287" y="-173"/>
      <point x="314" y="-173" type="curve" smooth="yes"/>
      <point x="350" y="-173"/>
      <point x="375" y="-160"/>
      <point x="397" y="-145" type="curve"/>
      <point x="398" y="-141" type="line"/>
      <point x="311" y="-30"/>
      <point x="285" y="127"/>
      <point x="327" y="295" type="curve" smooth="yes"/>
      <point x="329" y="302" type="line" smooth="yes"/>
      <point x="371" y="470"/>
      <point x="474" y="627"/>
      <point x="618" y="738" type="curve"/>
      <point x="619" y="742" type="line"/>
      <point x="605" y="758"/>
      <point x="586" y="770"/>
      <point x="550" y="770" type="curve" smooth="yes"/>
      <point x="523" y="770"/>
      <point x="497" y="759"/>
    </contour>
  </outline>
</glyph>
<glyph name="parenright" format="1">
  <advance width="600"/>
  <unicode hex="0029"/>
  <outline>
    <contour>
      <point x="150" y="-136" type="curve" smooth="yes"/>
      <point x="277" y="-34"/>
      <point x="374" y="122"/>
      <point x="417" y="295" type="curve" smooth="yes"/>
      <point x="419" y="302" type="line" smooth="yes"/>
      <point x="462" y="476"/>
      <point x="443" y="632"/>
      <point x="367" y="734" type="curve" smooth="yes"/>
      <point x="348" y="759"/>
      <point x="329" y="770"/>
      <point x="301" y="770" type="curve" smooth="yes"/>
      <point x="266" y="770"/>
      <point x="240" y="758"/>
      <point x="218" y="742" type="curve"/>
      <point x="217" y="738" type="line"/>
      <point x="305" y="627"/>
      <point x="330" y="471"/>
      <point x="288" y="302" type="curve" smooth="yes"/>
      <point x="286" y="295" type="line" smooth="yes"/>
      <point x="245" y="128"/>
      <point x="141" y="-30"/>
      <point x="-2" y="-141" type="curve"/>
      <point x="-3" y="-145" type="line"/>
      <point x="10" y="-160"/>
      <point x="30" y="-173"/>
      <point x="66" y="-173" type="curve" smooth="yes"/>
      <point x="93" y="-173"/>
      <point x="118" y="-161"/>
    </contour>
  </outline>
</glyph>
<glyph name="asterisk" format="1">
  <advance width="600"/>
  <unicode hex="002A"/>
  <outline>
    <contour>
      <point x="311" y="569" type="curve"/>
      <point x="313" y="544"/>
      <point x="315" y="521"/>
      <point x="310" y="486" type="curve" smooth="yes"/>
      <point x="287" y="309" type="line"/>
      <point x="215" y="139" type="line" smooth="yes"/>
      <point x="186" y="78"/>
      <point x="201" y="42"/>
      <point x="263" y="42" type="curve"/>
      <point x="278" y="42"/>
      <point x="295" y="44"/>
      <point x="312" y="50" type="curve"/>
      <point x="310" y="75"/>
      <point x="308" y="98"/>
      <point x="312" y="133" type="curve" smooth="yes"/>
      <point x="336" y="309" type="line"/>
      <point x="408" y="480" type="line" smooth="yes"/>
      <point x="436" y="542"/>
      <point x="422" y="577"/>
      <point x="360" y="577" type="curve" smooth="yes"/>
      <point x="345" y="577"/>
      <point x="328" y="574"/>
    </contour>
    <contour>
      <point x="556" y="487" type="curve"/>
      <point x="300" y="332" type="line"/>
      <point x="84" y="250" type="line" smooth="yes"/>
      <point x="51" y="238"/>
      <point x="39" y="203"/>
      <point x="50" y="168" type="curve"/>
      <point x="54" y="155"/>
      <point x="61" y="145"/>
      <point x="68" y="135" type="curve"/>
      <point x="323" y="291" type="line"/>
      <point x="541" y="374" type="line" smooth="yes"/>
      <point x="574" y="386"/>
      <point x="585" y="417"/>
      <point x="573" y="455" type="curve" smooth="yes"/>
      <point x="570" y="465"/>
      <point x="566" y="474"/>
    </contour>
    <contour>
      <point x="543" y="227" type="curve"/>
      <point x="333" y="332" type="line"/>
      <point x="190" y="463" type="line" smooth="yes"/>
      <point x="168" y="484"/>
      <point x="137" y="471"/>
      <point x="106" y="435" type="curve"/>
      <point x="95" y="423"/>
      <point x="88" y="409"/>
      <point x="80" y="396" type="curve"/>
      <point x="290" y="291" type="line"/>
      <point x="434" y="158" type="line" smooth="yes"/>
      <point x="455" y="138"/>
      <point x="487" y="150"/>
      <point x="518" y="188" type="curve"/>
      <point x="527" y="199"/>
      <point x="534" y="210"/>
    </contour>
  </outline>
</glyph>
<glyph name="plus" format="1">
  <advance width="600"/>
  <unicode hex="002B"/>
  <outline>
    <contour>
      <point x="75" y="358" type="line"/>
      <point x="74" y="353"/>
      <point x="73" y="348"/>
      <point x="71" y="342" type="curve" smooth="yes"/>
      <point x="60" y="298"/>
      <point x="60" y="272"/>
      <point x="71" y="257" type="curve" smooth="yes"/>
      <point x="79" y="246"/>
      <point x="93" y="242"/>
      <point x="125" y="242" type="curve"/>
      <point x="543" y="242" type="line"/>
      <point x="549" y="257"/>
      <point x="555" y="273"/>
      <point x="559" y="287" type="curve" smooth="yes"/>
      <point x="571" y="338"/>
      <point x="563" y="358"/>
      <point x="521" y="358" type="curve"/>
    </contour>
    <contour>
      <point x="306" y="57" type="curve"/>
      <point x="403" y="445" type="line" smooth="yes"/>
      <point x="414" y="488"/>
      <point x="413" y="506"/>
      <point x="400" y="523" type="curve" smooth="yes"/>
      <point x="387" y="541"/>
      <point x="358" y="547"/>
      <point x="333" y="547" type="curve" smooth="yes"/>
      <point x="322" y="547"/>
      <point x="311" y="546"/>
      <point x="299" y="543" type="curve"/>
      <point x="300" y="510"/>
      <point x="297" y="485"/>
      <point x="287" y="443" type="curve" smooth="yes"/>
      <point x="201" y="102" type="line" smooth="yes"/>
      <point x="191" y="60"/>
      <point x="218" y="53"/>
      <point x="263" y="53" type="curve" smooth="yes"/>
      <point x="280" y="53"/>
      <point x="294" y="55"/>
    </contour>
  </outline>
</glyph>
<glyph name="hyphen" format="1">
  <advance width="600"/>
  <unicode hex="002D"/>
  <outline>
    <contour>
      <point x="126" y="357" type="line"/>
      <point x="125" y="352"/>
      <point x="123" y="347"/>
      <point x="122" y="341" type="curve" smooth="yes"/>
      <point x="111" y="297"/>
      <point x="111" y="271"/>
      <point x="121" y="256" type="curve" smooth="yes"/>
      <point x="130" y="245"/>
      <point x="143" y="242"/>
      <point x="175" y="242" type="curve"/>
      <point x="493" y="242" type="line"/>
      <point x="500" y="256"/>
      <point x="506" y="273"/>
      <point x="509" y="286" type="curve" smooth="yes"/>
      <point x="522" y="337"/>
      <point x="514" y="357"/>
      <point x="471" y="357" type="curve"/>
    </contour>
  </outline>
</glyph>
<glyph name="period" format="1">
  <advance width="600"/>
  <unicode hex="002E"/>
  <outline>
    <contour>
      <point x="323" y="0" type="curve"/>
      <point x="351" y="112" type="line" smooth="yes"/>
      <point x="364" y="165"/>
      <point x="314" y="178"/>
      <point x="257" y="178" type="curve" smooth="yes"/>
      <point x="234" y="178"/>
      <point x="208" y="175"/>
      <point x="186" y="169" type="curve"/>
      <point x="158" y="57" type="line" smooth="yes"/>
      <point x="145" y="4"/>
      <point x="194" y="-9"/>
      <point x="252" y="-9" type="curve" smooth="yes"/>
      <point x="274" y="-9"/>
      <point x="300" y="-6"/>
    </contour>
  </outline>
</glyph>
<glyph name="one" format="1">
  <advance width="600"/>
  <unicode hex="0031"/>
  <outline>
    <contour>
      <point x="346" y="56" type="curve"/>
      <point x="397" y="261"/>
      <point x="450" y="469"/>
      <point x="501" y="673" type="curve" smooth="yes"/>
      <point x="507" y="701"/>
      <point x="466" y="710"/>
      <point x="414" y="710" type="curve" smooth="yes"/>
      <point x="394" y="710" type="line"/>
      <point x="351" y="537"/>
      <point x="306" y="356"/>
      <point x="262" y="183" type="curve" smooth="yes"/>
      <point x="239" y="87"/>
      <point x="281" y="56"/>
    </contour>
    <contour>
      <point x="48" y="112" type="line"/>
      <point x="45" y="107"/>
      <point x="44" y="101"/>
      <point x="42" y="94" type="curve" smooth="yes"/>
      <point x="31" y="52"/>
      <point x="32" y="30"/>
      <point x="42" y="16" type="curve" smooth="yes"/>
      <point x="51" y="4"/>
      <point x="64" y="0"/>
      <point x="98" y="0" type="curve" smooth="yes"/>
      <point x="495" y="0" type="line"/>
      <point x="500" y="10"/>
      <point x="504" y="20"/>
      <point x="506" y="31" type="curve" smooth="yes"/>
      <point x="519" y="80"/>
      <point x="462" y="112"/>
      <point x="341" y="112" type="curve" smooth="yes"/>
    </contour>
    <contour>
      <point x="172" y="434" type="curve" smooth="yes"/>
      <point x="200" y="434"/>
      <point x="246" y="459"/>
      <point x="289" y="493" type="curve" smooth="yes"/>
      <point x="350" y="542"/>
      <point x="398" y="608"/>
      <point x="411" y="660" type="curve" smooth="yes"/>
      <point x="420" y="695"/>
      <point x="408" y="710"/>
      <point x="397" y="710" type="curve"/>
      <point x="373" y="710" type="line"/>
      <point x="342" y="675"/>
      <point x="313" y="645"/>
      <point x="277" y="617" type="curve"/>
      <point x="236" y="584"/>
      <point x="197" y="560"/>
      <point x="151" y="539" type="curve"/>
      <point x="145" y="520" type="line" smooth="yes"/>
      <point x="129" y="464"/>
      <point x="150" y="434"/>
    </contour>
  </outline>
</glyph>
<glyph name="two" format="1">
  <advance width="600"/>
  <unicode hex="0032"/>
  <outline>
    <contour>
      <point x="441" y="631" type="curve"/>
      <point x="470" y="595"/>
      <point x="480" y="569"/>
      <point x="468" y="520" type="curve" smooth="yes"/>
      <point x="451" y="450"/>
      <point x="401" y="406"/>
      <point x="273" y="335" type="curve" smooth="yes"/>
      <point x="96" y="237"/>
      <point x="35" y="177"/>
      <point x="14" y="93" type="curve" smooth="yes"/>
      <point x="7" y="63"/>
      <point x="42" y="51"/>
      <point x="110" y="51" type="curve"/>
      <point x="130" y="130"/>
      <point x="165" y="164"/>
      <point x="337" y="255" type="curve" smooth="yes"/>
      <point x="494" y="336"/>
      <point x="560" y="398"/>
      <point x="588" y="510" type="curve" smooth="yes"/>
      <point x="590" y="516" type="line" smooth="yes"/>
      <point x="613" y="609"/>
      <point x="559" y="673"/>
    </contour>
    <contour>
      <point x="471" y="0" type="line"/>
      <point x="477" y="14"/>
      <point x="483" y="30"/>
      <point x="487" y="45" type="curve" smooth="yes"/>
      <point x="499" y="93"/>
      <point x="491" y="112"/>
      <point x="448" y="112" type="curve" smooth="yes"/>
      <point x="135" y="112" type="line" smooth="yes"/>
      <point x="86" y="112"/>
      <point x="50" y="109"/>
      <point x="14" y="93" type="curve"/>
      <point x="14" y="91"/>
      <point x="14" y="90"/>
      <point x="13" y="89" type="curve" smooth="yes"/>
      <point x="4" y="53"/>
      <point x="19" y="0"/>
      <point x="46" y="0" type="curve" smooth="yes"/>
    </contour>
    <contour>
      <point x="415" y="720" type="curve" smooth="yes"/>
      <point x="335" y="720"/>
      <point x="266" y="706"/>
      <point x="223" y="672" type="curve" smooth="yes"/>
      <point x="191" y="646"/>
      <point x="168" y="613"/>
      <point x="158" y="573" type="curve" smooth="yes"/>
      <point x="152" y="549"/>
      <point x="156" y="524"/>
      <point x="163" y="508" type="curve"/>
      <point x="167" y="508" type="line"/>
      <point x="232" y="575"/>
      <point x="304" y="608"/>
      <point x="392" y="608" type="curve" smooth="yes"/>
      <point x="479" y="608"/>
      <point x="531" y="565"/>
      <point x="518" y="511" type="curve" smooth="yes"/>
      <point x="513" y="491"/>
      <point x="505" y="470"/>
      <point x="494" y="451" type="curve"/>
      <point x="541" y="451"/>
      <point x="579" y="476"/>
      <point x="590" y="516" type="curve" smooth="yes"/>
      <point x="621" y="643"/>
      <point x="546" y="720"/>
    </contour>
  </outline>
</glyph>
<glyph name="three" format="1">
  <advance width="600"/>
  <unicode hex="0033"/>
  <outline>
    <contour>
      <point x="367" y="607" type="curve" smooth="yes"/>
      <point x="483" y="607"/>
      <point x="528" y="547"/>
      <point x="508" y="468" type="curve" smooth="yes"/>
      <point x="505" y="456"/>
      <point x="501" y="445"/>
      <point x="496" y="434" type="curve"/>
      <point x="528" y="436"/>
      <point x="584" y="482"/>
      <point x="592" y="514" type="curve" smooth="yes"/>
      <point x="595" y="527" type="line" smooth="yes"/>
      <point x="621" y="631"/>
      <point x="546" y="720"/>
      <point x="398" y="720" type="curve" smooth="yes"/>
      <point x="312" y="720"/>
      <point x="249" y="703"/>
      <point x="207" y="672" type="curve" smooth="yes"/>
      <point x="177" y="648"/>
      <point x="162" y="628"/>
      <point x="152" y="590" type="curve" smooth="yes"/>
      <point x="147" y="570"/>
      <point x="148" y="549"/>
      <point x="151" y="527" type="curve"/>
      <point x="155" y="527" type="line"/>
      <point x="226" y="590"/>
      <point x="282" y="607"/>
    </contour>
    <contour>
      <point x="221" y="313" type="curve" smooth="yes"/>
      <point x="424" y="313"/>
      <point x="564" y="403"/>
      <point x="592" y="514" type="curve" smooth="yes"/>
      <point x="600" y="548"/>
      <point x="536" y="595"/>
      <point x="503" y="596" type="curve"/>
      <point x="502" y="588"/>
      <point x="500" y="581"/>
      <point x="498" y="571" type="curve" smooth="yes"/>
      <point x="465" y="431"/>
      <point x="345" y="379"/>
      <point x="201" y="379" type="curve"/>
      <point x="195" y="366"/>
      <point x="191" y="358"/>
      <point x="187" y="341" type="curve" smooth="yes"/>
      <point x="182" y="321"/>
      <point x="208" y="313"/>
    </contour>
    <contour>
      <point x="211" y="281" type="curve" smooth="yes"/>
      <point x="340" y="275"/>
      <point x="431" y="226"/>
      <point x="409" y="140" type="curve" smooth="yes"/>
      <point x="408" y="132"/>
      <point x="407" y="126"/>
      <point x="404" y="120" type="curve"/>
      <point x="449" y="122"/>
      <point x="509" y="137"/>
      <point x="515" y="160" type="curve" smooth="yes"/>
      <point x="548" y="295"/>
      <point x="407" y="353"/>
      <point x="195" y="353" type="curve"/>
      <point x="191" y="347"/>
      <point x="188" y="346"/>
      <point x="187" y="341" type="curve" smooth="yes"/>
      <point x="177" y="301"/>
      <point x="183" y="283"/>
    </contour>
    <contour>
      <point x="242" y="92" type="curve" smooth="yes"/>
      <point x="148" y="92"/>
      <point x="93" y="118"/>
      <point x="49" y="182" type="curve"/>
      <point x="45" y="182" type="line"/>
      <point x="36" y="164"/>
      <point x="31" y="150"/>
      <point x="25" y="127" type="curve" smooth="yes"/>
      <point x="14" y="85"/>
      <point x="17" y="67"/>
      <point x="34" y="44" type="curve" smooth="yes"/>
      <point x="61" y="9"/>
      <point x="134" y="-20"/>
      <point x="230" y="-20" type="curve" smooth="yes"/>
      <point x="382" y="-20"/>
      <point x="485" y="41"/>
      <point x="512" y="147" type="curve" smooth="yes"/>
      <point x="515" y="160" type="line" smooth="yes"/>
      <point x="522" y="191"/>
      <point x="478" y="247"/>
      <point x="445" y="249" type="curve"/>
      <point x="444" y="240"/>
      <point x="442" y="229"/>
      <point x="439" y="217" type="curve" smooth="yes"/>
      <point x="419" y="136"/>
      <point x="362" y="92"/>
    </contour>
  </outline>
</glyph>
<glyph name="four" format="1">
  <advance width="600"/>
  <unicode hex="0034"/>
  <outline>
    <contour>
      <point x="127" y="222" type="curve"/>
      <point x="239" y="387"/>
      <point x="448" y="583"/>
      <point x="625" y="675" type="curve"/>
      <point x="626" y="679" type="line"/>
      <point x="610" y="699"/>
      <point x="574" y="712"/>
      <point x="520" y="712" type="curve" smooth="yes"/>
      <point x="483" y="712"/>
      <point x="453" y="704"/>
      <point x="384" y="653" type="curve" smooth="yes"/>
      <point x="215" y="528"/>
      <point x="62" y="337"/>
      <point x="40" y="253" type="curve" smooth="yes"/>
      <point x="35" y="233"/>
      <point x="87" y="222"/>
    </contour>
    <contour>
      <point x="536" y="153" type="line"/>
      <point x="542" y="164"/>
      <point x="546" y="177"/>
      <point x="549" y="188" type="curve" smooth="yes"/>
      <point x="557" y="223"/>
      <point x="560" y="266"/>
      <point x="531" y="266" type="curve" smooth="yes"/>
      <point x="326" y="266" type="line"/>
      <point x="245" y="266"/>
      <point x="131" y="262"/>
      <point x="40" y="253" type="curve"/>
      <point x="37" y="241" type="line" smooth="yes"/>
      <point x="28" y="205"/>
      <point x="32" y="180"/>
      <point x="44" y="164" type="curve" smooth="yes"/>
      <point x="50" y="156"/>
      <point x="57" y="153"/>
      <point x="75" y="153" type="curve" smooth="yes"/>
    </contour>
    <contour>
      <point x="433" y="-3" type="curve"/>
      <point x="433" y="31"/>
      <point x="437" y="57"/>
      <point x="447" y="97" type="curve" smooth="yes"/>
      <point x="512" y="360" type="line" smooth="yes"/>
      <point x="517" y="381"/>
      <point x="487" y="404"/>
      <point x="446" y="404" type="curve" smooth="yes"/>
      <point x="440" y="404" type="line"/>
      <point x="406" y="343"/>
      <point x="365" y="257"/>
      <point x="349" y="197" type="curve"/>
      <point x="315" y="57" type="line" smooth="yes"/>
      <point x="303" y="12"/>
      <point x="329" y="-7"/>
      <point x="381" y="-7" type="curve" smooth="yes"/>
      <point x="406" y="-7"/>
      <point x="421" y="-6"/>
    </contour>
  </outline>
</glyph>
<glyph name="five" format="1">
  <advance width="600"/>
  <unicode hex="0035"/>
  <outline>
    <contour>
      <point x="204" y="700" type="line"/>
      <point x="201" y="693"/>
      <point x="200" y="686"/>
      <point x="198" y="678" type="curve" smooth="yes"/>
      <point x="188" y="637"/>
      <point x="188" y="618"/>
      <point x="200" y="602" type="curve" smooth="yes"/>
      <point x="209" y="590"/>
      <point x="223" y="588"/>
      <point x="247" y="588" type="curve" smooth="yes"/>
      <point x="597" y="588" type="line"/>
      <point x="603" y="600"/>
      <point x="608" y="616"/>
      <point x="612" y="632" type="curve" smooth="yes"/>
      <point x="625" y="681"/>
      <point x="617" y="700"/>
      <point x="574" y="700" type="curve" smooth="yes"/>
    </contour>
    <contour>
      <point x="211" y="290" type="line"/>
      <point x="366" y="660" type="line" smooth="yes"/>
      <point x="377" y="686"/>
      <point x="345" y="700"/>
      <point x="288" y="700" type="curve" smooth="yes"/>
      <point x="265" y="700" type="line"/>
      <point x="108" y="325" type="line" smooth="yes"/>
      <point x="98" y="301"/>
      <point x="138" y="290"/>
      <point x="202" y="290" type="curve" smooth="yes"/>
    </contour>
    <contour>
      <point x="188" y="381" type="curve"/>
      <point x="160" y="317"/>
      <point x="180" y="290"/>
      <point x="211" y="290" type="curve"/>
      <point x="213" y="290"/>
      <point x="214" y="290"/>
      <point x="216" y="290" type="curve" smooth="yes"/>
      <point x="378" y="290"/>
      <point x="454" y="243"/>
      <point x="429" y="143" type="curve" smooth="yes"/>
      <point x="425" y="128"/>
      <point x="422" y="118"/>
      <point x="415" y="104" type="curve"/>
      <point x="459" y="104"/>
      <point x="506" y="128"/>
      <point x="517" y="173" type="curve" smooth="yes"/>
      <point x="546" y="286"/>
      <point x="480" y="381"/>
      <point x="218" y="381" type="curve" smooth="yes"/>
      <point x="208" y="381"/>
      <point x="198" y="381"/>
    </contour>
    <contour>
      <point x="232" y="-20" type="curve" smooth="yes"/>
      <point x="387" y="-20"/>
      <point x="485" y="44"/>
      <point x="513" y="157" type="curve" smooth="yes"/>
      <point x="517" y="173" type="line" smooth="yes"/>
      <point x="526" y="207"/>
      <point x="498" y="260"/>
      <point x="462" y="264" type="curve"/>
      <point x="462" y="254"/>
      <point x="461" y="245"/>
      <point x="458" y="235" type="curve" smooth="yes"/>
      <point x="457" y="229" type="line" smooth="yes"/>
      <point x="435" y="141"/>
      <point x="357" y="92"/>
      <point x="243" y="92" type="curve" smooth="yes"/>
      <point x="148" y="92"/>
      <point x="92" y="125"/>
      <point x="44" y="176" type="curve"/>
      <point x="40" y="176" type="line"/>
      <point x="35" y="166"/>
      <point x="29" y="150"/>
      <point x="25" y="132" type="curve" smooth="yes"/>
      <point x="17" y="98"/>
      <point x="20" y="67"/>
      <point x="35" y="46" type="curve" smooth="yes"/>
      <point x="63" y="8"/>
      <point x="127" y="-20"/>
    </contour>
  </outline>
</glyph>
<glyph name="six" format="1">
  <advance width="600"/>
  <unicode hex="0036"/>
  <outline>
    <contour>
      <point x="117" y="150" type="curve"/>
      <point x="77" y="75"/>
      <point x="163" y="-20"/>
      <point x="260" y="-20" type="curve"/>
      <point x="401" y="-20"/>
      <point x="484" y="50"/>
      <point x="518" y="185" type="curve" smooth="yes"/>
      <point x="520" y="190" type="line" smooth="yes"/>
      <point x="550" y="310"/>
      <point x="468" y="364"/>
      <point x="403" y="325" type="curve"/>
      <point x="420" y="291"/>
      <point x="419" y="250"/>
      <point x="406" y="199" type="curve" smooth="yes"/>
      <point x="405" y="194" type="line" smooth="yes"/>
      <point x="389" y="129"/>
      <point x="343" y="91"/>
      <point x="262" y="91" type="curve" smooth="yes"/>
      <point x="200" y="91"/>
      <point x="155" y="109"/>
    </contour>
    <contour>
      <point x="239" y="537" type="curve"/>
      <point x="303" y="584"/>
      <point x="364" y="608"/>
      <point x="436" y="608" type="curve" smooth="yes"/>
      <point x="497" y="608"/>
      <point x="542" y="593"/>
      <point x="580" y="565" type="curve"/>
      <point x="584" y="565" type="line"/>
      <point x="590" y="578"/>
      <point x="595" y="590"/>
      <point x="600" y="609" type="curve" smooth="yes"/>
      <point x="610" y="651"/>
      <point x="605" y="669"/>
      <point x="596" y="681" type="curve" smooth="yes"/>
      <point x="583" y="699"/>
      <point x="535" y="720"/>
      <point x="454" y="720" type="curve" smooth="yes"/>
      <point x="334" y="720"/>
      <point x="216" y="639"/>
    </contour>
    <contour>
      <point x="77" y="344" type="curve" smooth="yes"/>
      <point x="75" y="335" type="line" smooth="yes"/>
      <point x="21" y="111"/>
      <point x="107" y="-20"/>
      <point x="260" y="-20" type="curve" smooth="yes"/>
      <point x="269" y="-20"/>
      <point x="293" y="-11"/>
      <point x="304" y="32" type="curve"/>
      <point x="188" y="51"/>
      <point x="150" y="162"/>
      <point x="192" y="330" type="curve" smooth="yes"/>
      <point x="195" y="339" type="line" smooth="yes"/>
      <point x="249" y="559"/>
      <point x="310" y="620"/>
      <point x="482" y="670" type="curve"/>
      <point x="489" y="699"/>
      <point x="477" y="720"/>
      <point x="454" y="720" type="curve" smooth="yes"/>
      <point x="287" y="720"/>
      <point x="148" y="634"/>
    </contour>
    <contour>
      <point x="360" y="397" type="curve" smooth="yes"/>
      <point x="290" y="397"/>
      <point x="219" y="374"/>
      <point x="179" y="342" type="curve" smooth="yes"/>
      <point x="158" y="325"/>
      <point x="148" y="305"/>
      <point x="133" y="254" type="curve"/>
      <point x="196" y="285"/>
      <point x="261" y="302"/>
      <point x="320" y="302" type="curve" smooth="yes"/>
      <point x="425" y="302"/>
      <point x="470" y="246"/>
      <point x="451" y="169" type="curve" smooth="yes"/>
      <point x="448" y="155"/>
      <point x="444" y="142"/>
      <point x="436" y="130" type="curve"/>
      <point x="470" y="130"/>
      <point x="510" y="152"/>
      <point x="520" y="190" type="curve" smooth="yes"/>
      <point x="553" y="324"/>
      <point x="474" y="397"/>
    </contour>
  </outline>
</glyph>
<glyph name="seven" format="1">
  <advance width="600"/>
  <unicode hex="0037"/>
  <outline>
    <contour>
      <point x="505" y="588" type="line" smooth="yes"/>
      <point x="547" y="588"/>
      <point x="590" y="590"/>
      <point x="628" y="596" type="curve"/>
      <point x="631" y="607" type="line"/>
      <point x="640" y="645"/>
      <point x="632" y="700"/>
      <point x="604" y="700" type="curve"/>
      <point x="208" y="700" type="line"/>
      <point x="202" y="678" type="line" smooth="yes"/>
      <point x="188" y="621"/>
      <point x="193" y="588"/>
      <point x="224" y="588" type="curve" smooth="yes"/>
    </contour>
    <contour>
      <point x="268" y="-10" type="line"/>
      <point x="332" y="242"/>
      <point x="594" y="460"/>
      <point x="628" y="596" type="curve" smooth="yes"/>
      <point x="632" y="613"/>
      <point x="575" y="624"/>
      <point x="510" y="624" type="curve"/>
      <point x="475" y="488"/>
      <point x="210" y="247"/>
      <point x="162" y="54" type="curve" smooth="yes"/>
      <point x="151" y="10"/>
      <point x="208" y="-10"/>
      <point x="249" y="-10" type="curve" smooth="yes"/>
    </contour>
    <contour>
      <point x="229" y="460" type="curve"/>
      <point x="256" y="571"/>
      <point x="290" y="632"/>
      <point x="302" y="677" type="curve"/>
      <point x="309" y="705"/>
      <point x="258" y="720"/>
      <point x="212" y="720" type="curve" smooth="yes"/>
      <point x="205" y="720" type="line"/>
      <point x="168" y="650"/>
      <point x="142" y="576"/>
      <point x="125" y="505" type="curve"/>
      <point x="114" y="463"/>
      <point x="141" y="456"/>
      <point x="186" y="456" type="curve" smooth="yes"/>
      <point x="202" y="456"/>
      <point x="217" y="458"/>
    </contour>
  </outline>
</glyph>
<glyph name="nine" format="1">
  <advance width="600"/>
  <unicode hex="0039"/>
  <outline>
    <contour>
      <point x="524" y="550" type="curve"/>
      <point x="572" y="618"/>
      <point x="492" y="720"/>
      <point x="395" y="720" type="curve"/>
      <point x="257" y="720"/>
      <point x="152" y="642"/>
      <point x="111" y="480" type="curve" smooth="yes"/>
      <point x="108" y="470" type="line" smooth="yes"/>
      <point x="77" y="346"/>
      <point x="166" y="283"/>
      <point x="232" y="323" type="curve"/>
      <point x="205" y="357"/>
      <point x="206" y="400"/>
      <point x="219" y="453" type="curve" smooth="yes"/>
      <point x="220" y="458" type="line" smooth="yes"/>
      <point x="243" y="549"/>
      <point x="302" y="609"/>
      <point x="385" y="609" type="curve" smooth="yes"/>
      <point x="447" y="609"/>
      <point x="490" y="591"/>
    </contour>
    <contour>
      <point x="414" y="167" type="curve"/>
      <point x="346" y="114"/>
      <point x="280" y="92"/>
      <point x="205" y="92" type="curve" smooth="yes"/>
      <point x="143" y="92"/>
      <point x="100" y="107"/>
      <point x="61" y="135" type="curve"/>
      <point x="57" y="135" type="line"/>
      <point x="50" y="124"/>
      <point x="44" y="110"/>
      <point x="41" y="93" type="curve" smooth="yes"/>
      <point x="33" y="53"/>
      <point x="37" y="33"/>
      <point x="47" y="20" type="curve" smooth="yes"/>
      <point x="62" y="1"/>
      <point x="111" y="-20"/>
      <point x="196" y="-20" type="curve" smooth="yes"/>
      <point x="321" y="-20"/>
      <point x="433" y="62"/>
    </contour>
    <contour>
      <point x="564" y="363" type="curve" smooth="yes"/>
      <point x="566" y="372" type="line" smooth="yes"/>
      <point x="623" y="600"/>
      <point x="549" y="720"/>
      <point x="395" y="720" type="curve" smooth="yes"/>
      <point x="384" y="720"/>
      <point x="362" y="713"/>
      <point x="349" y="661" type="curve"/>
      <point x="479" y="636"/>
      <point x="492" y="549"/>
      <point x="449" y="377" type="curve" smooth="yes"/>
      <point x="447" y="367" type="line" smooth="yes"/>
      <point x="390" y="140"/>
      <point x="333" y="79"/>
      <point x="164" y="41" type="curve"/>
      <point x="156" y="1"/>
      <point x="174" y="-20"/>
      <point x="196" y="-20" type="curve" smooth="yes"/>
      <point x="363" y="-20"/>
      <point x="487" y="54"/>
    </contour>
    <contour>
      <point x="273" y="238" type="curve" smooth="yes"/>
      <point x="340" y="238"/>
      <point x="398" y="252"/>
      <point x="438" y="285" type="curve" smooth="yes"/>
      <point x="459" y="303"/>
      <point x="469" y="323"/>
      <point x="479" y="380" type="curve"/>
      <point x="419" y="347"/>
      <point x="366" y="332"/>
      <point x="306" y="332" type="curve" smooth="yes"/>
      <point x="202" y="332"/>
      <point x="150" y="390"/>
      <point x="173" y="480" type="curve" smooth="yes"/>
      <point x="178" y="499"/>
      <point x="183" y="514"/>
      <point x="192" y="529" type="curve"/>
      <point x="158" y="529"/>
      <point x="119" y="514"/>
      <point x="108" y="470" type="curve" smooth="yes"/>
      <point x="71" y="320"/>
      <point x="151" y="238"/>
    </contour>
  </outline>
</glyph>
<glyph name="colon" format="1">
  <advance width="600"/>
  <unicode hex="003A"/>
  <outline>
    <contour>
      <point x="414" y="367" type="curve"/>
      <point x="442" y="479" type="line" smooth="yes"/>
      <point x="456" y="532"/>
      <point x="406" y="545"/>
      <point x="349" y="545" type="curve" smooth="yes"/>
      <point x="326" y="545"/>
      <point x="300" y="542"/>
      <point x="278" y="536" type="curve"/>
      <point x="250" y="424" type="line" smooth="yes"/>
      <point x="236" y="371"/>
      <point x="286" y="358"/>
      <point x="343" y="358" type="curve" smooth="yes"/>
      <point x="366" y="358"/>
      <point x="392" y="361"/>
    </contour>
    <contour>
      <point x="323" y="0" type="curve"/>
      <point x="351" y="112" type="line" smooth="yes"/>
      <point x="364" y="165"/>
      <point x="314" y="178"/>
      <point x="257" y="178" type="curve" smooth="yes"/>
      <point x="234" y="178"/>
      <point x="208" y="175"/>
      <point x="186" y="169" type="curve"/>
      <point x="158" y="57" type="line" smooth="yes"/>
      <point x="145" y="4"/>
      <point x="194" y="-9"/>
      <point x="252" y="-9" type="curve" smooth="yes"/>
      <point x="274" y="-9"/>
      <point x="300" y="-6"/>
    </contour>
  </outline>
</glyph>
<glyph name="semicolon" format="1">
  <advance width="600"/>
  <unicode hex="003B"/>
  <outline>
    <contour>
      <point x="414" y="365" type="curve"/>
      <point x="442" y="477" type="line" smooth="yes"/>
      <point x="455" y="530"/>
      <point x="405" y="543"/>
      <point x="348" y="543" type="curve" smooth="yes"/>
      <point x="325" y="543"/>
      <point x="300" y="540"/>
      <point x="277" y="535" type="curve"/>
      <point x="249" y="423" type="line" smooth="yes"/>
      <point x="236" y="370"/>
      <point x="286" y="356"/>
      <point x="343" y="356" type="curve" smooth="yes"/>
      <point x="366" y="356"/>
      <point x="392" y="359"/>
    </contour>
    <contour>
      <point x="148" y="-197" type="curve" smooth="yes"/>
      <point x="166" y="-197"/>
      <point x="177" y="-193"/>
      <point x="188" y="-184" type="curve"/>
      <point x="257" y="-129"/>
      <point x="336" y="-13"/>
      <point x="362" y="87" type="curve"/>
      <point x="373" y="134"/>
      <point x="346" y="151"/>
      <point x="281" y="151" type="curve" smooth="yes"/>
      <point x="259" y="151"/>
      <point x="244" y="149"/>
      <point x="220" y="143" type="curve"/>
      <point x="186" y="6"/>
      <point x="142" y="-84"/>
      <point x="69" y="-170" type="curve"/>
      <point x="89" y="-189"/>
      <point x="111" y="-197"/>
    </contour>
  </outline>
</glyph>
<glyph name="less" format="1">
  <advance width="600"/>
  <unicode hex="003C"/>
  <outline>
    <contour>
      <point x="582" y="479" type="curve"/>
      <point x="587" y="497" type="line"/>
      <point x="596" y="535"/>
      <point x="587" y="580"/>
      <point x="557" y="580" type="curve" smooth="yes"/>
      <point x="544" y="580"/>
      <point x="512" y="573"/>
      <point x="466" y="556" type="curve" smooth="yes"/>
      <point x="316" y="503"/>
      <point x="177" y="416"/>
      <point x="84" y="328" type="curve"/>
      <point x="77" y="303" type="line"/>
      <point x="70" y="274"/>
      <point x="98" y="265"/>
      <point x="166" y="270" type="curve"/>
      <point x="282" y="370"/>
      <point x="383" y="436"/>
    </contour>
    <contour>
      <point x="457" y="13" type="curve"/>
      <point x="464" y="25"/>
      <point x="469" y="37"/>
      <point x="474" y="55" type="curve" smooth="yes"/>
      <point x="484" y="97"/>
      <point x="482" y="129"/>
      <point x="462" y="136" type="curve" smooth="yes"/>
      <point x="309" y="186"/>
      <point x="242" y="240"/>
      <point x="168" y="341" type="curve" smooth="yes"/>
      <point x="163" y="348"/>
      <point x="163" y="356"/>
      <point x="164" y="360" type="curve" smooth="yes"/>
      <point x="165" y="365"/>
      <point x="166" y="370"/>
      <point x="168" y="378" type="curve"/>
      <point x="110" y="349"/>
      <point x="83" y="324"/>
      <point x="78" y="307" type="curve" smooth="yes"/>
      <point x="76" y="297" type="line" smooth="yes"/>
      <point x="70" y="273"/>
      <point x="72" y="258"/>
      <point x="99" y="226" type="curve" smooth="yes"/>
      <point x="176" y="137"/>
      <point x="267" y="61"/>
    </contour>
  </outline>
</glyph>
<glyph name="greater" format="1">
  <advance width="600"/>
  <unicode hex="003E"/>
  <outline>
    <contour>
      <point x="34" y="120" type="curve"/>
      <point x="29" y="101" type="line"/>
      <point x="20" y="64"/>
      <point x="29" y="18"/>
      <point x="59" y="18" type="curve" smooth="yes"/>
      <point x="72" y="18"/>
      <point x="104" y="26"/>
      <point x="150" y="42" type="curve" smooth="yes"/>
      <point x="300" y="96"/>
      <point x="438" y="182"/>
      <point x="532" y="271" type="curve"/>
      <point x="538" y="296" type="line"/>
      <point x="546" y="325"/>
      <point x="518" y="334"/>
      <point x="450" y="328" type="curve"/>
      <point x="334" y="229"/>
      <point x="233" y="163"/>
    </contour>
    <contour>
      <point x="159" y="586" type="curve"/>
      <point x="152" y="574"/>
      <point x="147" y="562"/>
      <point x="142" y="543" type="curve" smooth="yes"/>
      <point x="132" y="501"/>
      <point x="134" y="470"/>
      <point x="154" y="463" type="curve" smooth="yes"/>
      <point x="307" y="412"/>
      <point x="374" y="359"/>
      <point x="447" y="258" type="curve" smooth="yes"/>
      <point x="453" y="250"/>
      <point x="453" y="243"/>
      <point x="452" y="238" type="curve" smooth="yes"/>
      <point x="451" y="233"/>
      <point x="449" y="228"/>
      <point x="448" y="221" type="curve"/>
      <point x="506" y="250"/>
      <point x="533" y="275"/>
      <point x="537" y="292" type="curve" smooth="yes"/>
      <point x="540" y="301" type="line" smooth="yes"/>
      <point x="546" y="326"/>
      <point x="544" y="340"/>
      <point x="516" y="373" type="curve" smooth="yes"/>
      <point x="440" y="462"/>
      <point x="349" y="538"/>
    </contour>
  </outline>
</glyph>
<glyph name="A" format="1">
  <advance width="600"/>
  <unicode hex="0041"/>
  <outline>
    <contour>
      <point x="111" y="-7" type="curve"/>
      <point x="210" y="358"/>
      <point x="289" y="502"/>
      <point x="415" y="618" type="curve"/>
      <point x="445" y="644"/>
      <point x="442" y="710"/>
      <point x="387" y="710" type="curve"/>
      <point x="356" y="710" type="line"/>
      <point x="196" y="573"/>
      <point x="74" y="331"/>
      <point x="1" y="42" type="curve"/>
      <point x="-9" y="4"/>
      <point x="26" y="-10"/>
      <point x="79" y="-10" type="curve" smooth="yes"/>
      <point x="94" y="-10"/>
      <point x="102" y="-9"/>
    </contour>
    <contour>
      <point x="474" y="-6" type="curve"/>
      <point x="532" y="252"/>
      <point x="541" y="458"/>
      <point x="511" y="589" type="curve"/>
      <point x="501" y="635"/>
      <point x="487" y="666"/>
      <point x="469" y="689" type="curve" smooth="yes"/>
      <point x="461" y="700"/>
      <point x="429" y="710"/>
      <point x="387" y="710" type="curve"/>
      <point x="362" y="710"/>
      <point x="323" y="665"/>
      <point x="315" y="635" type="curve"/>
      <point x="324" y="635"/>
      <point x="331" y="635"/>
      <point x="338" y="635" type="curve" smooth="yes"/>
      <point x="357" y="635"/>
      <point x="367" y="631"/>
      <point x="375" y="609" type="curve"/>
      <point x="427" y="495"/>
      <point x="424" y="343"/>
      <point x="361" y="44" type="curve"/>
      <point x="358" y="29"/>
      <point x="359" y="21"/>
      <point x="365" y="13" type="curve" smooth="yes"/>
      <point x="378" y="-2"/>
      <point x="407" y="-10"/>
      <point x="440" y="-10" type="curve" smooth="yes"/>
      <point x="454" y="-10"/>
      <point x="464" y="-9"/>
    </contour>
    <contour>
      <point x="37" y="282" type="line"/>
      <point x="32" y="263" type="line" smooth="yes"/>
      <point x="23" y="229"/>
      <point x="22" y="201"/>
      <point x="35" y="184" type="curve" smooth="yes"/>
      <point x="39" y="179"/>
      <point x="42" y="177"/>
      <point x="49" y="177" type="curve"/>
      <point x="418" y="177" type="line"/>
      <point x="436" y="249"/>
      <point x="403" y="282"/>
      <point x="318" y="282" type="curve" smooth="yes"/>
    </contour>
    <contour>
      <point x="410" y="711" type="move" name="top"/>
    </contour>
    <contour>
      <point x="474" y="-7" type="move" name="ogonek"/>
    </contour>
    <contour>
      <point x="409" y="707" type="move" name="ring"/>
    </contour>
    <contour>
      <point x="224" y="-1" type="move" name="bottom"/>
    </contour>
  </outline>
</glyph>
<glyph name="B" format="1">
  <advance width="600"/>
  <unicode hex="0042"/>
  <outline>
    <contour>
      <point x="145" y="25" type="curve"/>
      <point x="272" y="536" type="line" smooth="yes"/>
      <point x="290" y="606"/>
      <point x="258" y="635"/>
      <point x="175" y="635" type="curve"/>
      <point x="32" y="66" type="line"/>
      <point x="27" y="41"/>
      <point x="80" y="25"/>
    </contour>
    <contour>
      <point x="142" y="700" type="curve"/>
      <point x="136" y="688"/>
      <point x="132" y="675"/>
      <point x="128" y="659" type="curve" smooth="yes"/>
      <point x="120" y="627"/>
      <point x="121" y="608"/>
      <point x="129" y="596" type="curve" smooth="yes"/>
      <point x="134" y="590"/>
      <point x="140" y="588"/>
      <point x="148" y="588" type="curve" smooth="yes"/>
      <point x="157" y="588"/>
      <point x="172" y="591"/>
      <point x="201" y="595" type="curve" smooth="yes"/>
      <point x="249" y="602"/>
      <point x="308" y="608"/>
      <point x="370" y="608" type="curve" smooth="yes"/>
      <point x="455" y="608"/>
      <point x="493" y="596"/>
      <point x="531" y="556" type="curve"/>
      <point x="596" y="609"/>
      <point x="517" y="720"/>
      <point x="403" y="720" type="curve" smooth="yes"/>
      <point x="320" y="720"/>
      <point x="235" y="714"/>
    </contour>
    <contour>
      <point x="595" y="509" type="curve" smooth="yes"/>
      <point x="599" y="525" type="line" smooth="yes"/>
      <point x="622" y="615"/>
      <point x="566" y="720"/>
      <point x="403" y="720" type="curve" smooth="yes"/>
      <point x="389" y="720"/>
      <point x="375" y="704"/>
      <point x="365" y="662" type="curve"/>
      <point x="471" y="662"/>
      <point x="503" y="604"/>
      <point x="480" y="512" type="curve" smooth="yes"/>
      <point x="476" y="496" type="line" smooth="yes"/>
      <point x="454" y="411"/>
      <point x="385" y="368"/>
      <point x="268" y="368" type="curve" smooth="yes"/>
      <point x="233" y="368"/>
      <point x="221" y="370"/>
      <point x="199" y="379" type="curve"/>
      <point x="188" y="370"/>
      <point x="184" y="361"/>
      <point x="181" y="348" type="curve" smooth="yes"/>
      <point x="172" y="313"/>
      <point x="203" y="279"/>
      <point x="246" y="279" type="curve" smooth="yes"/>
      <point x="259" y="279" type="line" smooth="yes"/>
      <point x="420" y="279"/>
      <point x="558" y="366"/>
    </contour>
    <contour>
      <point x="510" y="193" type="curve" smooth="yes"/>
      <point x="513" y="208" type="line" smooth="yes"/>
      <point x="532" y="281"/>
      <point x="480" y="351"/>
      <point x="409" y="351" type="curve" smooth="yes"/>
      <point x="404" y="351" type="line" smooth="yes"/>
      <point x="363" y="351"/>
      <point x="335" y="332"/>
      <point x="332" y="317" type="curve"/>
      <point x="331" y="314" type="line"/>
      <point x="339" y="314" type="line"/>
      <point x="385" y="314"/>
      <point x="414" y="273"/>
      <point x="399" y="215" type="curve" smooth="yes"/>
      <point x="396" y="202" type="line" smooth="yes"/>
      <point x="378" y="133"/>
      <point x="306" y="98"/>
      <point x="229" y="98" type="curve" smooth="yes"/>
      <point x="157" y="98"/>
      <point x="124" y="113"/>
      <point x="88" y="141" type="curve"/>
      <point x="58" y="118"/>
      <point x="39" y="91"/>
      <point x="32" y="66" type="curve" smooth="yes"/>
      <point x="24" y="28"/>
      <point x="93" y="-10"/>
      <point x="191" y="-10" type="curve" smooth="yes"/>
      <point x="202" y="-10" type="line" smooth="yes"/>
      <point x="346" y="-10"/>
      <point x="477" y="64"/>
    </contour>
  </outline>
</glyph>
<glyph name="C" format="1">
  <advance width="600"/>
  <unicode hex="0043"/>
  <outline>
    <contour>
      <point x="442" y="618" type="curve" smooth="yes"/>
      <point x="504" y="618"/>
      <point x="542" y="599"/>
      <point x="532" y="489" type="curve"/>
      <point x="572" y="489"/>
      <point x="584" y="495"/>
      <point x="587" y="509" type="curve" smooth="yes"/>
      <point x="607" y="589"/>
      <point x="603" y="637"/>
      <point x="577" y="670" type="curve" smooth="yes"/>
      <point x="556" y="699"/>
      <point x="523" y="720"/>
      <point x="455" y="720" type="curve" smooth="yes"/>
      <point x="283" y="720"/>
      <point x="144" y="580"/>
      <point x="77" y="309" type="curve" smooth="yes"/>
      <point x="69" y="280" type="line" smooth="yes"/>
      <point x="53" y="217"/>
      <point x="99" y="124"/>
      <point x="166" y="125" type="curve"/>
      <point x="162" y="175"/>
      <point x="169" y="227"/>
      <point x="181" y="276" type="curve" smooth="yes"/>
      <point x="186" y="294" type="line" smooth="yes"/>
      <point x="241" y="517"/>
      <point x="351" y="618"/>
    </contour>
    <contour>
      <point x="270" y="-20" type="curve" smooth="yes"/>
      <point x="347" y="-20"/>
      <point x="406" y="-7"/>
      <point x="453" y="31" type="curve" smooth="yes"/>
      <point x="481" y="54"/>
      <point x="495" y="86"/>
      <point x="506" y="131" type="curve" smooth="yes"/>
      <point x="510" y="146"/>
      <point x="512" y="163"/>
      <point x="513" y="181" type="curve"/>
      <point x="509" y="181" type="line"/>
      <point x="445" y="117"/>
      <point x="373" y="92"/>
      <point x="287" y="92" type="curve" smooth="yes"/>
      <point x="167" y="92"/>
      <point x="142" y="179"/>
      <point x="180" y="328" type="curve"/>
      <point x="103" y="329"/>
      <point x="82" y="332"/>
      <point x="69" y="280" type="curve" smooth="yes"/>
      <point x="24" y="104"/>
      <point x="105" y="-20"/>
    </contour>
    <contour>
      <point x="563" y="410" type="curve"/>
      <point x="587" y="509" type="line" smooth="yes"/>
      <point x="614" y="616"/>
      <point x="576" y="666"/>
      <point x="520" y="658" type="curve"/>
      <point x="493" y="593"/>
      <point x="478" y="556"/>
      <point x="465" y="503" type="curve" smooth="yes"/>
      <point x="453" y="453" type="line"/>
      <point x="449" y="440"/>
      <point x="451" y="430"/>
      <point x="457" y="422" type="curve" smooth="yes"/>
      <point x="466" y="410"/>
      <point x="483" y="405"/>
      <point x="518" y="405" type="curve"/>
      <point x="536" y="405"/>
      <point x="551" y="407"/>
    </contour>
    <contour>
      <point x="432" y="711" type="move" name="top"/>
    </contour>
    <contour>
      <point x="260" y="-4" type="move" name="bottom"/>
    </contour>
  </outline>
</glyph>
<glyph name="D" format="1">
  <advance width="600"/>
  <unicode hex="0044"/>
  <outline>
    <contour>
      <point x="147" y="33" type="curve"/>
      <point x="272" y="536" type="line" smooth="yes"/>
      <point x="290" y="606"/>
      <point x="258" y="635"/>
      <point x="175" y="635" type="curve"/>
      <point x="35" y="76" type="line" smooth="yes"/>
      <point x="29" y="52"/>
      <point x="78" y="33"/>
    </contour>
    <contour>
      <point x="142" y="700" type="curve"/>
      <point x="136" y="688"/>
      <point x="132" y="675"/>
      <point x="128" y="659" type="curve"/>
      <point x="120" y="627"/>
      <point x="121" y="609"/>
      <point x="129" y="596" type="curve" smooth="yes"/>
      <point x="134" y="590"/>
      <point x="140" y="588"/>
      <point x="148" y="588" type="curve" smooth="yes"/>
      <point x="157" y="588"/>
      <point x="172" y="591"/>
      <point x="201" y="595" type="curve" smooth="yes"/>
      <point x="248" y="602"/>
      <point x="305" y="608"/>
      <point x="366" y="608" type="curve" smooth="yes"/>
      <point x="445" y="608"/>
      <point x="483" y="590"/>
      <point x="527" y="545" type="curve"/>
      <point x="590" y="604"/>
      <point x="508" y="720"/>
      <point x="393" y="720" type="curve" smooth="yes"/>
      <point x="308" y="720"/>
      <point x="235" y="715"/>
    </contour>
    <contour>
      <point x="574" y="370" type="curve" smooth="yes"/>
      <point x="583" y="407" type="line" smooth="yes"/>
      <point x="633" y="601"/>
      <point x="557" y="720"/>
      <point x="393" y="720" type="curve"/>
      <point x="370" y="720"/>
      <point x="359" y="698"/>
      <point x="350" y="666" type="curve"/>
      <point x="484" y="634"/>
      <point x="503" y="573"/>
      <point x="458" y="395" type="curve" smooth="yes"/>
      <point x="452" y="373" type="line" smooth="yes"/>
      <point x="406" y="190"/>
      <point x="318" y="105"/>
      <point x="195" y="105" type="curve" smooth="yes"/>
      <point x="136" y="105"/>
      <point x="109" y="114"/>
      <point x="73" y="133" type="curve"/>
      <point x="54" y="120"/>
      <point x="42" y="104"/>
      <point x="35" y="76" type="curve" smooth="yes"/>
      <point x="26" y="37"/>
      <point x="94" y="-10"/>
      <point x="169" y="-10" type="curve" smooth="yes"/>
      <point x="173" y="-10" type="line" smooth="yes"/>
      <point x="367" y="-10"/>
      <point x="509" y="113"/>
    </contour>
    <contour>
      <point x="399" y="711" type="move" name="top"/>
    </contour>
  </outline>
</glyph>
<glyph name="E" format="1">
  <advance width="600"/>
  <unicode hex="0045"/>
  <outline>
    <contour>
      <point x="141" y="700" type="line"/>
      <point x="140" y="694"/>
      <point x="138" y="686"/>
      <point x="137" y="680" type="curve" smooth="yes"/>
      <point x="127" y="645"/>
      <point x="123" y="609"/>
      <point x="133" y="597" type="curve" smooth="yes"/>
      <point x="138" y="590"/>
      <point x="141" y="588"/>
      <point x="150" y="588" type="curve" smooth="yes"/>
      <point x="617" y="588" type="line"/>
      <point x="624" y="599"/>
      <point x="629" y="614"/>
      <point x="633" y="630" type="curve" smooth="yes"/>
      <point x="637" y="645"/>
      <point x="641" y="676"/>
      <point x="629" y="690" type="curve" smooth="yes"/>
      <point x="624" y="698"/>
      <point x="618" y="700"/>
      <point x="605" y="700" type="curve" smooth="yes"/>
    </contour>
    <contour>
      <point x="156" y="71" type="curve"/>
      <point x="270" y="524" type="line" smooth="yes"/>
      <point x="287" y="594"/>
      <point x="262" y="619"/>
      <point x="171" y="619" type="curve"/>
      <point x="44" y="112" type="line"/>
      <point x="36" y="80"/>
      <point x="90" y="71"/>
    </contour>
    <contour>
      <point x="44" y="112" type="line"/>
      <point x="41" y="99" type="line" smooth="yes"/>
      <point x="30" y="54"/>
      <point x="60" y="0"/>
      <point x="97" y="0" type="curve" smooth="yes"/>
      <point x="472" y="0" type="line"/>
      <point x="478" y="11"/>
      <point x="483" y="24"/>
      <point x="487" y="41" type="curve" smooth="yes"/>
      <point x="499" y="91"/>
      <point x="490" y="112"/>
      <point x="456" y="112" type="curve" smooth="yes"/>
    </contour>
    <contour>
      <point x="165" y="383" type="line"/>
      <point x="147" y="314"/>
      <point x="150" y="284"/>
      <point x="185" y="284" type="curve" smooth="yes"/>
      <point x="486" y="284" type="line"/>
      <point x="487" y="288"/>
      <point x="489" y="293"/>
      <point x="490" y="297" type="curve" smooth="yes"/>
      <point x="496" y="321"/>
      <point x="495" y="351"/>
      <point x="481" y="369" type="curve" smooth="yes"/>
      <point x="473" y="380"/>
      <point x="465" y="383"/>
      <point x="450" y="383" type="curve" smooth="yes"/>
    </contour>
    <contour>
      <point x="411" y="712" type="move" name="top"/>
    </contour>
    <contour>
      <point x="472" y="-1" type="move" name="ogonek"/>
    </contour>
    <contour>
      <point x="259" y="-1" type="move" name="bottom"/>
    </contour>
  </outline>
</glyph>
<glyph name="F" format="1">
  <advance width="600"/>
  <unicode hex="0046"/>
  <outline>
    <contour>
      <point x="159" y="-6" type="curve"/>
      <point x="161" y="28"/>
      <point x="165" y="54"/>
      <point x="174" y="91" type="curve" smooth="yes"/>
      <point x="283" y="524" type="line"/>
      <point x="301" y="595"/>
      <point x="276" y="621"/>
      <point x="185" y="621" type="curve"/>
      <point x="42" y="51" type="line" smooth="yes"/>
      <point x="32" y="10"/>
      <point x="63" y="-6"/>
      <point x="147" y="-6" type="curve" smooth="yes"/>
      <point x="151" y="-6"/>
      <point x="155" y="-6"/>
    </contour>
    <contour>
      <point x="141" y="700" type="line"/>
      <point x="140" y="694"/>
      <point x="138" y="686"/>
      <point x="137" y="680" type="curve" smooth="yes"/>
      <point x="124" y="631"/>
      <point x="127" y="611"/>
      <point x="135" y="599" type="curve" smooth="yes"/>
      <point x="141" y="592"/>
      <point x="146" y="588"/>
      <point x="161" y="588" type="curve"/>
      <point x="618" y="588" type="line"/>
      <point x="624" y="599"/>
      <point x="629" y="612"/>
      <point x="633" y="630" type="curve" smooth="yes"/>
      <point x="640" y="658"/>
      <point x="638" y="678"/>
      <point x="630" y="689" type="curve" smooth="yes"/>
      <point x="623" y="697"/>
      <point x="616" y="700"/>
      <point x="601" y="700" type="curve"/>
    </contour>
    <contour>
      <point x="133" y="333" type="line"/>
      <point x="115" y="262"/>
      <point x="114" y="221"/>
      <point x="149" y="221" type="curve"/>
      <point x="482" y="221" type="line"/>
      <point x="486" y="228"/>
      <point x="488" y="235"/>
      <point x="491" y="244" type="curve"/>
      <point x="497" y="272"/>
      <point x="495" y="299"/>
      <point x="482" y="317" type="curve" smooth="yes"/>
      <point x="473" y="330"/>
      <point x="465" y="333"/>
      <point x="443" y="333" type="curve"/>
    </contour>
  </outline>
</glyph>
<glyph name="G" format="1">
  <advance width="600"/>
  <unicode hex="0047"/>
  <outline>
    <contour>
      <point x="457" y="616" type="curve" smooth="yes"/>
      <point x="527" y="616"/>
      <point x="542" y="581"/>
      <point x="527" y="518" type="curve"/>
      <point x="567" y="518"/>
      <point x="585" y="536"/>
      <point x="589" y="549" type="curve" smooth="yes"/>
      <point x="602" y="602"/>
      <point x="602" y="635"/>
      <point x="575" y="671" type="curve" smooth="yes"/>
      <point x="553" y="700"/>
      <point x="520" y="720"/>
      <point x="471" y="720" type="curve" smooth="yes"/>
      <point x="297" y="720"/>
      <point x="140" y="595"/>
      <point x="67" y="310" type="curve" smooth="yes"/>
      <point x="64" y="298" type="line" smooth="yes"/>
      <point x="47" y="227"/>
      <point x="79" y="133"/>
      <point x="160" y="127" type="curve"/>
      <point x="155" y="173"/>
      <point x="161" y="217"/>
      <point x="175" y="273" type="curve" smooth="yes"/>
      <point x="177" y="284" type="line" smooth="yes"/>
      <point x="230" y="509"/>
      <point x="353" y="616"/>
    </contour>
    <contour>
      <point x="279" y="92" type="curve" smooth="yes"/>
      <point x="164" y="92"/>
      <point x="127" y="174"/>
      <point x="168" y="333" type="curve"/>
      <point x="104" y="343"/>
      <point x="75" y="341"/>
      <point x="64" y="298" type="curve" smooth="yes"/>
      <point x="21" y="123"/>
      <point x="86" y="-20"/>
      <point x="265" y="-20" type="curve" smooth="yes"/>
      <point x="387" y="-20"/>
      <point x="483" y="35"/>
      <point x="512" y="144" type="curve" smooth="yes"/>
      <point x="515" y="154" type="line" smooth="yes"/>
      <point x="532" y="217"/>
      <point x="505" y="278"/>
      <point x="453" y="278" type="curve"/>
      <point x="453" y="259"/>
      <point x="451" y="243"/>
      <point x="443" y="213" type="curve" smooth="yes"/>
      <point x="423" y="132"/>
      <point x="361" y="92"/>
    </contour>
    <contour>
      <point x="324" y="335" type="line"/>
      <point x="321" y="330"/>
      <point x="320" y="324"/>
      <point x="318" y="318" type="curve" smooth="yes"/>
      <point x="310" y="288"/>
      <point x="314" y="270"/>
      <point x="324" y="257" type="curve" smooth="yes"/>
      <point x="336" y="241"/>
      <point x="354" y="234"/>
      <point x="408" y="234" type="curve"/>
      <point x="561" y="234" type="line"/>
      <point x="564" y="244" type="line" smooth="yes"/>
      <point x="580" y="312"/>
      <point x="574" y="335"/>
      <point x="534" y="335" type="curve" smooth="yes"/>
    </contour>
    <contour>
      <point x="567" y="464" type="curve"/>
      <point x="589" y="549" type="line" smooth="yes"/>
      <point x="609" y="631"/>
      <point x="568" y="663"/>
      <point x="516" y="658" type="curve"/>
      <point x="497" y="614"/>
      <point x="480" y="577"/>
      <point x="471" y="544" type="curve" smooth="yes"/>
      <point x="463" y="509" type="line" smooth="yes"/>
      <point x="454" y="473"/>
      <point x="469" y="459"/>
      <point x="523" y="459" type="curve" smooth="yes"/>
      <point x="540" y="459"/>
      <point x="555" y="461"/>
    </contour>
    <contour>
      <point x="424" y="711" type="move" name="top"/>
    </contour>
    <contour>
      <point x="246" y="-1" type="move" name="bottom"/>
    </contour>
  </outline>
</glyph>
<glyph name="H" format="1">
  <advance width="600"/>
  <unicode hex="0048"/>
  <outline>
    <contour>
      <point x="178" y="704" type="curve"/>
      <point x="177" y="669"/>
      <point x="171" y="632"/>
      <point x="162" y="593" type="curve" smooth="yes"/>
      <point x="23" y="42" type="line" smooth="yes"/>
      <point x="14" y="6"/>
      <point x="43" y="-10"/>
      <point x="104" y="-10" type="curve" smooth="yes"/>
      <point x="117" y="-10"/>
      <point x="126" y="-9"/>
      <point x="133" y="-8" type="curve"/>
      <point x="296" y="643" type="line" smooth="yes"/>
      <point x="302" y="667"/>
      <point x="302" y="681"/>
      <point x="294" y="693" type="curve" smooth="yes"/>
      <point x="285" y="705"/>
      <point x="267" y="710"/>
      <point x="230" y="710" type="curve" smooth="yes"/>
      <point x="211" y="710"/>
      <point x="196" y="708"/>
    </contour>
    <contour>
      <point x="472" y="-4" type="curve"/>
      <point x="473" y="31"/>
      <point x="480" y="68"/>
      <point x="490" y="107" type="curve" smooth="yes"/>
      <point x="627" y="658" type="line" smooth="yes"/>
      <point x="636" y="693"/>
      <point x="602" y="710"/>
      <point x="533" y="710" type="curve" smooth="yes"/>
      <point x="527" y="710"/>
      <point x="522" y="710"/>
      <point x="518" y="710" type="curve"/>
      <point x="355" y="57" type="line" smooth="yes"/>
      <point x="349" y="33"/>
      <point x="349" y="19"/>
      <point x="357" y="7" type="curve" smooth="yes"/>
      <point x="366" y="-5"/>
      <point x="383" y="-10"/>
      <point x="421" y="-10" type="curve" smooth="yes"/>
      <point x="439" y="-10"/>
      <point x="454" y="-8"/>
    </contour>
    <contour>
      <point x="57" y="362" type="line"/>
      <point x="52" y="343" type="line" smooth="yes"/>
      <point x="42" y="304"/>
      <point x="45" y="277"/>
      <point x="60" y="258" type="curve" smooth="yes"/>
      <point x="64" y="252"/>
      <point x="67" y="251"/>
      <point x="73" y="251" type="curve"/>
      <point x="436" y="251" type="line"/>
      <point x="457" y="337"/>
      <point x="437" y="362"/>
      <point x="367" y="362" type="curve" smooth="yes"/>
    </contour>
    <contour>
      <point x="397" y="711" type="move" name="top"/>
    </contour>
  </outline>
</glyph>
<glyph name="I" format="1">
  <advance width="600"/>
  <unicode hex="0049"/>
  <outline>
    <contour>
      <point x="306" y="61" type="curve"/>
      <point x="422" y="524" type="line" smooth="yes"/>
      <point x="439" y="594"/>
      <point x="416" y="619"/>
      <point x="323" y="619" type="curve"/>
      <point x="213" y="179" type="line" smooth="yes"/>
      <point x="193" y="99"/>
      <point x="213" y="61"/>
    </contour>
    <contour>
      <point x="163" y="700" type="line"/>
      <point x="159" y="693"/>
      <point x="155" y="683"/>
      <point x="151" y="671" type="curve"/>
      <point x="144" y="642"/>
      <point x="147" y="624"/>
      <point x="159" y="608" type="curve" smooth="yes"/>
      <point x="170" y="592"/>
      <point x="191" y="588"/>
      <point x="241" y="588" type="curve" smooth="yes"/>
      <point x="618" y="588" type="line"/>
      <point x="626" y="603"/>
      <point x="631" y="618"/>
      <point x="634" y="631" type="curve" smooth="yes"/>
      <point x="645" y="673"/>
      <point x="643" y="700"/>
      <point x="603" y="700" type="curve" smooth="yes"/>
    </contour>
    <contour>
      <point x="17" y="112" type="line"/>
      <point x="10" y="100"/>
      <point x="5" y="86"/>
      <point x="1" y="71" type="curve"/>
      <point x="-4" y="48"/>
      <point x="-6" y="28"/>
      <point x="5" y="14" type="curve" smooth="yes"/>
      <point x="13" y="3"/>
      <point x="22" y="0"/>
      <point x="50" y="0" type="curve" smooth="yes"/>
      <point x="472" y="0" type="line"/>
      <point x="477" y="11"/>
      <point x="483" y="25"/>
      <point x="487" y="42" type="curve" smooth="yes"/>
      <point x="497" y="84"/>
      <point x="496" y="112"/>
      <point x="456" y="112" type="curve" smooth="yes"/>
    </contour>
    <contour>
      <point x="411" y="712" type="move" name="top"/>
    </contour>
    <contour>
      <point x="472" y="-1" type="move" name="ogonek"/>
    </contour>
    <contour>
      <point x="232" y="-1" type="move" name="bottom"/>
    </contour>
  </outline>
</glyph>
<glyph name="J" format="1">
  <advance width="600"/>
  <unicode hex="004A"/>
  <outline>
    <contour>
      <point x="242" y="700" type="line"/>
      <point x="238" y="693"/>
      <point x="235" y="684"/>
      <point x="232" y="673" type="curve" smooth="yes"/>
      <point x="225" y="643"/>
      <point x="227" y="624"/>
      <point x="239" y="608" type="curve" smooth="yes"/>
      <point x="250" y="592"/>
      <point x="270" y="588"/>
      <point x="320" y="588" type="curve" smooth="yes"/>
      <point x="533" y="588" type="line"/>
      <point x="553" y="673"/>
      <point x="542" y="700"/>
      <point x="503" y="700" type="curve"/>
    </contour>
    <contour>
      <point x="491" y="198" type="curve" smooth="yes"/>
      <point x="606" y="659" type="line" smooth="yes"/>
      <point x="612" y="683"/>
      <point x="588" y="700"/>
      <point x="520" y="700" type="curve" smooth="yes"/>
      <point x="494" y="700" type="line"/>
      <point x="377" y="230" type="line" smooth="yes"/>
      <point x="356" y="147"/>
      <point x="339" y="111"/>
      <point x="278" y="52" type="curve"/>
      <point x="355" y="18"/>
      <point x="464" y="92"/>
    </contour>
    <contour>
      <point x="235" y="92" type="curve" smooth="yes"/>
      <point x="160" y="92"/>
      <point x="122" y="109"/>
      <point x="72" y="146" type="curve"/>
      <point x="68" y="146" type="line"/>
      <point x="61" y="133"/>
      <point x="57" y="120"/>
      <point x="53" y="107" type="curve"/>
      <point x="41" y="62"/>
      <point x="46" y="38"/>
      <point x="58" y="23" type="curve" smooth="yes"/>
      <point x="79" y="-5"/>
      <point x="143" y="-20"/>
      <point x="207" y="-20" type="curve" smooth="yes"/>
      <point x="216" y="-20" type="line" smooth="yes"/>
      <point x="365" y="-20"/>
      <point x="458" y="68"/>
      <point x="491" y="198" type="curve"/>
      <point x="495" y="213"/>
      <point x="487" y="250"/>
      <point x="456" y="250" type="curve"/>
      <point x="405" y="149"/>
      <point x="323" y="92"/>
    </contour>
    <contour>
      <point x="411" y="711" type="move" name="top"/>
    </contour>
  </outline>
</glyph>
<glyph name="K" format="1">
  <advance width="600"/>
  <unicode hex="004B"/>
  <outline>
    <contour>
      <point x="183" y="706" type="curve"/>
      <point x="183" y="670"/>
      <point x="177" y="632"/>
      <point x="167" y="593" type="curve" smooth="yes"/>
      <point x="30" y="42" type="line" smooth="yes"/>
      <point x="20" y="2"/>
      <point x="57" y="-10"/>
      <point x="111" y="-10" type="curve" smooth="yes"/>
      <point x="124" y="-10"/>
      <point x="132" y="-9"/>
      <point x="139" y="-8" type="curve"/>
      <point x="304" y="651" type="line" smooth="yes"/>
      <point x="309" y="670"/>
      <point x="309" y="683"/>
      <point x="300" y="694" type="curve" smooth="yes"/>
      <point x="288" y="706"/>
      <point x="260" y="710"/>
      <point x="224" y="710" type="curve" smooth="yes"/>
      <point x="210" y="710"/>
      <point x="198" y="709"/>
    </contour>
    <contour>
      <point x="564" y="710" type="curve"/>
      <point x="544" y="710" type="line"/>
      <point x="447" y="478"/>
      <point x="284" y="355"/>
      <point x="128" y="302" type="curve"/>
      <point x="115" y="252"/>
      <point x="128" y="217"/>
      <point x="150" y="222" type="curve"/>
      <point x="293" y="257"/>
      <point x="486" y="381"/>
      <point x="586" y="530" type="curve" smooth="yes"/>
      <point x="635" y="602"/>
      <point x="646" y="629"/>
      <point x="654" y="659" type="curve" smooth="yes"/>
      <point x="663" y="694"/>
      <point x="628" y="710"/>
    </contour>
    <contour>
      <point x="350" y="369" type="line"/>
      <point x="271" y="331"/>
      <point x="253" y="304"/>
      <point x="259" y="282" type="curve" smooth="yes"/>
      <point x="336" y="66" type="line" smooth="yes"/>
      <point x="357" y="3"/>
      <point x="388" y="-20"/>
      <point x="433" y="-20" type="curve" smooth="yes"/>
      <point x="437" y="-20" type="line" smooth="yes"/>
      <point x="481" y="-20"/>
      <point x="504" y="7"/>
      <point x="518" y="61" type="curve" smooth="yes"/>
      <point x="524" y="85"/>
      <point x="526" y="101"/>
      <point x="527" y="118" type="curve"/>
      <point x="523" y="118" type="line"/>
      <point x="509" y="109"/>
      <point x="497" y="105"/>
      <point x="480" y="105" type="curve" smooth="yes"/>
      <point x="454" y="105"/>
      <point x="438" y="121"/>
      <point x="426" y="157" type="curve" smooth="yes"/>
    </contour>
    <contour>
      <point x="256" y="-1" type="move" name="bottom"/>
    </contour>
  </outline>
</glyph>
<glyph name="L" format="1">
  <advance width="600"/>
  <unicode hex="004C"/>
  <outline>
    <contour>
      <point x="145" y="55" type="curve"/>
      <point x="293" y="643" type="line" smooth="yes"/>
      <point x="299" y="667"/>
      <point x="300" y="683"/>
      <point x="291" y="694" type="curve" smooth="yes"/>
      <point x="279" y="706"/>
      <point x="264" y="710"/>
      <point x="227" y="710" type="curve" smooth="yes"/>
      <point x="208" y="710"/>
      <point x="193" y="708"/>
      <point x="175" y="704" type="curve"/>
      <point x="174" y="669"/>
      <point x="168" y="633"/>
      <point x="158" y="593" type="curve" smooth="yes"/>
      <point x="39" y="118" type="line" smooth="yes"/>
      <point x="31" y="85"/>
      <point x="70" y="55"/>
    </contour>
    <contour>
      <point x="39" y="118" type="line"/>
      <point x="35" y="100" type="line" smooth="yes"/>
      <point x="24" y="55"/>
      <point x="54" y="0"/>
      <point x="91" y="0" type="curve" smooth="yes"/>
      <point x="479" y="0" type="line"/>
      <point x="485" y="12"/>
      <point x="490" y="29"/>
      <point x="495" y="48" type="curve" smooth="yes"/>
      <point x="508" y="100"/>
      <point x="492" y="118"/>
      <point x="458" y="118" type="curve" smooth="yes"/>
    </contour>
    <contour>
      <point x="489" y="550" type="move" name="caronslovak"/>
    </contour>
    <contour>
      <point x="250" y="711" type="move" name="top"/>
    </contour>
    <contour>
      <point x="456" y="400" type="move" name="dot"/>
    </contour>
    <contour>
      <point x="240" y="-1" type="move" name="bottom"/>
    </contour>
  </outline>
</glyph>
<glyph name="M" format="1">
  <advance width="600"/>
  <unicode hex="004D"/>
  <outline>
    <contour>
      <point x="106" y="-8" type="curve"/>
      <point x="123" y="61"/>
      <point x="141" y="130"/>
      <point x="158" y="199" type="curve" smooth="yes"/>
      <point x="191" y="332"/>
      <point x="215" y="509"/>
      <point x="257" y="675" type="curve" smooth="yes"/>
      <point x="259" y="682"/>
      <point x="259" y="691"/>
      <point x="255" y="696" type="curve" smooth="yes"/>
      <point x="247" y="707"/>
      <point x="241" y="710"/>
      <point x="223" y="710" type="curve" smooth="yes"/>
      <point x="208" y="710"/>
      <point x="190" y="708"/>
      <point x="167" y="704" type="curve"/>
      <point x="166" y="671"/>
      <point x="158" y="636"/>
      <point x="149" y="600" type="curve" smooth="yes"/>
      <point x="9" y="41" type="line" smooth="yes"/>
      <point x="5" y="27"/>
      <point x="7" y="19"/>
      <point x="13" y="11" type="curve" smooth="yes"/>
      <point x="23" y="-2"/>
      <point x="53" y="-10"/>
      <point x="81" y="-10" type="curve" smooth="yes"/>
      <point x="90" y="-10"/>
      <point x="99" y="-9"/>
    </contour>
    <contour>
      <point x="479" y="-6" type="curve"/>
      <point x="481" y="28"/>
      <point x="488" y="63"/>
      <point x="497" y="100" type="curve" smooth="yes"/>
      <point x="639" y="669" type="line" smooth="yes"/>
      <point x="641" y="677"/>
      <point x="639" y="684"/>
      <point x="635" y="690" type="curve" smooth="yes"/>
      <point x="627" y="700"/>
      <point x="601" y="710"/>
      <point x="560" y="710" type="curve" smooth="yes"/>
      <point x="554" y="710" type="line"/>
      <point x="559" y="697"/>
      <point x="558" y="689"/>
      <point x="553" y="670" type="curve" smooth="yes"/>
      <point x="521" y="542"/>
      <point x="437" y="298"/>
      <point x="411" y="195" type="curve" smooth="yes"/>
      <point x="399" y="146"/>
      <point x="387" y="96"/>
      <point x="375" y="47" type="curve" smooth="yes"/>
      <point x="370" y="30"/>
      <point x="371" y="20"/>
      <point x="378" y="11" type="curve" smooth="yes"/>
      <point x="388" y="-2"/>
      <point x="417" y="-10"/>
      <point x="445" y="-10" type="curve"/>
      <point x="456" y="-10"/>
      <point x="467" y="-9"/>
    </contour>
    <contour>
      <point x="223" y="710" type="line"/>
      <point x="204" y="515"/>
      <point x="230" y="295"/>
      <point x="276" y="233" type="curve"/>
      <point x="279" y="229"/>
      <point x="285" y="227"/>
      <point x="290" y="227" type="curve"/>
      <point x="302" y="227"/>
      <point x="325" y="284"/>
      <point x="335" y="334" type="curve"/>
      <point x="298" y="396"/>
      <point x="289" y="528"/>
      <point x="305" y="678" type="curve"/>
      <point x="307" y="696"/>
      <point x="285" y="710"/>
      <point x="227" y="710" type="curve"/>
    </contour>
    <contour>
      <point x="554" y="710" type="curve" smooth="yes"/>
      <point x="540" y="710"/>
      <point x="525" y="709"/>
      <point x="513" y="706" type="curve"/>
      <point x="444" y="515"/>
      <point x="365" y="393"/>
      <point x="295" y="334" type="curve"/>
      <point x="283" y="324"/>
      <point x="270" y="227"/>
      <point x="290" y="227" type="curve"/>
      <point x="299" y="227" type="line"/>
      <point x="395" y="298"/>
      <point x="518" y="504"/>
      <point x="567" y="661" type="curve"/>
      <point x="578" y="694"/>
      <point x="574" y="710"/>
    </contour>
  </outline>
</glyph>
<glyph name="N" format="1">
  <advance width="600"/>
  <unicode hex="004E"/>
  <outline>
    <contour>
      <point x="117" y="-5" type="curve"/>
      <point x="176" y="231" type="line"/>
      <point x="240" y="487"/>
      <point x="266" y="681"/>
      <point x="253" y="698" type="curve" smooth="yes"/>
      <point x="248" y="704"/>
      <point x="240" y="710"/>
      <point x="235" y="710" type="curve"/>
      <point x="214" y="710"/>
      <point x="199" y="709"/>
      <point x="174" y="703" type="curve"/>
      <point x="173" y="667"/>
      <point x="167" y="627"/>
      <point x="158" y="593" type="curve" smooth="yes"/>
      <point x="20" y="42" type="line"/>
      <point x="10" y="4"/>
      <point x="53" y="-9"/>
      <point x="86" y="-9" type="curve"/>
      <point x="99" y="-9"/>
      <point x="107" y="-8"/>
    </contour>
    <contour>
      <point x="460" y="-10" type="line"/>
      <point x="629" y="663" type="line"/>
      <point x="637" y="696"/>
      <point x="601" y="710"/>
      <point x="551" y="710" type="curve"/>
      <point x="531" y="710" type="line"/>
      <point x="436" y="330" type="line"/>
      <point x="394" y="164"/>
      <point x="377" y="34"/>
      <point x="393" y="12" type="curve" smooth="yes"/>
      <point x="405" y="-3"/>
      <point x="422" y="-10"/>
      <point x="437" y="-10" type="curve"/>
    </contour>
    <contour>
      <point x="235" y="710" type="line"/>
      <point x="247" y="686"/>
      <point x="244" y="643"/>
      <point x="242" y="605" type="curve" smooth="yes"/>
      <point x="225" y="338"/>
      <point x="293" y="105"/>
      <point x="355" y="22" type="curve"/>
      <point x="371" y="1"/>
      <point x="400" y="-10"/>
      <point x="437" y="-10" type="curve" smooth="yes"/>
      <point x="441" y="-10"/>
      <point x="441" y="-10"/>
      <point x="445" y="-10" type="curve"/>
      <point x="449" y="-10"/>
      <point x="455" y="9"/>
      <point x="461" y="35" type="curve"/>
      <point x="347" y="174"/>
      <point x="316" y="404"/>
      <point x="325" y="669" type="curve"/>
      <point x="325" y="695"/>
      <point x="289" y="710"/>
      <point x="237" y="710" type="curve"/>
    </contour>
    <contour>
      <point x="411" y="712" type="move" name="top"/>
    </contour>
    <contour>
      <point x="230" y="-1" type="move" name="bottom"/>
    </contour>
  </outline>
</glyph>
<glyph name="O" format="1">
  <advance width="600"/>
  <unicode hex="004F"/>
  <outline>
    <contour>
      <point x="404" y="720" type="curve" smooth="yes"/>
      <point x="255" y="720"/>
      <point x="136" y="593"/>
      <point x="76" y="351" type="curve" smooth="yes"/>
      <point x="70" y="329" type="line" smooth="yes"/>
      <point x="15" y="107"/>
      <point x="84" y="-20"/>
      <point x="243" y="-20" type="curve" smooth="yes"/>
      <point x="275" y="-20"/>
      <point x="298" y="14"/>
      <point x="310" y="64" type="curve"/>
      <point x="172" y="66"/>
      <point x="143" y="150"/>
      <point x="182" y="312" type="curve" smooth="yes"/>
      <point x="186" y="329" type="line" smooth="yes"/>
      <point x="230" y="514"/>
      <point x="298" y="609"/>
      <point x="391" y="609" type="curve" smooth="yes"/>
      <point x="430" y="609"/>
      <point x="458" y="596"/>
      <point x="491" y="566" type="curve"/>
      <point x="545" y="612"/>
      <point x="493" y="720"/>
    </contour>
    <contour>
      <point x="243" y="-20" type="curve" smooth="yes"/>
      <point x="398" y="-20"/>
      <point x="504" y="94"/>
      <point x="562" y="327" type="curve" smooth="yes"/>
      <point x="568" y="349" type="line" smooth="yes"/>
      <point x="625" y="576"/>
      <point x="566" y="720"/>
      <point x="404" y="720" type="curve" smooth="yes"/>
      <point x="372" y="720"/>
      <point x="345" y="686"/>
      <point x="333" y="636" type="curve"/>
      <point x="474" y="634"/>
      <point x="496" y="535"/>
      <point x="455" y="364" type="curve" smooth="yes"/>
      <point x="451" y="347" type="line" smooth="yes"/>
      <point x="409" y="173"/>
      <point x="344" y="91"/>
      <point x="251" y="91" type="curve" smooth="yes"/>
      <point x="212" y="91"/>
      <point x="181" y="102"/>
      <point x="153" y="134" type="curve"/>
      <point x="89" y="86"/>
      <point x="152" y="-20"/>
    </contour>
    <contour>
      <point x="411" y="712" type="move" name="top"/>
    </contour>
    <contour>
      <point x="325" y="-1" type="move" name="ogonek"/>
    </contour>
    <contour>
      <point x="232" y="-1" type="move" name="bottom"/>
    </contour>
  </outline>
</glyph>
<glyph name="P" format="1">
  <advance width="600"/>
  <unicode hex="0050"/>
  <outline>
    <contour>
      <point x="148" y="-4" type="curve"/>
      <point x="149" y="31"/>
      <point x="156" y="68"/>
      <point x="165" y="107" type="curve" smooth="yes"/>
      <point x="273" y="539" type="line" smooth="yes"/>
      <point x="291" y="610"/>
      <point x="259" y="638"/>
      <point x="176" y="638" type="curve"/>
      <point x="31" y="57" type="line" smooth="yes"/>
      <point x="25" y="33"/>
      <point x="25" y="19"/>
      <point x="33" y="7" type="curve" smooth="yes"/>
      <point x="42" y="-5"/>
      <point x="59" y="-10"/>
      <point x="97" y="-10" type="curve" smooth="yes"/>
      <point x="115" y="-10"/>
      <point x="130" y="-8"/>
    </contour>
    <contour>
      <point x="142" y="700" type="curve"/>
      <point x="136" y="688"/>
      <point x="132" y="675"/>
      <point x="128" y="659" type="curve"/>
      <point x="120" y="627"/>
      <point x="121" y="609"/>
      <point x="129" y="596" type="curve" smooth="yes"/>
      <point x="134" y="590"/>
      <point x="140" y="588"/>
      <point x="148" y="588" type="curve" smooth="yes"/>
      <point x="157" y="588"/>
      <point x="172" y="591"/>
      <point x="201" y="595" type="curve" smooth="yes"/>
      <point x="248" y="602"/>
      <point x="305" y="608"/>
      <point x="366" y="608" type="curve" smooth="yes"/>
      <point x="453" y="608"/>
      <point x="483" y="594"/>
      <point x="523" y="551" type="curve"/>
      <point x="584" y="603"/>
      <point x="513" y="720"/>
      <point x="410" y="720" type="curve" smooth="yes"/>
      <point x="325" y="720"/>
      <point x="235" y="715"/>
    </contour>
    <contour>
      <point x="592" y="473" type="curve" smooth="yes"/>
      <point x="600" y="505" type="line" smooth="yes"/>
      <point x="631" y="630"/>
      <point x="558" y="720"/>
      <point x="410" y="720" type="curve"/>
      <point x="377" y="720"/>
      <point x="361" y="700"/>
      <point x="353" y="668" type="curve"/>
      <point x="469" y="656"/>
      <point x="505" y="610"/>
      <point x="480" y="508" type="curve" smooth="yes"/>
      <point x="473" y="482" type="line" smooth="yes"/>
      <point x="440" y="346"/>
      <point x="351" y="278"/>
      <point x="256" y="278" type="curve" smooth="yes"/>
      <point x="223" y="278"/>
      <point x="212" y="280"/>
      <point x="194" y="284" type="curve"/>
      <point x="186" y="277"/>
      <point x="182" y="271"/>
      <point x="180" y="259" type="curve" smooth="yes"/>
      <point x="170" y="224"/>
      <point x="216" y="171"/>
      <point x="265" y="171" type="curve" smooth="yes"/>
      <point x="269" y="171" type="line" smooth="yes"/>
      <point x="411" y="171"/>
      <point x="539" y="263"/>
    </contour>
  </outline>
</glyph>
<glyph name="Q" format="1">
  <advance width="600"/>
  <unicode hex="0051"/>
  <outline>
    <contour>
      <point x="404" y="720" type="curve" smooth="yes"/>
      <point x="255" y="720"/>
      <point x="136" y="593"/>
      <point x="76" y="351" type="curve" smooth="yes"/>
      <point x="70" y="329" type="line" smooth="yes"/>
      <point x="15" y="107"/>
      <point x="84" y="-20"/>
      <point x="243" y="-20" type="curve" smooth="yes"/>
      <point x="275" y="-20"/>
      <point x="298" y="14"/>
      <point x="310" y="64" type="curve"/>
      <point x="172" y="66"/>
      <point x="143" y="150"/>
      <point x="182" y="312" type="curve" smooth="yes"/>
      <point x="186" y="329" type="line" smooth="yes"/>
      <point x="230" y="514"/>
      <point x="298" y="609"/>
      <point x="391" y="609" type="curve" smooth="yes"/>
      <point x="430" y="609"/>
      <point x="458" y="596"/>
      <point x="491" y="566" type="curve"/>
      <point x="545" y="612"/>
      <point x="493" y="720"/>
    </contour>
    <contour>
      <point x="243" y="-20" type="curve" smooth="yes"/>
      <point x="398" y="-20"/>
      <point x="504" y="94"/>
      <point x="562" y="327" type="curve" smooth="yes"/>
      <point x="568" y="349" type="line" smooth="yes"/>
      <point x="625" y="576"/>
      <point x="566" y="720"/>
      <point x="404" y="720" type="curve" smooth="yes"/>
      <point x="372" y="720"/>
      <point x="345" y="686"/>
      <point x="333" y="636" type="curve"/>
      <point x="474" y="634"/>
      <point x="496" y="535"/>
      <point x="455" y="364" type="curve" smooth="yes"/>
      <point x="451" y="347" type="line" smooth="yes"/>
      <point x="409" y="173"/>
      <point x="344" y="91"/>
      <point x="251" y="91" type="curve" smooth="yes"/>
      <point x="212" y="91"/>
      <point x="181" y="102"/>
      <point x="153" y="134" type="curve"/>
      <point x="90" y="86"/>
      <point x="152" y="-20"/>
    </contour>
    <contour>
      <point x="355" y="99" type="line"/>
      <point x="276" y="61"/>
      <point x="258" y="43"/>
      <point x="265" y="20" type="curve" smooth="yes"/>
      <point x="298" y="-80" type="line" smooth="yes"/>
      <point x="320" y="-146"/>
      <point x="348" y="-175"/>
      <point x="396" y="-175" type="curve" smooth="yes"/>
      <point x="400" y="-175" type="line" smooth="yes"/>
      <point x="442" y="-175"/>
      <point x="473" y="-152"/>
      <point x="489" y="-94" type="curve" smooth="yes"/>
      <point x="495" y="-73"/>
      <point x="496" y="-55"/>
      <point x="497" y="-39" type="curve"/>
      <point x="493" y="-39" type="line"/>
      <point x="479" y="-47"/>
      <point x="467" y="-51"/>
      <point x="450" y="-51" type="curve" smooth="yes"/>
      <point x="419" y="-51"/>
      <point x="407" y="-39"/>
      <point x="395" y="-7" type="curve" smooth="yes"/>
    </contour>
  </outline>
</glyph>
<glyph name="R" format="1">
  <advance width="600"/>
  <unicode hex="0052"/>
  <outline>
    <contour>
      <point x="148" y="-4" type="curve"/>
      <point x="149" y="31"/>
      <point x="156" y="68"/>
      <point x="165" y="107" type="curve" smooth="yes"/>
      <point x="273" y="539" type="line" smooth="yes"/>
      <point x="291" y="610"/>
      <point x="259" y="638"/>
      <point x="176" y="638" type="curve"/>
      <point x="31" y="57" type="line" smooth="yes"/>
      <point x="25" y="33"/>
      <point x="25" y="19"/>
      <point x="33" y="7" type="curve" smooth="yes"/>
      <point x="42" y="-5"/>
      <point x="59" y="-10"/>
      <point x="97" y="-10" type="curve" smooth="yes"/>
      <point x="115" y="-10"/>
      <point x="130" y="-8"/>
    </contour>
    <contour>
      <point x="142" y="700" type="curve"/>
      <point x="136" y="687"/>
      <point x="131" y="675"/>
      <point x="128" y="659" type="curve"/>
      <point x="120" y="628"/>
      <point x="121" y="609"/>
      <point x="129" y="596" type="curve" smooth="yes"/>
      <point x="134" y="590"/>
      <point x="140" y="588"/>
      <point x="148" y="588" type="curve" smooth="yes"/>
      <point x="157" y="588"/>
      <point x="172" y="591"/>
      <point x="201" y="595" type="curve" smooth="yes"/>
      <point x="256" y="603"/>
      <point x="313" y="608"/>
      <point x="366" y="608" type="curve" smooth="yes"/>
      <point x="442" y="608"/>
      <point x="487" y="594"/>
      <point x="528" y="543" type="curve"/>
      <point x="580" y="597"/>
      <point x="530" y="720"/>
      <point x="395" y="720" type="curve" smooth="yes"/>
      <point x="315" y="720"/>
      <point x="231" y="714"/>
    </contour>
    <contour>
      <point x="586" y="476" type="curve" smooth="yes"/>
      <point x="594" y="507" type="line" smooth="yes"/>
      <point x="619" y="610"/>
      <point x="577" y="720"/>
      <point x="395" y="720" type="curve"/>
      <point x="371" y="720"/>
      <point x="351" y="698"/>
      <point x="344" y="669" type="curve"/>
      <point x="465" y="647"/>
      <point x="499" y="608"/>
      <point x="473" y="505" type="curve" smooth="yes"/>
      <point x="466" y="478" type="line" smooth="yes"/>
      <point x="437" y="360"/>
      <point x="347" y="297"/>
      <point x="244" y="297" type="curve" smooth="yes"/>
      <point x="206" y="297"/>
      <point x="198" y="300"/>
      <point x="182" y="309" type="curve"/>
      <point x="171" y="300"/>
      <point x="163" y="283"/>
      <point x="160" y="270" type="curve" smooth="yes"/>
      <point x="149" y="229"/>
      <point x="185" y="191"/>
      <point x="228" y="191" type="curve" smooth="yes"/>
      <point x="234" y="191" type="line" smooth="yes"/>
      <point x="400" y="191"/>
      <point x="542" y="298"/>
    </contour>
    <contour>
      <point x="359" y="284" type="line"/>
      <point x="285" y="248"/>
      <point x="257" y="225"/>
      <point x="265" y="204" type="curve" smooth="yes"/>
      <point x="323" y="66" type="line" smooth="yes"/>
      <point x="347" y="3"/>
      <point x="378" y="-20"/>
      <point x="426" y="-20" type="curve" smooth="yes"/>
      <point x="430" y="-20" type="line" smooth="yes"/>
      <point x="470" y="-20"/>
      <point x="497" y="5"/>
      <point x="512" y="62" type="curve" smooth="yes"/>
      <point x="517" y="80"/>
      <point x="519" y="96"/>
      <point x="519" y="113" type="curve"/>
      <point x="515" y="113" type="line"/>
      <point x="501" y="104"/>
      <point x="490" y="100"/>
      <point x="473" y="100" type="curve" smooth="yes"/>
      <point x="446" y="100"/>
      <point x="428" y="114"/>
      <point x="415" y="150" type="curve" smooth="yes"/>
    </contour>
    <contour>
      <point x="409" y="711" type="move" name="top"/>
    </contour>
    <contour>
      <point x="231" y="-1" type="move" name="bottom"/>
    </contour>
  </outline>
</glyph>
<glyph name="S" format="1">
  <advance width="600"/>
  <unicode hex="0053"/>
  <outline>
    <contour>
      <point x="485" y="720" type="curve" smooth="yes"/>
      <point x="326" y="720"/>
      <point x="162" y="605"/>
      <point x="129" y="473" type="curve" smooth="yes"/>
      <point x="125" y="458" type="line" smooth="yes"/>
      <point x="118" y="431"/>
      <point x="163" y="380"/>
      <point x="225" y="377" type="curve"/>
      <point x="225" y="400"/>
      <point x="231" y="425"/>
      <point x="236" y="447" type="curve" smooth="yes"/>
      <point x="256" y="527"/>
      <point x="371" y="608"/>
      <point x="458" y="608" type="curve" smooth="yes"/>
      <point x="517" y="608"/>
      <point x="537" y="577"/>
      <point x="523" y="523" type="curve"/>
      <point x="560" y="523"/>
      <point x="585" y="550"/>
      <point x="589" y="564" type="curve" smooth="yes"/>
      <point x="602" y="617"/>
      <point x="599" y="649"/>
      <point x="577" y="677" type="curve" smooth="yes"/>
      <point x="558" y="703"/>
      <point x="531" y="720"/>
    </contour>
    <contour>
      <point x="395" y="317" type="curve" smooth="yes"/>
      <point x="312" y="350" type="line" smooth="yes"/>
      <point x="235" y="382"/>
      <point x="227" y="412"/>
      <point x="236" y="447" type="curve" smooth="yes"/>
      <point x="243" y="474"/>
      <point x="250" y="493"/>
      <point x="261" y="516" type="curve"/>
      <point x="195" y="513"/>
      <point x="139" y="513"/>
      <point x="125" y="458" type="curve" smooth="yes"/>
      <point x="109" y="395"/>
      <point x="123" y="320"/>
      <point x="258" y="266" type="curve" smooth="yes"/>
      <point x="339" y="232" type="line" smooth="yes"/>
      <point x="405" y="206"/>
      <point x="415" y="173"/>
      <point x="397" y="105" type="curve" smooth="yes"/>
      <point x="396" y="101"/>
      <point x="394" y="97"/>
      <point x="393" y="92" type="curve"/>
      <point x="438" y="94"/>
      <point x="500" y="113"/>
      <point x="508" y="145" type="curve"/>
      <point x="521" y="199"/>
      <point x="506" y="273"/>
    </contour>
    <contour>
      <point x="241" y="-17" type="curve" smooth="yes"/>
      <point x="387" y="-17"/>
      <point x="478" y="27"/>
      <point x="505" y="132" type="curve" smooth="yes"/>
      <point x="508" y="145" type="line" smooth="yes"/>
      <point x="513" y="164"/>
      <point x="481" y="208"/>
      <point x="451" y="210" type="curve"/>
      <point x="450" y="206"/>
      <point x="450" y="202"/>
      <point x="448" y="195" type="curve" smooth="yes"/>
      <point x="433" y="132"/>
      <point x="357" y="94"/>
      <point x="267" y="94" type="curve" smooth="yes"/>
      <point x="151" y="94"/>
      <point x="90" y="123"/>
      <point x="48" y="181" type="curve"/>
      <point x="44" y="181" type="line"/>
      <point x="37" y="168"/>
      <point x="29" y="152"/>
      <point x="24" y="130" type="curve" smooth="yes"/>
      <point x="14" y="89"/>
      <point x="19" y="67"/>
      <point x="33" y="48" type="curve" smooth="yes"/>
      <point x="60" y="14"/>
      <point x="133" y="-17"/>
    </contour>
    <contour>
      <point x="558" y="442" type="curve"/>
      <point x="589" y="564" type="line" smooth="yes"/>
      <point x="608" y="640"/>
      <point x="574" y="657"/>
      <point x="517" y="651" type="curve"/>
      <point x="492" y="607"/>
      <point x="474" y="565"/>
      <point x="465" y="530" type="curve" smooth="yes"/>
      <point x="456" y="493" type="line" smooth="yes"/>
      <point x="452" y="475"/>
      <point x="452" y="462"/>
      <point x="459" y="454" type="curve" smooth="yes"/>
      <point x="467" y="442"/>
      <point x="483" y="437"/>
      <point x="515" y="437" type="curve" smooth="yes"/>
      <point x="532" y="437"/>
      <point x="547" y="439"/>
    </contour>
    <contour>
      <point x="434" y="711" type="move" name="top"/>
    </contour>
    <contour>
      <point x="232" y="-1" type="move" name="bottom"/>
    </contour>
  </outline>
</glyph>
<glyph name="T" format="1">
  <advance width="600"/>
  <unicode hex="0054"/>
  <outline>
    <contour>
      <point x="147" y="700" type="line"/>
      <point x="143" y="693"/>
      <point x="139" y="684"/>
      <point x="137" y="672" type="curve" smooth="yes"/>
      <point x="130" y="645"/>
      <point x="131" y="624"/>
      <point x="143" y="608" type="curve" smooth="yes"/>
      <point x="155" y="592"/>
      <point x="178" y="588"/>
      <point x="234" y="588" type="curve" smooth="yes"/>
      <point x="634" y="588" type="line"/>
      <point x="640" y="600"/>
      <point x="646" y="614"/>
      <point x="650" y="631" type="curve" smooth="yes"/>
      <point x="660" y="671"/>
      <point x="660" y="700"/>
      <point x="618" y="700" type="curve" smooth="yes"/>
    </contour>
    <contour>
      <point x="303" y="-4" type="curve"/>
      <point x="304" y="31"/>
      <point x="311" y="68"/>
      <point x="321" y="107" type="curve" smooth="yes"/>
      <point x="425" y="526" type="line" smooth="yes"/>
      <point x="443" y="597"/>
      <point x="419" y="621"/>
      <point x="327" y="621" type="curve"/>
      <point x="186" y="57" type="line" smooth="yes"/>
      <point x="180" y="33"/>
      <point x="180" y="19"/>
      <point x="188" y="7" type="curve" smooth="yes"/>
      <point x="197" y="-5"/>
      <point x="214" y="-10"/>
      <point x="252" y="-10" type="curve" smooth="yes"/>
      <point x="270" y="-10"/>
      <point x="286" y="-8"/>
    </contour>
    <contour>
      <point x="408" y="711" type="move" name="top"/>
    </contour>
    <contour>
      <point x="232" y="-1" type="move" name="bottom"/>
    </contour>
  </outline>
</glyph>
<glyph name="U" format="1">
  <advance width="600"/>
  <unicode hex="0055"/>
  <outline>
    <contour>
      <point x="161" y="704" type="curve"/>
      <point x="161" y="669"/>
      <point x="155" y="630"/>
      <point x="144" y="583" type="curve" smooth="yes"/>
      <point x="35" y="146" type="line"/>
      <point x="24" y="105"/>
      <point x="58" y="96"/>
      <point x="118" y="96" type="curve"/>
      <point x="191" y="290"/>
      <point x="229" y="404"/>
      <point x="265" y="548" type="curve" smooth="yes"/>
      <point x="267" y="557" type="line"/>
      <point x="296" y="675"/>
      <point x="274" y="710"/>
      <point x="211" y="710" type="curve"/>
      <point x="193" y="710"/>
      <point x="178" y="708"/>
    </contour>
    <contour>
      <point x="153" y="-13" type="curve" smooth="yes"/>
      <point x="230" y="-13"/>
      <point x="307" y="24"/>
      <point x="384" y="121" type="curve" smooth="yes"/>
      <point x="425" y="174"/>
      <point x="429" y="206"/>
      <point x="419" y="252" type="curve"/>
      <point x="341" y="139"/>
      <point x="271" y="114"/>
      <point x="196" y="114" type="curve" smooth="yes"/>
      <point x="148" y="114"/>
      <point x="124" y="138"/>
      <point x="130" y="199" type="curve"/>
      <point x="97" y="195"/>
      <point x="41" y="173"/>
      <point x="35" y="146" type="curve" smooth="yes"/>
      <point x="15" y="69"/>
      <point x="69" y="-13"/>
    </contour>
    <contour>
      <point x="474" y="-4" type="curve"/>
      <point x="475" y="29"/>
      <point x="482" y="64"/>
      <point x="491" y="101" type="curve" smooth="yes"/>
      <point x="632" y="663" type="line" smooth="yes"/>
      <point x="640" y="696"/>
      <point x="613" y="710"/>
      <point x="553" y="710" type="curve" smooth="yes"/>
      <point x="540" y="710"/>
      <point x="531" y="709"/>
      <point x="521" y="707" type="curve"/>
      <point x="418" y="297" type="line" smooth="yes"/>
      <point x="370" y="107"/>
      <point x="368" y="39"/>
      <point x="389" y="10" type="curve" smooth="yes"/>
      <point x="400" y="-5"/>
      <point x="415" y="-10"/>
      <point x="436" y="-10" type="curve" smooth="yes"/>
      <point x="450" y="-10"/>
      <point x="462" y="-8"/>
    </contour>
    <contour>
      <point x="411" y="712" type="move" name="top"/>
    </contour>
    <contour>
      <point x="474" y="-5" type="move" name="ogonek"/>
    </contour>
    <contour>
      <point x="408" y="703" type="move" name="ring"/>
    </contour>
    <contour>
      <point x="230" y="-1" type="move" name="bottom"/>
    </contour>
  </outline>
</glyph>
<glyph name="V" format="1">
  <advance width="600"/>
  <unicode hex="0056"/>
  <outline>
    <contour>
      <point x="184" y="710" type="curve"/>
      <point x="164" y="710" type="line"/>
      <point x="88" y="349"/>
      <point x="82" y="143"/>
      <point x="168" y="29" type="curve" smooth="yes"/>
      <point x="192" y="-4"/>
      <point x="217" y="-10"/>
      <point x="243" y="-10" type="curve" smooth="yes"/>
      <point x="257" y="-10" type="line" smooth="yes"/>
      <point x="277" y="-10"/>
      <point x="299" y="17"/>
      <point x="320" y="56" type="curve"/>
      <point x="316" y="56"/>
      <point x="313" y="56"/>
      <point x="310" y="56" type="curve" smooth="yes"/>
      <point x="303" y="56"/>
      <point x="299" y="58"/>
      <point x="290" y="66" type="curve"/>
      <point x="198" y="161"/>
      <point x="198" y="284"/>
      <point x="276" y="666" type="curve"/>
      <point x="282" y="697"/>
      <point x="263" y="710"/>
    </contour>
    <contour>
      <point x="555" y="710" type="curve"/>
      <point x="536" y="710" type="line"/>
      <point x="414" y="319"/>
      <point x="361" y="182"/>
      <point x="221" y="82" type="curve"/>
      <point x="195" y="65"/>
      <point x="199" y="-10"/>
      <point x="251" y="-10" type="curve"/>
      <point x="279" y="-10" type="line"/>
      <point x="439" y="102"/>
      <point x="537" y="316"/>
      <point x="639" y="652" type="curve"/>
      <point x="649" y="685"/>
      <point x="606" y="710"/>
    </contour>
  </outline>
</glyph>
<glyph name="W" format="1">
  <advance width="600"/>
  <unicode hex="0057"/>
  <outline>
    <contour>
      <point x="145" y="710" type="curve"/>
      <point x="24" y="247"/>
      <point x="18" y="98"/>
      <point x="80" y="10" type="curve"/>
      <point x="89" y="-3"/>
      <point x="104" y="-10"/>
      <point x="120" y="-10" type="curve"/>
      <point x="125" y="-10" type="line" smooth="yes"/>
      <point x="136" y="-10"/>
      <point x="167" y="58"/>
      <point x="173" y="83" type="curve"/>
      <point x="128" y="139"/>
      <point x="137" y="212"/>
      <point x="250" y="664" type="curve"/>
      <point x="253" y="675"/>
      <point x="251" y="681"/>
      <point x="246" y="689" type="curve" smooth="yes"/>
      <point x="237" y="699"/>
      <point x="210" y="710"/>
      <point x="164" y="710" type="curve"/>
      <point x="157" y="710"/>
      <point x="151" y="710"/>
    </contour>
    <contour>
      <point x="558" y="710" type="curve"/>
      <point x="441" y="216"/>
      <point x="401" y="149"/>
      <point x="334" y="83" type="curve"/>
      <point x="323" y="33"/>
      <point x="331" y="-10"/>
      <point x="356" y="-10" type="curve"/>
      <point x="378" y="-10" type="line"/>
      <point x="494" y="113"/>
      <point x="568" y="260"/>
      <point x="664" y="658" type="curve"/>
      <point x="668" y="674"/>
      <point x="668" y="681"/>
      <point x="661" y="690" type="curve" smooth="yes"/>
      <point x="652" y="702"/>
      <point x="627" y="710"/>
      <point x="577" y="710" type="curve"/>
      <point x="571" y="710"/>
      <point x="565" y="710"/>
    </contour>
    <contour>
      <point x="351" y="551" type="curve"/>
      <point x="333" y="551" type="line"/>
      <point x="265" y="277"/>
      <point x="209" y="176"/>
      <point x="99" y="41" type="curve"/>
      <point x="93" y="14"/>
      <point x="98" y="-10"/>
      <point x="120" y="-10" type="curve"/>
      <point x="143" y="-10" type="line"/>
      <point x="265" y="130"/>
      <point x="330" y="283"/>
      <point x="385" y="505" type="curve"/>
      <point x="392" y="537"/>
      <point x="374" y="551"/>
    </contour>
    <contour>
      <point x="351" y="551" type="curve"/>
      <point x="345" y="551" type="line"/>
      <point x="273" y="243"/>
      <point x="265" y="94"/>
      <point x="319" y="4" type="curve"/>
      <point x="324" y="-5"/>
      <point x="334" y="-10"/>
      <point x="347" y="-10" type="curve"/>
      <point x="359" y="-10" type="line"/>
      <point x="372" y="-10"/>
      <point x="392" y="21"/>
      <point x="397" y="40" type="curve"/>
      <point x="341" y="105"/>
      <point x="337" y="260"/>
      <point x="401" y="517" type="curve"/>
      <point x="406" y="536"/>
      <point x="388" y="551"/>
    </contour>
    <contour>
      <point x="410" y="711" type="move" name="top"/>
    </contour>
  </outline>
</glyph>
<glyph name="X" format="1">
  <advance width="600"/>
  <unicode hex="0058"/>
  <outline>
    <contour>
      <point x="447" y="-9" type="curve" smooth="yes"/>
      <point x="466" y="-9"/>
      <point x="483" y="-7"/>
      <point x="498" y="-3" type="curve"/>
      <point x="443" y="79"/>
      <point x="390" y="194"/>
      <point x="349" y="317" type="curve" smooth="yes"/>
      <point x="344" y="336"/>
      <point x="339" y="356"/>
      <point x="333" y="375" type="curve" smooth="yes"/>
      <point x="300" y="480"/>
      <point x="282" y="587"/>
      <point x="273" y="668" type="curve" smooth="yes"/>
      <point x="270" y="700"/>
      <point x="240" y="709"/>
      <point x="155" y="709" type="curve" smooth="yes"/>
      <point x="135" y="709" type="line"/>
      <point x="154" y="586"/>
      <point x="187" y="431"/>
      <point x="234" y="293" type="curve" smooth="yes"/>
      <point x="240" y="276"/>
      <point x="246" y="258"/>
      <point x="252" y="241" type="curve" smooth="yes"/>
      <point x="284" y="157"/>
      <point x="323" y="84"/>
      <point x="355" y="30" type="curve" smooth="yes"/>
      <point x="370" y="0"/>
      <point x="390" y="-9"/>
    </contour>
    <contour>
      <point x="566" y="709" type="curve"/>
      <point x="548" y="709" type="line"/>
      <point x="469" y="556"/>
      <point x="388" y="446"/>
      <point x="289" y="357" type="curve"/>
      <point x="249" y="321"/>
      <point x="283" y="273"/>
      <point x="339" y="275" type="curve"/>
      <point x="491" y="396"/>
      <point x="578" y="509"/>
      <point x="665" y="654" type="curve"/>
      <point x="671" y="666"/>
      <point x="672" y="676"/>
      <point x="663" y="684" type="curve" smooth="yes"/>
      <point x="645" y="702"/>
      <point x="602" y="709"/>
    </contour>
    <contour>
      <point x="78" y="-9" type="curve" smooth="yes"/>
      <point x="90" y="-9" type="line"/>
      <point x="149" y="96"/>
      <point x="223" y="186"/>
      <point x="306" y="255" type="curve"/>
      <point x="340" y="283"/>
      <point x="317" y="348"/>
      <point x="269" y="353" type="curve"/>
      <point x="134" y="248"/>
      <point x="42" y="147"/>
      <point x="-29" y="51" type="curve"/>
      <point x="-38" y="38"/>
      <point x="-35" y="24"/>
      <point x="-27" y="15" type="curve" smooth="yes"/>
      <point x="-9" y="-2"/>
      <point x="38" y="-9"/>
    </contour>
  </outline>
</glyph>
<glyph name="Y" format="1">
  <advance width="600"/>
  <unicode hex="0059"/>
  <outline>
    <contour>
      <point x="156" y="710" type="line"/>
      <point x="125" y="464"/>
      <point x="144" y="337"/>
      <point x="220" y="235" type="curve"/>
      <point x="242" y="207"/>
      <point x="266" y="203"/>
      <point x="288" y="203" type="curve"/>
      <point x="322" y="203"/>
      <point x="339" y="216"/>
      <point x="354" y="273" type="curve"/>
      <point x="259" y="348"/>
      <point x="240" y="440"/>
      <point x="268" y="671" type="curve"/>
      <point x="271" y="693"/>
      <point x="247" y="710"/>
      <point x="175" y="710" type="curve" smooth="yes"/>
    </contour>
    <contour>
      <point x="539" y="710" type="line"/>
      <point x="455" y="477"/>
      <point x="392" y="383"/>
      <point x="259" y="288" type="curve"/>
      <point x="228" y="266"/>
      <point x="247" y="203"/>
      <point x="288" y="203" type="curve"/>
      <point x="331" y="203" type="line"/>
      <point x="471" y="314"/>
      <point x="573" y="449"/>
      <point x="646" y="652" type="curve"/>
      <point x="657" y="685"/>
      <point x="620" y="710"/>
      <point x="558" y="710" type="curve"/>
    </contour>
    <contour>
      <point x="302" y="-4" type="curve"/>
      <point x="303" y="31"/>
      <point x="310" y="68"/>
      <point x="319" y="107" type="curve" smooth="yes"/>
      <point x="355" y="249" type="line" smooth="yes"/>
      <point x="363" y="281"/>
      <point x="314" y="301"/>
      <point x="245" y="301" type="curve"/>
      <point x="185" y="57" type="line" smooth="yes"/>
      <point x="179" y="33"/>
      <point x="178" y="18"/>
      <point x="186" y="7" type="curve" smooth="yes"/>
      <point x="196" y="-5"/>
      <point x="213" y="-10"/>
      <point x="251" y="-10" type="curve" smooth="yes"/>
      <point x="269" y="-10"/>
      <point x="284" y="-8"/>
    </contour>
    <contour>
      <point x="411" y="712" type="move" name="top"/>
    </contour>
  </outline>
</glyph>
<glyph name="Z" format="1">
  <advance width="600"/>
  <unicode hex="005A"/>
  <outline>
    <contour>
      <point x="217" y="700" type="line"/>
      <point x="213" y="693"/>
      <point x="209" y="681"/>
      <point x="206" y="670" type="curve" smooth="yes"/>
      <point x="198" y="639"/>
      <point x="200" y="616"/>
      <point x="212" y="601" type="curve" smooth="yes"/>
      <point x="219" y="591"/>
      <point x="225" y="588"/>
      <point x="240" y="588" type="curve" smooth="yes"/>
      <point x="466" y="588" type="line" smooth="yes"/>
      <point x="533" y="588"/>
      <point x="563" y="576"/>
      <point x="590" y="548" type="curve" smooth="yes"/>
      <point x="613" y="554"/>
      <point x="621" y="558"/>
      <point x="625" y="573" type="curve"/>
      <point x="627" y="583" type="line" smooth="yes"/>
      <point x="644" y="653"/>
      <point x="609" y="700"/>
      <point x="548" y="700" type="curve" smooth="yes"/>
    </contour>
    <contour>
      <point x="535" y="628" type="curve"/>
      <point x="412" y="427"/>
      <point x="283" y="302"/>
      <point x="13" y="105" type="curve"/>
      <point x="4" y="70"/>
      <point x="61" y="57"/>
      <point x="109" y="78" type="curve" smooth="yes"/>
      <point x="323" y="195"/>
      <point x="602" y="482"/>
      <point x="625" y="573" type="curve"/>
      <point x="636" y="619"/>
      <point x="603" y="627"/>
    </contour>
    <contour>
      <point x="479" y="0" type="line"/>
      <point x="482" y="6"/>
      <point x="485" y="14"/>
      <point x="488" y="24" type="curve" smooth="yes"/>
      <point x="496" y="57"/>
      <point x="494" y="77"/>
      <point x="479" y="97" type="curve" smooth="yes"/>
      <point x="470" y="108"/>
      <point x="460" y="112"/>
      <point x="441" y="112" type="curve" smooth="yes"/>
      <point x="305" y="112" type="line" smooth="yes"/>
      <point x="217" y="112"/>
      <point x="99" y="109"/>
      <point x="13" y="105" type="curve"/>
      <point x="9" y="92" type="line" smooth="yes"/>
      <point x="-5" y="35"/>
      <point x="2" y="0"/>
      <point x="30" y="0" type="curve" smooth="yes"/>
    </contour>
    <contour>
      <point x="236" y="481" type="curve"/>
      <point x="261" y="581"/>
      <point x="291" y="634"/>
      <point x="301" y="677" type="curve"/>
      <point x="308" y="702"/>
      <point x="267" y="720"/>
      <point x="214" y="720" type="curve" smooth="yes"/>
      <point x="207" y="720" type="line"/>
      <point x="175" y="659"/>
      <point x="150" y="594"/>
      <point x="133" y="525" type="curve"/>
      <point x="124" y="489"/>
      <point x="142" y="477"/>
      <point x="194" y="477" type="curve" smooth="yes"/>
      <point x="210" y="477"/>
      <point x="225" y="478"/>
    </contour>
    <contour>
      <point x="410" y="711" type="move" name="top"/>
    </contour>
  </outline>
</glyph>
<glyph name="bracketleft" format="1">
  <advance width="600"/>
  <unicode hex="005B"/>
  <outline>
    <contour>
      <point x="299" y="643" type="curve" smooth="yes"/>
      <point x="126" y="-47" type="line" smooth="yes"/>
      <point x="116" y="-86"/>
      <point x="181" y="-93"/>
      <point x="237" y="-93" type="curve"/>
      <point x="435" y="700" type="line" smooth="yes"/>
      <point x="447" y="747"/>
      <point x="434" y="760"/>
      <point x="370" y="760" type="curve" smooth="yes"/>
      <point x="350" y="760"/>
      <point x="335" y="758"/>
      <point x="315" y="754" type="curve"/>
      <point x="314" y="718"/>
      <point x="308" y="682"/>
    </contour>
    <contour>
      <point x="605" y="644" type="line"/>
      <point x="612" y="655"/>
      <point x="617" y="670"/>
      <point x="621" y="686" type="curve" smooth="yes"/>
      <point x="625" y="703"/>
      <point x="630" y="735"/>
      <point x="618" y="750" type="curve" smooth="yes"/>
      <point x="612" y="758"/>
      <point x="607" y="760"/>
      <point x="594" y="760" type="curve" smooth="yes"/>
      <point x="370" y="760" type="line"/>
      <point x="351" y="685"/>
      <point x="378" y="644"/>
      <point x="474" y="644" type="curve"/>
    </contour>
    <contour>
      <point x="406" y="-161" type="line"/>
      <point x="411" y="-150"/>
      <point x="416" y="-136"/>
      <point x="420" y="-119" type="curve" smooth="yes"/>
      <point x="434" y="-67"/>
      <point x="424" y="-45"/>
      <point x="390" y="-45" type="curve" smooth="yes"/>
      <point x="126" y="-45" type="line"/>
      <point x="123" y="-61" type="line" smooth="yes"/>
      <point x="111" y="-106"/>
      <point x="142" y="-161"/>
      <point x="179" y="-161" type="curve" smooth="yes"/>
    </contour>
  </outline>
</glyph>
<glyph name="bracketright" format="1">
  <advance width="600"/>
  <unicode hex="005D"/>
  <outline>
    <contour>
      <point x="317" y="-44" type="curve" smooth="yes"/>
      <point x="490" y="646" type="line" smooth="yes"/>
      <point x="500" y="685"/>
      <point x="434" y="692"/>
      <point x="379" y="692" type="curve"/>
      <point x="181" y="-101" type="line" smooth="yes"/>
      <point x="169" y="-148"/>
      <point x="182" y="-161"/>
      <point x="246" y="-161" type="curve" smooth="yes"/>
      <point x="266" y="-161"/>
      <point x="281" y="-159"/>
      <point x="301" y="-155" type="curve"/>
      <point x="302" y="-119"/>
      <point x="308" y="-83"/>
    </contour>
    <contour>
      <point x="11" y="-45" type="line"/>
      <point x="4" y="-56"/>
      <point x="-1" y="-71"/>
      <point x="-5" y="-87" type="curve" smooth="yes"/>
      <point x="-9" y="-104"/>
      <point x="-14" y="-136"/>
      <point x="-2" y="-151" type="curve" smooth="yes"/>
      <point x="4" y="-159"/>
      <point x="9" y="-161"/>
      <point x="22" y="-161" type="curve" smooth="yes"/>
      <point x="246" y="-161" type="line"/>
      <point x="265" y="-86"/>
      <point x="238" y="-45"/>
      <point x="142" y="-45" type="curve"/>
    </contour>
    <contour>
      <point x="210" y="760" type="line"/>
      <point x="205" y="749"/>
      <point x="200" y="735"/>
      <point x="196" y="718" type="curve" smooth="yes"/>
      <point x="182" y="666"/>
      <point x="192" y="644"/>
      <point x="226" y="644" type="curve" smooth="yes"/>
      <point x="490" y="644" type="line"/>
      <point x="493" y="660" type="line" smooth="yes"/>
      <point x="505" y="705"/>
      <point x="474" y="760"/>
      <point x="437" y="760" type="curve" smooth="yes"/>
    </contour>
  </outline>
</glyph>
<glyph name="asciicircum" format="1">
  <advance width="600"/>
  <unicode hex="005E"/>
  <outline>
    <contour>
      <point x="180" y="362" type="line"/>
      <point x="249" y="510"/>
      <point x="326" y="591"/>
      <point x="438" y="680" type="curve"/>
      <point x="455" y="735"/>
      <point x="445" y="757"/>
      <point x="419" y="760" type="curve"/>
      <point x="391" y="760" type="line"/>
      <point x="300" y="699"/>
      <point x="198" y="593"/>
      <point x="123" y="477" type="curve" smooth="yes"/>
      <point x="99" y="441"/>
      <point x="87" y="416"/>
      <point x="84" y="405" type="curve" smooth="yes"/>
      <point x="78" y="380"/>
      <point x="118" y="362"/>
      <point x="164" y="362" type="curve"/>
    </contour>
    <contour>
      <point x="573" y="371" type="curve"/>
      <point x="570" y="537"/>
      <point x="536" y="636"/>
      <point x="477" y="724" type="curve" smooth="yes"/>
      <point x="455" y="755"/>
      <point x="444" y="760"/>
      <point x="423" y="760" type="curve" smooth="yes"/>
      <point x="415" y="760" type="line" smooth="yes"/>
      <point x="398" y="760"/>
      <point x="354" y="717"/>
      <point x="335" y="684" type="curve"/>
      <point x="340" y="684"/>
      <point x="344" y="684"/>
      <point x="347" y="684" type="curve" smooth="yes"/>
      <point x="351" y="684"/>
      <point x="357" y="681"/>
      <point x="361" y="675" type="curve" smooth="yes"/>
      <point x="424" y="596"/>
      <point x="447" y="532"/>
      <point x="454" y="397" type="curve" smooth="yes"/>
      <point x="456" y="379"/>
      <point x="479" y="364"/>
      <point x="524" y="364" type="curve" smooth="yes"/>
      <point x="542" y="364"/>
      <point x="556" y="366"/>
    </contour>
  </outline>
</glyph>
<glyph name="grave" format="1">
  <advance width="600"/>
  <unicode hex="0060"/>
  <outline>
    <contour>
      <point x="465" y="412" type="curve"/>
      <point x="434" y="492"/>
      <point x="425" y="604"/>
      <point x="440" y="713" type="curve"/>
      <point x="419" y="718"/>
      <point x="405" y="720"/>
      <point x="383" y="720" type="curve" smooth="yes"/>
      <point x="326" y="720"/>
      <point x="284" y="708"/>
      <point x="271" y="657" type="curve" smooth="yes"/>
      <point x="254" y="591"/>
      <point x="288" y="447"/>
      <point x="334" y="398" type="curve" smooth="yes"/>
      <point x="343" y="389"/>
      <point x="354" y="385"/>
      <point x="372" y="385" type="curve" smooth="yes"/>
      <point x="409" y="385"/>
      <point x="435" y="393"/>
    </contour>
  </outline>
</glyph>
<glyph name="a" format="1">
  <advance width="600"/>
  <unicode hex="0061"/>
  <outline>
    <contour>
      <point x="329" y="547" type="curve" smooth="yes"/>
      <point x="223" y="547"/>
      <point x="105" y="467"/>
      <point x="44" y="234" type="curve" smooth="yes"/>
      <point x="38" y="214" type="line" smooth="yes"/>
      <point x="24" y="161"/>
      <point x="41" y="63"/>
      <point x="108" y="63" type="curve" smooth="yes"/>
      <point x="128" y="63"/>
      <point x="147" y="73"/>
      <point x="154" y="90" type="curve"/>
      <point x="143" y="134"/>
      <point x="147" y="165"/>
      <point x="163" y="226" type="curve" smooth="yes"/>
      <point x="165" y="235" type="line" smooth="yes"/>
      <point x="198" y="369"/>
      <point x="255" y="435"/>
      <point x="342" y="435" type="curve" smooth="yes"/>
      <point x="394" y="435"/>
      <point x="422" y="416"/>
      <point x="446" y="378" type="curve"/>
      <point x="465" y="398"/>
      <point x="473" y="431"/>
      <point x="465" y="450" type="curve" smooth="yes"/>
      <point x="459" y="494"/>
      <point x="413" y="547"/>
    </contour>
    <contour>
      <point x="164" y="-11" type="curve" smooth="yes"/>
      <point x="256" y="-11"/>
      <point x="345" y="74"/>
      <point x="400" y="178" type="curve" smooth="yes"/>
      <point x="423" y="222"/>
      <point x="432" y="278"/>
      <point x="426" y="311" type="curve"/>
      <point x="337" y="163"/>
      <point x="261" y="111"/>
      <point x="193" y="111" type="curve" smooth="yes"/>
      <point x="144" y="111"/>
      <point x="102" y="156"/>
      <point x="89" y="235" type="curve"/>
      <point x="56" y="232"/>
      <point x="41" y="223"/>
      <point x="38" y="214" type="curve" smooth="yes"/>
      <point x="9" y="97"/>
      <point x="54" y="-11"/>
    </contour>
    <contour>
      <point x="588" y="535" type="line"/>
      <point x="573" y="538"/>
      <point x="563" y="540"/>
      <point x="546" y="540" type="curve" smooth="yes"/>
      <point x="502" y="540"/>
      <point x="471" y="533"/>
      <point x="461" y="491" type="curve" smooth="yes"/>
      <point x="366" y="110" type="line" smooth="yes"/>
      <point x="354" y="63"/>
      <point x="414" y="37"/>
      <point x="483" y="53" type="curve"/>
      <point x="478" y="82"/>
      <point x="480" y="106"/>
      <point x="490" y="144" type="curve"/>
    </contour>
    <contour>
      <point x="532" y="107" type="line"/>
      <point x="529" y="107" type="line"/>
      <point x="524" y="105"/>
      <point x="518" y="104"/>
      <point x="513" y="104" type="curve" smooth="yes"/>
      <point x="485" y="104"/>
      <point x="459" y="117"/>
      <point x="455" y="163" type="curve"/>
      <point x="394" y="164"/>
      <point x="376" y="151"/>
      <point x="366" y="110" type="curve" smooth="yes"/>
      <point x="349" y="46"/>
      <point x="379" y="-10"/>
      <point x="443" y="-10" type="curve" smooth="yes"/>
      <point x="448" y="-10" type="line" smooth="yes"/>
      <point x="486" y="-10"/>
      <point x="511" y="25"/>
      <point x="529" y="94" type="curve"/>
    </contour>
  </outline>
</glyph>
<glyph name="b" format="1">
  <advance width="600"/>
  <unicode hex="0062"/>
  <outline>
    <contour>
      <point x="7" y="0" type="line"/>
      <point x="17" y="-4"/>
      <point x="32" y="-5"/>
      <point x="49" y="-5" type="curve" smooth="yes"/>
      <point x="101" y="-5"/>
      <point x="127" y="18"/>
      <point x="139" y="63" type="curve" smooth="yes"/>
      <point x="301" y="683" type="line"/>
      <point x="313" y="735"/>
      <point x="295" y="757"/>
      <point x="238" y="757" type="curve" smooth="yes"/>
      <point x="221" y="757"/>
      <point x="204" y="756"/>
      <point x="188" y="751" type="curve"/>
      <point x="190" y="720"/>
      <point x="186" y="694"/>
      <point x="175" y="651" type="curve" smooth="yes"/>
    </contour>
    <contour>
      <point x="452" y="547" type="curve" smooth="yes"/>
      <point x="366" y="547"/>
      <point x="252" y="462"/>
      <point x="197" y="358" type="curve" smooth="yes"/>
      <point x="173" y="314"/>
      <point x="163" y="255"/>
      <point x="170" y="222" type="curve"/>
      <point x="262" y="374"/>
      <point x="337" y="428"/>
      <point x="412" y="428" type="curve" smooth="yes"/>
      <point x="461" y="428"/>
      <point x="495" y="392"/>
      <point x="509" y="313" type="curve"/>
      <point x="543" y="316"/>
      <point x="557" y="322"/>
      <point x="559" y="330" type="curve" smooth="yes"/>
      <point x="588" y="446"/>
      <point x="542" y="547"/>
    </contour>
    <contour>
      <point x="272" y="-11" type="curve" smooth="yes"/>
      <point x="402" y="-11"/>
      <point x="499" y="79"/>
      <point x="553" y="306" type="curve" smooth="yes"/>
      <point x="559" y="330" type="line" smooth="yes"/>
      <point x="571" y="382"/>
      <point x="558" y="472"/>
      <point x="492" y="472" type="curve"/>
      <point x="472" y="472"/>
      <point x="453" y="462"/>
      <point x="446" y="443" type="curve"/>
      <point x="455" y="403"/>
      <point x="453" y="378"/>
      <point x="436" y="314" type="curve" smooth="yes"/>
      <point x="432" y="298" type="line" smooth="yes"/>
      <point x="398" y="166"/>
      <point x="338" y="96"/>
      <point x="252" y="96" type="curve" smooth="yes"/>
      <point x="199" y="96"/>
      <point x="170" y="115"/>
      <point x="148" y="156" type="curve"/>
      <point x="132" y="137"/>
      <point x="123" y="106"/>
      <point x="132" y="83" type="curve" smooth="yes"/>
      <point x="137" y="43"/>
      <point x="194" y="-11"/>
    </contour>
  </outline>
</glyph>
<glyph name="d" format="1">
  <advance width="600"/>
  <unicode hex="0064"/>
  <outline>
    <contour>
      <point x="324" y="547" type="curve" smooth="yes"/>
      <point x="194" y="547"/>
      <point x="96" y="455"/>
      <point x="42" y="228" type="curve" smooth="yes"/>
      <point x="37" y="206" type="line" smooth="yes"/>
      <point x="24" y="152"/>
      <point x="38" y="63"/>
      <point x="104" y="63" type="curve" smooth="yes"/>
      <point x="124" y="63"/>
      <point x="144" y="73"/>
      <point x="151" y="92" type="curve"/>
      <point x="142" y="132"/>
      <point x="143" y="157"/>
      <point x="159" y="220" type="curve" smooth="yes"/>
      <point x="164" y="236" type="line" smooth="yes"/>
      <point x="196" y="366"/>
      <point x="257" y="439"/>
      <point x="343" y="439" type="curve" smooth="yes"/>
      <point x="396" y="439"/>
      <point x="426" y="420"/>
      <point x="448" y="380" type="curve"/>
      <point x="463" y="399"/>
      <point x="471" y="427"/>
      <point x="463" y="450" type="curve" smooth="yes"/>
      <point x="457" y="492"/>
      <point x="403" y="547"/>
    </contour>
    <contour>
      <point x="143" y="-11" type="curve" smooth="yes"/>
      <point x="229" y="-11"/>
      <point x="344" y="74"/>
      <point x="399" y="177" type="curve" smooth="yes"/>
      <point x="422" y="221"/>
      <point x="432" y="280"/>
      <point x="426" y="313" type="curve"/>
      <point x="336" y="161"/>
      <point x="259" y="108"/>
      <point x="184" y="108" type="curve" smooth="yes"/>
      <point x="134" y="108"/>
      <point x="100" y="143"/>
      <point x="86" y="222" type="curve"/>
      <point x="53" y="219"/>
      <point x="38" y="214"/>
      <point x="37" y="206" type="curve" smooth="yes"/>
      <point x="8" y="90"/>
      <point x="54" y="-11"/>
    </contour>
    <contour>
      <point x="518" y="752" type="curve"/>
      <point x="518" y="719"/>
      <point x="514" y="695"/>
      <point x="504" y="654" type="curve" smooth="yes"/>
      <point x="377" y="164" type="line"/>
      <point x="356" y="83"/>
      <point x="351" y="40"/>
      <point x="366" y="19" type="curve" smooth="yes"/>
      <point x="379" y="1"/>
      <point x="406" y="-4"/>
      <point x="429" y="-4" type="curve" smooth="yes"/>
      <point x="440" y="-4"/>
      <point x="451" y="-3"/>
      <point x="462" y="0" type="curve"/>
      <point x="462" y="33"/>
      <point x="465" y="57"/>
      <point x="476" y="99" type="curve" smooth="yes"/>
      <point x="629" y="691" type="line"/>
      <point x="634" y="711"/>
      <point x="634" y="727"/>
      <point x="627" y="737" type="curve" smooth="yes"/>
      <point x="615" y="753"/>
      <point x="595" y="757"/>
      <point x="566" y="757" type="curve" smooth="yes"/>
      <point x="549" y="757"/>
      <point x="532" y="755"/>
    </contour>
    <contour>
      <point x="595" y="711" type="move" name="caronslovak"/>
    </contour>
  </outline>
</glyph>
<glyph name="f" format="1">
  <advance width="600"/>
  <unicode hex="0066"/>
  <outline>
    <contour>
      <point x="367" y="629" type="curve"/>
      <point x="411" y="654"/>
      <point x="451" y="665"/>
      <point x="499" y="665" type="curve" smooth="yes"/>
      <point x="566" y="665"/>
      <point x="622" y="652"/>
      <point x="652" y="636" type="curve"/>
      <point x="656" y="636" type="line"/>
      <point x="662" y="648"/>
      <point x="666" y="660"/>
      <point x="669" y="674" type="curve"/>
      <point x="676" y="705"/>
      <point x="675" y="723"/>
      <point x="665" y="736" type="curve" smooth="yes"/>
      <point x="654" y="751"/>
      <point x="597" y="767"/>
      <point x="520" y="767" type="curve" smooth="yes"/>
      <point x="442" y="767"/>
      <point x="348" y="686"/>
    </contour>
    <contour>
      <point x="274" y="579" type="curve"/>
      <point x="119" y="-42" type="line" smooth="yes"/>
      <point x="106" y="-92"/>
      <point x="136" y="-107"/>
      <point x="192" y="-107" type="curve"/>
      <point x="208" y="-107"/>
      <point x="224" y="-106"/>
      <point x="240" y="-102" type="curve"/>
      <point x="239" y="-63"/>
      <point x="243" y="-34"/>
      <point x="255" y="14" type="curve"/>
      <point x="381" y="515" type="line"/>
      <point x="382" y="540"/>
      <point x="384" y="558"/>
      <point x="391" y="582" type="curve"/>
      <point x="412" y="665"/>
      <point x="450" y="712"/>
      <point x="547" y="734" type="curve"/>
      <point x="549" y="762"/>
      <point x="536" y="767"/>
      <point x="520" y="767" type="curve" smooth="yes"/>
      <point x="394" y="767"/>
      <point x="303" y="695"/>
    </contour>
    <contour>
      <point x="115" y="515" type="line"/>
      <point x="113" y="511"/>
      <point x="112" y="505"/>
      <point x="110" y="500" type="curve" smooth="yes"/>
      <point x="101" y="462"/>
      <point x="103" y="440"/>
      <point x="113" y="426" type="curve" smooth="yes"/>
      <point x="129" y="405"/>
      <point x="160" y="401"/>
      <point x="242" y="401" type="curve"/>
      <point x="563" y="401" type="line"/>
      <point x="568" y="413"/>
      <point x="574" y="429"/>
      <point x="578" y="445" type="curve" smooth="yes"/>
      <point x="591" y="496"/>
      <point x="583" y="515"/>
      <point x="540" y="515" type="curve"/>
    </contour>
  </outline>
</glyph>
<glyph name="h" format="1">
  <advance width="600"/>
  <unicode hex="0068"/>
  <outline>
    <contour>
      <point x="127" y="-2" type="curve"/>
      <point x="299" y="658" type="line" smooth="yes"/>
      <point x="308" y="695"/>
      <point x="307" y="715"/>
      <point x="296" y="729" type="curve" smooth="yes"/>
      <point x="282" y="748"/>
      <point x="257" y="755"/>
      <point x="222" y="755" type="curve" smooth="yes"/>
      <point x="211" y="755"/>
      <point x="199" y="754"/>
      <point x="188" y="752" type="curve"/>
      <point x="188" y="719"/>
      <point x="185" y="694"/>
      <point x="175" y="652" type="curve" smooth="yes"/>
      <point x="18" y="43" type="line" smooth="yes"/>
      <point x="7" y="1"/>
      <point x="40" y="-6"/>
      <point x="85" y="-6" type="curve" smooth="yes"/>
      <point x="101" y="-6"/>
      <point x="116" y="-4"/>
    </contour>
    <contour>
      <point x="460" y="547" type="curve" smooth="yes"/>
      <point x="372" y="547"/>
      <point x="263" y="453"/>
      <point x="197" y="337" type="curve" smooth="yes"/>
      <point x="163" y="269"/>
      <point x="148" y="196"/>
      <point x="154" y="137" type="curve"/>
      <point x="247" y="335"/>
      <point x="336" y="424"/>
      <point x="403" y="424" type="curve" smooth="yes"/>
      <point x="438" y="424"/>
      <point x="456" y="397"/>
      <point x="456" y="340" type="curve"/>
      <point x="504" y="341"/>
      <point x="538" y="359"/>
      <point x="543" y="381" type="curve" smooth="yes"/>
      <point x="564" y="460"/>
      <point x="534" y="547"/>
    </contour>
    <contour>
      <point x="463" y="0" type="curve"/>
      <point x="463" y="54"/>
      <point x="468" y="89"/>
      <point x="484" y="147" type="curve" smooth="yes"/>
      <point x="543" y="381" type="line"/>
      <point x="553" y="416"/>
      <point x="534" y="436"/>
      <point x="465" y="434" type="curve"/>
      <point x="411" y="311"/>
      <point x="377" y="227"/>
      <point x="355" y="142" type="curve" smooth="yes"/>
      <point x="351" y="130" type="line" smooth="yes"/>
      <point x="323" y="24"/>
      <point x="355" y="-5"/>
      <point x="420" y="-5" type="curve" smooth="yes"/>
      <point x="435" y="-5"/>
      <point x="448" y="-3"/>
    </contour>
    <contour>
      <point x="251" y="730" type="move" name="top"/>
    </contour>
  </outline>
</glyph>
<glyph name="i" format="1">
  <advance width="600"/>
  <unicode hex="0069"/>
  <outline>
    <contour>
      <point x="116" y="535" type="curve"/>
      <point x="110" y="524"/>
      <point x="105" y="508"/>
      <point x="101" y="491" type="curve" smooth="yes"/>
      <point x="89" y="441"/>
      <point x="100" y="420"/>
      <point x="120" y="420" type="curve" smooth="yes"/>
      <point x="156" y="420"/>
      <point x="209" y="435"/>
      <point x="320" y="435" type="curve"/>
      <point x="336" y="497"/>
      <point x="350" y="545"/>
      <point x="312" y="545" type="curve"/>
      <point x="250" y="545"/>
      <point x="187" y="542"/>
    </contour>
    <contour>
      <point x="409" y="521" type="curve" smooth="yes"/>
      <point x="394" y="536"/>
      <point x="361" y="545"/>
      <point x="321" y="545" type="curve" smooth="yes"/>
      <point x="312" y="545" type="line"/>
      <point x="217" y="166" type="line" smooth="yes"/>
      <point x="197" y="88"/>
      <point x="272" y="25"/>
      <point x="337" y="44" type="curve"/>
      <point x="320" y="96"/>
      <point x="319" y="112"/>
      <point x="337" y="184" type="curve" smooth="yes"/>
      <point x="413" y="490" type="line" smooth="yes"/>
      <point x="417" y="506"/>
      <point x="417" y="513"/>
    </contour>
    <contour>
      <point x="526" y="139" type="curve"/>
      <point x="522" y="139" type="line"/>
      <point x="473" y="112"/>
      <point x="430" y="99"/>
      <point x="370" y="99" type="curve"/>
      <point x="300" y="99"/>
      <point x="266" y="122"/>
      <point x="276" y="207" type="curve"/>
      <point x="236" y="197"/>
      <point x="220" y="182"/>
      <point x="217" y="166" type="curve" smooth="yes"/>
      <point x="194" y="76"/>
      <point x="243" y="-13"/>
      <point x="357" y="-13" type="curve" smooth="yes"/>
      <point x="365" y="-13" type="line" smooth="yes"/>
      <point x="426" y="-13"/>
      <point x="462" y="4"/>
      <point x="476" y="18" type="curve" smooth="yes"/>
      <point x="495" y="33"/>
      <point x="512" y="54"/>
      <point x="522" y="99" type="curve"/>
      <point x="525" y="114"/>
      <point x="527" y="127"/>
    </contour>
    <contour>
      <point x="465" y="639" type="curve"/>
      <point x="484" y="711" type="line" smooth="yes"/>
      <point x="495" y="754"/>
      <point x="459" y="764"/>
      <point x="408" y="764" type="curve" smooth="yes"/>
      <point x="388" y="764"/>
      <point x="365" y="763"/>
      <point x="345" y="759" type="curve"/>
      <point x="326" y="687" type="line" smooth="yes"/>
      <point x="316" y="644"/>
      <point x="352" y="634"/>
      <point x="403" y="634" type="curve" smooth="yes"/>
      <point x="422" y="634"/>
      <point x="445" y="636"/>
    </contour>
  </outline>
</glyph>
<glyph name="j" format="1">
  <advance width="600"/>
  <unicode hex="006A"/>
  <outline>
    <contour>
      <point x="136" y="535" type="curve"/>
      <point x="130" y="524"/>
      <point x="125" y="508"/>
      <point x="120" y="491" type="curve" smooth="yes"/>
      <point x="108" y="443"/>
      <point x="117" y="420"/>
      <point x="142" y="420" type="curve" smooth="yes"/>
      <point x="182" y="420"/>
      <point x="263" y="428"/>
      <point x="412" y="445" type="curve"/>
      <point x="429" y="510"/>
      <point x="429" y="545"/>
      <point x="401" y="545" type="curve" smooth="yes"/>
      <point x="331" y="545"/>
      <point x="220" y="543"/>
    </contour>
    <contour>
      <point x="375" y="-4" type="curve" smooth="yes"/>
      <point x="502" y="491" type="line" smooth="yes"/>
      <point x="506" y="505"/>
      <point x="505" y="511"/>
      <point x="498" y="520" type="curve" smooth="yes"/>
      <point x="486" y="537"/>
      <point x="450" y="545"/>
      <point x="410" y="545" type="curve" smooth="yes"/>
      <point x="401" y="545" type="line"/>
      <point x="259" y="-4" type="line" smooth="yes"/>
      <point x="236" y="-95"/>
      <point x="212" y="-123"/>
      <point x="144" y="-166" type="curve"/>
      <point x="208" y="-214"/>
      <point x="333" y="-154"/>
    </contour>
    <contour>
      <point x="100" y="-138" type="curve" smooth="yes"/>
      <point x="26" y="-138"/>
      <point x="-14" y="-129"/>
      <point x="-55" y="-105" type="curve"/>
      <point x="-59" y="-105" type="line"/>
      <point x="-64" y="-115"/>
      <point x="-68" y="-126"/>
      <point x="-71" y="-137" type="curve" smooth="yes"/>
      <point x="-79" y="-169"/>
      <point x="-78" y="-202"/>
      <point x="-67" y="-217" type="curve" smooth="yes"/>
      <point x="-53" y="-236"/>
      <point x="-6" y="-250"/>
      <point x="85" y="-250" type="curve" smooth="yes"/>
      <point x="234" y="-250"/>
      <point x="335" y="-162"/>
      <point x="375" y="-4" type="curve" smooth="yes"/>
      <point x="377" y="5"/>
      <point x="355" y="27"/>
      <point x="335" y="27" type="curve"/>
      <point x="272" y="-110"/>
      <point x="182" y="-138"/>
    </contour>
    <contour>
      <point x="552" y="639" type="curve"/>
      <point x="571" y="711" type="line" smooth="yes"/>
      <point x="582" y="754"/>
      <point x="546" y="764"/>
      <point x="495" y="764" type="curve" smooth="yes"/>
      <point x="476" y="764"/>
      <point x="453" y="763"/>
      <point x="433" y="759" type="curve"/>
      <point x="414" y="687" type="line" smooth="yes"/>
      <point x="403" y="644"/>
      <point x="438" y="634"/>
      <point x="489" y="634" type="curve" smooth="yes"/>
      <point x="508" y="634"/>
      <point x="532" y="636"/>
    </contour>
  </outline>
</glyph>
<glyph name="k" format="1">
  <advance width="600"/>
  <unicode hex="006B"/>
  <outline>
    <contour>
      <point x="129" y="-2" type="curve"/>
      <point x="298" y="654" type="line" smooth="yes"/>
      <point x="309" y="698"/>
      <point x="309" y="716"/>
      <point x="296" y="733" type="curve" smooth="yes"/>
      <point x="283" y="751"/>
      <point x="248" y="756"/>
      <point x="223" y="756" type="curve" smooth="yes"/>
      <point x="212" y="756"/>
      <point x="201" y="755"/>
      <point x="189" y="752" type="curve"/>
      <point x="189" y="719"/>
      <point x="186" y="695"/>
      <point x="175" y="653" type="curve" smooth="yes"/>
      <point x="18" y="43" type="line" smooth="yes"/>
      <point x="7" y="1"/>
      <point x="41" y="-6"/>
      <point x="86" y="-6" type="curve" smooth="yes"/>
      <point x="103" y="-6"/>
      <point x="117" y="-5"/>
    </contour>
    <contour>
      <point x="485" y="545" type="line"/>
      <point x="382" y="380"/>
      <point x="254" y="300"/>
      <point x="109" y="253" type="curve"/>
      <point x="95" y="199"/>
      <point x="114" y="172"/>
      <point x="135" y="176" type="curve" smooth="yes"/>
      <point x="281" y="203"/>
      <point x="451" y="305"/>
      <point x="564" y="454" type="curve" smooth="yes"/>
      <point x="583" y="480"/>
      <point x="588" y="490"/>
      <point x="590" y="500" type="curve" smooth="yes"/>
      <point x="596" y="524"/>
      <point x="556" y="545"/>
      <point x="504" y="545" type="curve"/>
    </contour>
    <contour>
      <point x="428" y="-10" type="curve" smooth="yes"/>
      <point x="462" y="-10"/>
      <point x="481" y="-5"/>
      <point x="503" y="9" type="curve"/>
      <point x="433" y="92"/>
      <point x="380" y="197"/>
      <point x="349" y="312" type="curve"/>
      <point x="302" y="302"/>
      <point x="247" y="267"/>
      <point x="253" y="236" type="curve" smooth="yes"/>
      <point x="269" y="156"/>
      <point x="313" y="63"/>
      <point x="341" y="25" type="curve" smooth="yes"/>
      <point x="360" y="-1"/>
      <point x="383" y="-10"/>
    </contour>
    <contour>
      <point x="253" y="-1" type="move" name="bottom"/>
    </contour>
  </outline>
</glyph>
<glyph name="l" format="1">
  <advance width="600"/>
  <unicode hex="006C"/>
  <outline>
    <contour>
      <point x="170" y="750" type="curve"/>
      <point x="164" y="738"/>
      <point x="159" y="723"/>
      <point x="155" y="706" type="curve" smooth="yes"/>
      <point x="142" y="656"/>
      <point x="153" y="635"/>
      <point x="173" y="635" type="curve" smooth="yes"/>
      <point x="210" y="635"/>
      <point x="262" y="650"/>
      <point x="373" y="650" type="curve"/>
      <point x="389" y="712"/>
      <point x="403" y="760"/>
      <point x="365" y="760" type="curve"/>
      <point x="304" y="760"/>
      <point x="241" y="757"/>
    </contour>
    <contour>
      <point x="462" y="736" type="curve" smooth="yes"/>
      <point x="448" y="750"/>
      <point x="414" y="760"/>
      <point x="374" y="760" type="curve" smooth="yes"/>
      <point x="365" y="760" type="line"/>
      <point x="212" y="166" type="line" smooth="yes"/>
      <point x="192" y="88"/>
      <point x="267" y="25"/>
      <point x="333" y="44" type="curve"/>
      <point x="315" y="96"/>
      <point x="314" y="113"/>
      <point x="333" y="184" type="curve" smooth="yes"/>
      <point x="467" y="705" type="line" smooth="yes"/>
      <point x="471" y="720"/>
      <point x="470" y="728"/>
    </contour>
    <contour>
      <point x="522" y="139" type="curve"/>
      <point x="518" y="139" type="line"/>
      <point x="468" y="112"/>
      <point x="425" y="99"/>
      <point x="364" y="99" type="curve"/>
      <point x="296" y="99"/>
      <point x="262" y="122"/>
      <point x="271" y="207" type="curve"/>
      <point x="232" y="197"/>
      <point x="216" y="182"/>
      <point x="212" y="166" type="curve" smooth="yes"/>
      <point x="189" y="76"/>
      <point x="238" y="-13"/>
      <point x="353" y="-13" type="curve" smooth="yes"/>
      <point x="361" y="-13" type="line" smooth="yes"/>
      <point x="421" y="-13"/>
      <point x="453" y="-1"/>
      <point x="471" y="15" type="curve" smooth="yes"/>
      <point x="495" y="35"/>
      <point x="507" y="54"/>
      <point x="517" y="100" type="curve"/>
      <point x="521" y="115"/>
      <point x="522" y="127"/>
    </contour>
  </outline>
</glyph>
<glyph name="m" format="1">
  <advance width="600"/>
  <unicode hex="006D"/>
  <outline>
    <contour>
      <point x="80" y="-2" type="curve"/>
      <point x="191" y="426" type="line" smooth="yes"/>
      <point x="207" y="489"/>
      <point x="204" y="506"/>
      <point x="193" y="522" type="curve" smooth="yes"/>
      <point x="180" y="538"/>
      <point x="156" y="541"/>
      <point x="133" y="541" type="curve" smooth="yes"/>
      <point x="122" y="541"/>
      <point x="110" y="540"/>
      <point x="98" y="537" type="curve"/>
      <point x="98" y="504"/>
      <point x="95" y="479"/>
      <point x="85" y="438" type="curve" smooth="yes"/>
      <point x="-17" y="43" type="line" smooth="yes"/>
      <point x="-28" y="1"/>
      <point x="-7" y="-6"/>
      <point x="38" y="-6" type="curve" smooth="yes"/>
      <point x="54" y="-6"/>
      <point x="68" y="-5"/>
    </contour>
    <contour>
      <point x="324" y="545" type="curve" smooth="yes"/>
      <point x="272" y="545"/>
      <point x="208" y="480"/>
      <point x="165" y="389" type="curve" smooth="yes"/>
      <point x="151" y="361"/>
      <point x="148" y="331"/>
      <point x="151" y="304" type="curve"/>
      <point x="207" y="394"/>
      <point x="246" y="432"/>
      <point x="281" y="432" type="curve" smooth="yes"/>
      <point x="302" y="432"/>
      <point x="312" y="420"/>
      <point x="315" y="390" type="curve"/>
      <point x="348" y="397"/>
      <point x="372" y="415"/>
      <point x="376" y="431" type="curve" smooth="yes"/>
      <point x="391" y="491"/>
      <point x="367" y="545"/>
    </contour>
    <contour>
      <point x="265" y="0" type="curve"/>
      <point x="376" y="431" type="line" smooth="yes"/>
      <point x="387" y="472"/>
      <point x="375" y="481"/>
      <point x="331" y="472" type="curve"/>
      <point x="268" y="302"/>
      <point x="237" y="204"/>
      <point x="212" y="107" type="curve" smooth="yes"/>
      <point x="210" y="103" type="line" smooth="yes"/>
      <point x="190" y="24"/>
      <point x="205" y="-3"/>
      <point x="249" y="-3" type="curve" smooth="yes"/>
      <point x="254" y="-3"/>
      <point x="259" y="-2"/>
    </contour>
    <contour>
      <point x="526" y="547" type="curve" smooth="yes"/>
      <point x="471" y="547"/>
      <point x="393" y="483"/>
      <point x="349" y="400" type="curve" smooth="yes"/>
      <point x="329" y="365"/>
      <point x="323" y="339"/>
      <point x="335" y="308" type="curve"/>
      <point x="381" y="387"/>
      <point x="429" y="432"/>
      <point x="469" y="432" type="curve" smooth="yes"/>
      <point x="495" y="432"/>
      <point x="503" y="417"/>
      <point x="504" y="385" type="curve"/>
      <point x="567" y="391"/>
      <point x="589" y="403"/>
      <point x="594" y="423" type="curve" smooth="yes"/>
      <point x="607" y="474"/>
      <point x="577" y="547"/>
    </contour>
    <contour>
      <point x="502" y="0" type="curve"/>
      <point x="503" y="54"/>
      <point x="508" y="89"/>
      <point x="523" y="147" type="curve" smooth="yes"/>
      <point x="594" y="423" type="line" smooth="yes"/>
      <point x="600" y="448"/>
      <point x="575" y="465"/>
      <point x="514" y="465" type="curve"/>
      <point x="460" y="324"/>
      <point x="426" y="222"/>
      <point x="402" y="131" type="curve" smooth="yes"/>
      <point x="401" y="126" type="line" smooth="yes"/>
      <point x="374" y="20"/>
      <point x="394" y="-5"/>
      <point x="458" y="-5" type="curve" smooth="yes"/>
      <point x="474" y="-5"/>
      <point x="487" y="-3"/>
    </contour>
  </outline>
</glyph>
<glyph name="o" format="1">
  <advance width="600"/>
  <unicode hex="006F"/>
  <outline>
    <contour>
      <point x="372" y="547" type="curve" smooth="yes"/>
      <point x="226" y="547"/>
      <point x="104" y="441"/>
      <point x="56" y="258" type="curve" smooth="yes"/>
      <point x="52" y="244" type="line" smooth="yes"/>
      <point x="8" y="80"/>
      <point x="101" y="-11"/>
      <point x="246" y="-11" type="curve" smooth="yes"/>
      <point x="274" y="-11"/>
      <point x="301" y="14"/>
      <point x="308" y="43" type="curve"/>
      <point x="170" y="43"/>
      <point x="130" y="112"/>
      <point x="164" y="239" type="curve" smooth="yes"/>
      <point x="166" y="250" type="line" smooth="yes"/>
      <point x="201" y="378"/>
      <point x="271" y="441"/>
      <point x="360" y="441" type="curve" smooth="yes"/>
      <point x="411" y="441"/>
      <point x="438" y="426"/>
      <point x="467" y="396" type="curve"/>
      <point x="543" y="445"/>
      <point x="455" y="547"/>
    </contour>
    <contour>
      <point x="246" y="-11" type="curve" smooth="yes"/>
      <point x="388" y="-11"/>
      <point x="493" y="66"/>
      <point x="532" y="226" type="curve" smooth="yes"/>
      <point x="536" y="241" type="line" smooth="yes"/>
      <point x="583" y="427"/>
      <point x="498" y="547"/>
      <point x="372" y="547" type="curve" smooth="yes"/>
      <point x="346" y="547"/>
      <point x="323" y="525"/>
      <point x="317" y="493" type="curve"/>
      <point x="425" y="491"/>
      <point x="466" y="407"/>
      <point x="425" y="248" type="curve" smooth="yes"/>
      <point x="422" y="238" type="line" smooth="yes"/>
      <point x="398" y="140"/>
      <point x="346" y="94"/>
      <point x="253" y="94" type="curve" smooth="yes"/>
      <point x="195" y="94"/>
      <point x="161" y="107"/>
      <point x="126" y="137" type="curve"/>
      <point x="74" y="86"/>
      <point x="139" y="-11"/>
    </contour>
    <contour>
      <point x="369" y="546" type="move" name="top"/>
    </contour>
    <contour>
      <point x="309" y="-1" type="move" name="ogonek"/>
    </contour>
    <contour>
      <point x="232" y="-1" type="move" name="bottom"/>
    </contour>
  </outline>
</glyph>
<glyph name="p" format="1">
  <advance width="600"/>
  <unicode hex="0070"/>
  <outline>
    <contour>
      <point x="71" y="-207" type="curve"/>
      <point x="220" y="373" type="line" smooth="yes"/>
      <point x="242" y="456"/>
      <point x="249" y="495"/>
      <point x="233" y="517" type="curve" smooth="yes"/>
      <point x="220" y="534"/>
      <point x="191" y="541"/>
      <point x="169" y="541" type="curve"/>
      <point x="158" y="541"/>
      <point x="147" y="540"/>
      <point x="135" y="537" type="curve"/>
      <point x="135" y="504"/>
      <point x="133" y="479"/>
      <point x="122" y="438" type="curve" smooth="yes"/>
      <point x="-33" y="-163" type="line" smooth="yes"/>
      <point x="-44" y="-205"/>
      <point x="-14" y="-211"/>
      <point x="27" y="-211" type="curve"/>
      <point x="43" y="-211"/>
      <point x="59" y="-210"/>
    </contour>
    <contour>
      <point x="457" y="547" type="curve" smooth="yes"/>
      <point x="365" y="547"/>
      <point x="253" y="461"/>
      <point x="199" y="358" type="curve" smooth="yes"/>
      <point x="175" y="314"/>
      <point x="165" y="255"/>
      <point x="172" y="222" type="curve"/>
      <point x="263" y="375"/>
      <point x="342" y="428"/>
      <point x="419" y="428" type="curve" smooth="yes"/>
      <point x="459" y="428"/>
      <point x="488" y="395"/>
      <point x="513" y="319" type="curve"/>
      <point x="546" y="320"/>
      <point x="561" y="330"/>
      <point x="564" y="340" type="curve" smooth="yes"/>
      <point x="595" y="458"/>
      <point x="546" y="547"/>
    </contour>
    <contour>
      <point x="263" y="-11" type="curve" smooth="yes"/>
      <point x="374" y="-11"/>
      <point x="497" y="80"/>
      <point x="558" y="318" type="curve" smooth="yes"/>
      <point x="564" y="340" type="line" smooth="yes"/>
      <point x="578" y="392"/>
      <point x="560" y="476"/>
      <point x="494" y="476" type="curve" smooth="yes"/>
      <point x="474" y="476"/>
      <point x="455" y="465"/>
      <point x="445" y="434" type="curve"/>
      <point x="456" y="404"/>
      <point x="454" y="375"/>
      <point x="438" y="315" type="curve" smooth="yes"/>
      <point x="435" y="301" type="line" smooth="yes"/>
      <point x="401" y="168"/>
      <point x="340" y="96"/>
      <point x="254" y="96" type="curve" smooth="yes"/>
      <point x="201" y="96"/>
      <point x="173" y="118"/>
      <point x="151" y="159" type="curve"/>
      <point x="135" y="139"/>
      <point x="123" y="103"/>
      <point x="131" y="80" type="curve" smooth="yes"/>
      <point x="137" y="39"/>
      <point x="187" y="-11"/>
    </contour>
  </outline>
</glyph>
<glyph name="r" format="1">
  <advance width="600"/>
  <unicode hex="0072"/>
  <outline>
    <contour>
      <point x="124" y="535" type="curve"/>
      <point x="114" y="514"/>
      <point x="109" y="500"/>
      <point x="104" y="481" type="curve" smooth="yes"/>
      <point x="94" y="442"/>
      <point x="103" y="424"/>
      <point x="126" y="424" type="curve" smooth="yes"/>
      <point x="157" y="424"/>
      <point x="203" y="442"/>
      <point x="288" y="442" type="curve"/>
      <point x="307" y="517"/>
      <point x="302" y="545"/>
      <point x="274" y="545" type="curve" smooth="yes"/>
      <point x="222" y="545"/>
      <point x="172" y="542"/>
    </contour>
    <contour>
      <point x="244" y="-1" type="curve"/>
      <point x="243" y="38"/>
      <point x="248" y="68"/>
      <point x="260" y="115" type="curve" smooth="yes"/>
      <point x="343" y="437" type="line" smooth="yes"/>
      <point x="359" y="502"/>
      <point x="329" y="545"/>
      <point x="274" y="545" type="curve" smooth="yes"/>
      <point x="267" y="545"/>
      <point x="261" y="543"/>
      <point x="253" y="538" type="curve"/>
      <point x="130" y="59" type="line" smooth="yes"/>
      <point x="116" y="9"/>
      <point x="144" y="-6"/>
      <point x="196" y="-6" type="curve" smooth="yes"/>
      <point x="212" y="-6"/>
      <point x="228" y="-4"/>
    </contour>
    <contour>
      <point x="271" y="186" type="curve"/>
      <point x="356" y="359"/>
      <point x="441" y="424"/>
      <point x="509" y="424" type="curve" smooth="yes"/>
      <point x="542" y="424"/>
      <point x="560" y="416"/>
      <point x="581" y="401" type="curve"/>
      <point x="585" y="401" type="line"/>
      <point x="597" y="421"/>
      <point x="606" y="440"/>
      <point x="613" y="468" type="curve"/>
      <point x="627" y="524"/>
      <point x="612" y="553"/>
      <point x="559" y="553" type="curve" smooth="yes"/>
      <point x="556" y="553" type="line" smooth="yes"/>
      <point x="474" y="553"/>
      <point x="358" y="469"/>
      <point x="289" y="318" type="curve" smooth="yes"/>
      <point x="273" y="286"/>
      <point x="265" y="252"/>
    </contour>
  </outline>
</glyph>
<glyph name="s" format="1">
  <advance width="600"/>
  <unicode hex="0073"/>
  <outline>
    <contour>
      <point x="439" y="548" type="curve" smooth="yes"/>
      <point x="430" y="548" type="line" smooth="yes"/>
      <point x="284" y="548"/>
      <point x="148" y="491"/>
      <point x="120" y="381" type="curve" smooth="yes"/>
      <point x="109" y="340"/>
      <point x="160" y="307"/>
      <point x="226" y="307" type="curve"/>
      <point x="222" y="333"/>
      <point x="225" y="352"/>
      <point x="230" y="372" type="curve" smooth="yes"/>
      <point x="240" y="409"/>
      <point x="306" y="435"/>
      <point x="406" y="435" type="curve" smooth="yes"/>
      <point x="457" y="435"/>
      <point x="502" y="425"/>
      <point x="539" y="407" type="curve"/>
      <point x="543" y="407" type="line"/>
      <point x="548" y="417"/>
      <point x="552" y="428"/>
      <point x="555" y="438" type="curve"/>
      <point x="565" y="480"/>
      <point x="564" y="505"/>
      <point x="549" y="525" type="curve" smooth="yes"/>
      <point x="540" y="537"/>
      <point x="498" y="548"/>
    </contour>
    <contour>
      <point x="391" y="297" type="curve" smooth="yes"/>
      <point x="305" y="315" type="line" smooth="yes"/>
      <point x="235" y="330"/>
      <point x="224" y="348"/>
      <point x="230" y="372" type="curve" smooth="yes"/>
      <point x="234" y="386"/>
      <point x="242" y="408"/>
      <point x="260" y="435" type="curve"/>
      <point x="179" y="423"/>
      <point x="127" y="411"/>
      <point x="120" y="381" type="curve"/>
      <point x="101" y="310"/>
      <point x="131" y="261"/>
      <point x="235" y="236" type="curve" smooth="yes"/>
      <point x="336" y="213" type="line" smooth="yes"/>
      <point x="393" y="200"/>
      <point x="404" y="176"/>
      <point x="395" y="141" type="curve" smooth="yes"/>
      <point x="390" y="124"/>
      <point x="383" y="111"/>
      <point x="370" y="100" type="curve"/>
      <point x="455" y="102"/>
      <point x="497" y="119"/>
      <point x="505" y="147" type="curve" smooth="yes"/>
      <point x="522" y="216"/>
      <point x="487" y="277"/>
    </contour>
    <contour>
      <point x="257" y="100" type="curve" smooth="yes"/>
      <point x="139" y="100"/>
      <point x="101" y="116"/>
      <point x="44" y="159" type="curve"/>
      <point x="40" y="159" type="line"/>
      <point x="34" y="148"/>
      <point x="30" y="136"/>
      <point x="25" y="118" type="curve" smooth="yes"/>
      <point x="13" y="72"/>
      <point x="22" y="50"/>
      <point x="32" y="36" type="curve" smooth="yes"/>
      <point x="43" y="20"/>
      <point x="108" y="-11"/>
      <point x="207" y="-11" type="curve" smooth="yes"/>
      <point x="221" y="-11" type="line" smooth="yes"/>
      <point x="384" y="-11"/>
      <point x="475" y="35"/>
      <point x="505" y="147" type="curve" smooth="yes"/>
      <point x="515" y="189"/>
      <point x="487" y="198"/>
      <point x="448" y="206" type="curve"/>
      <point x="447" y="189"/>
      <point x="444" y="180"/>
      <point x="442" y="171" type="curve" smooth="yes"/>
      <point x="432" y="132"/>
      <point x="367" y="100"/>
    </contour>
    <contour>
      <point x="386" y="546" type="move" name="top"/>
    </contour>
    <contour>
      <point x="239" y="-1" type="move" name="bottom"/>
    </contour>
  </outline>
</glyph>
<glyph name="t" format="1">
  <advance width="600"/>
  <unicode hex="0074"/>
  <outline>
    <contour>
      <point x="291" y="700" type="curve"/>
      <point x="156" y="160" type="line" smooth="yes"/>
      <point x="136" y="77"/>
      <point x="196" y="19"/>
      <point x="281" y="30" type="curve"/>
      <point x="260" y="81"/>
      <point x="261" y="116"/>
      <point x="276" y="174" type="curve" smooth="yes"/>
      <point x="396" y="656" type="line" smooth="yes"/>
      <point x="407" y="697"/>
      <point x="375" y="705"/>
      <point x="336" y="705" type="curve" smooth="yes"/>
      <point x="319" y="705"/>
      <point x="304" y="703"/>
    </contour>
    <contour>
      <point x="505" y="157" type="curve"/>
      <point x="501" y="157" type="line"/>
      <point x="451" y="119"/>
      <point x="402" y="100"/>
      <point x="336" y="100" type="curve" smooth="yes"/>
      <point x="272" y="100"/>
      <point x="221" y="123"/>
      <point x="207" y="192" type="curve"/>
      <point x="175" y="188"/>
      <point x="161" y="176"/>
      <point x="156" y="160" type="curve" smooth="yes"/>
      <point x="131" y="57"/>
      <point x="195" y="-15"/>
      <point x="311" y="-15" type="curve" smooth="yes"/>
      <point x="320" y="-15" type="line" smooth="yes"/>
      <point x="384" y="-15"/>
      <point x="431" y="3"/>
      <point x="458" y="26" type="curve" smooth="yes"/>
      <point x="479" y="43"/>
      <point x="493" y="68"/>
      <point x="502" y="108" type="curve" smooth="yes"/>
      <point x="506" y="122"/>
      <point x="507" y="138"/>
    </contour>
    <contour>
      <point x="119" y="535" type="line"/>
      <point x="118" y="530"/>
      <point x="117" y="525"/>
      <point x="115" y="519" type="curve" smooth="yes"/>
      <point x="106" y="480"/>
      <point x="107" y="457"/>
      <point x="118" y="443" type="curve" smooth="yes"/>
      <point x="131" y="426"/>
      <point x="154" y="420"/>
      <point x="215" y="420" type="curve" smooth="yes"/>
      <point x="576" y="420" type="line"/>
      <point x="582" y="433"/>
      <point x="588" y="449"/>
      <point x="592" y="466" type="curve" smooth="yes"/>
      <point x="604" y="516"/>
      <point x="595" y="535"/>
      <point x="552" y="535" type="curve" smooth="yes"/>
    </contour>
    <contour>
      <point x="566" y="700" type="move" name="caronslovak"/>
    </contour>
    <contour>
      <point x="302" y="-1" type="move" name="bottom"/>
    </contour>
  </outline>
</glyph>
<glyph name="u" format="1">
  <advance width="600"/>
  <unicode hex="0075"/>
  <outline>
    <contour>
      <point x="470" y="539" type="curve"/>
      <point x="372" y="163" type="line" smooth="yes"/>
      <point x="352" y="87"/>
      <point x="358" y="45"/>
      <point x="373" y="22" type="curve" smooth="yes"/>
      <point x="385" y="5"/>
      <point x="402" y="-4"/>
      <point x="432" y="-4" type="curve" smooth="yes"/>
      <point x="442" y="-4"/>
      <point x="453" y="-3"/>
      <point x="465" y="0" type="curve"/>
      <point x="464" y="33"/>
      <point x="467" y="57"/>
      <point x="478" y="99" type="curve" smooth="yes"/>
      <point x="580" y="494" type="line" smooth="yes"/>
      <point x="592" y="536"/>
      <point x="558" y="543"/>
      <point x="513" y="543" type="curve" smooth="yes"/>
      <point x="497" y="543"/>
      <point x="482" y="542"/>
    </contour>
    <contour>
      <point x="141" y="-10" type="curve" smooth="yes"/>
      <point x="228" y="-10"/>
      <point x="334" y="86"/>
      <point x="400" y="204" type="curve" smooth="yes"/>
      <point x="434" y="271"/>
      <point x="449" y="342"/>
      <point x="443" y="394" type="curve"/>
      <point x="349" y="191"/>
      <point x="258" y="113"/>
      <point x="191" y="113" type="curve" smooth="yes"/>
      <point x="156" y="113"/>
      <point x="137" y="136"/>
      <point x="138" y="185" type="curve"/>
      <point x="87" y="184"/>
      <point x="54" y="163"/>
      <point x="48" y="138" type="curve" smooth="yes"/>
      <point x="31" y="75"/>
      <point x="67" y="-10"/>
    </contour>
    <contour>
      <point x="135" y="537" type="curve"/>
      <point x="135" y="484"/>
      <point x="129" y="448"/>
      <point x="114" y="390" type="curve" smooth="yes"/>
      <point x="48" y="138" type="line"/>
      <point x="41" y="112"/>
      <point x="58" y="101"/>
      <point x="132" y="103" type="curve"/>
      <point x="187" y="224"/>
      <point x="224" y="312"/>
      <point x="246" y="398" type="curve" smooth="yes"/>
      <point x="249" y="408" type="line" smooth="yes"/>
      <point x="277" y="515"/>
      <point x="246" y="542"/>
      <point x="178" y="542" type="curve" smooth="yes"/>
      <point x="163" y="542"/>
      <point x="149" y="540"/>
    </contour>
    <contour>
      <point x="369" y="546" type="move" name="top"/>
    </contour>
    <contour>
      <point x="469" y="-1" type="move" name="ogonek"/>
    </contour>
    <contour>
      <point x="234" y="-1" type="move" name="bottom"/>
    </contour>
  </outline>
</glyph>
<glyph name="v" format="1">
  <advance width="600"/>
  <unicode hex="0076"/>
  <outline>
    <contour>
      <point x="508" y="544" type="curve" smooth="yes"/>
      <point x="488" y="544" type="line"/>
      <point x="396" y="272"/>
      <point x="338" y="166"/>
      <point x="213" y="83" type="curve"/>
      <point x="185" y="65"/>
      <point x="193" y="-10"/>
      <point x="237" y="-10" type="curve"/>
      <point x="273" y="-10" type="line"/>
      <point x="405" y="79"/>
      <point x="509" y="242"/>
      <point x="592" y="486" type="curve"/>
      <point x="603" y="519"/>
      <point x="559" y="544"/>
    </contour>
    <contour>
      <point x="146" y="544" type="curve" smooth="yes"/>
      <point x="127" y="544" type="line"/>
      <point x="83" y="282"/>
      <point x="89" y="125"/>
      <point x="160" y="29" type="curve"/>
      <point x="184" y="-4"/>
      <point x="209" y="-10"/>
      <point x="234" y="-10" type="curve" smooth="yes"/>
      <point x="243" y="-10" type="line" smooth="yes"/>
      <point x="275" y="-10"/>
      <point x="300" y="14"/>
      <point x="325" y="53" type="curve"/>
      <point x="317" y="53"/>
      <point x="312" y="53"/>
      <point x="307" y="53" type="curve" smooth="yes"/>
      <point x="300" y="53"/>
      <point x="292" y="56"/>
      <point x="284" y="64" type="curve"/>
      <point x="212" y="142"/>
      <point x="204" y="264"/>
      <point x="242" y="503" type="curve"/>
      <point x="247" y="528"/>
      <point x="198" y="544"/>
    </contour>
  </outline>
</glyph>
<glyph name="w" format="1">
  <advance width="600"/>
  <unicode hex="0077"/>
  <outline>
    <contour>
      <point x="116" y="543" type="curve"/>
      <point x="33" y="229"/>
      <point x="23" y="89"/>
      <point x="77" y="10" type="curve" smooth="yes"/>
      <point x="86" y="-3"/>
      <point x="101" y="-10"/>
      <point x="117" y="-10" type="curve" smooth="yes"/>
      <point x="122" y="-10" type="line" smooth="yes"/>
      <point x="133" y="-10"/>
      <point x="153" y="24"/>
      <point x="161" y="57" type="curve" smooth="yes"/>
      <point x="124" y="109"/>
      <point x="130" y="200"/>
      <point x="209" y="505" type="curve"/>
      <point x="211" y="512"/>
      <point x="210" y="516"/>
      <point x="206" y="523" type="curve" smooth="yes"/>
      <point x="198" y="537"/>
      <point x="171" y="545"/>
      <point x="142" y="545" type="curve"/>
      <point x="131" y="545"/>
      <point x="124" y="545"/>
    </contour>
    <contour>
      <point x="317" y="434" type="curve" smooth="yes"/>
      <point x="302" y="434" type="line"/>
      <point x="247" y="221"/>
      <point x="187" y="139"/>
      <point x="93" y="42" type="curve"/>
      <point x="89" y="13"/>
      <point x="97" y="-10"/>
      <point x="118" y="-10" type="curve"/>
      <point x="138" y="-10" type="line"/>
      <point x="232" y="82"/>
      <point x="304" y="218"/>
      <point x="347" y="389" type="curve" smooth="yes"/>
      <point x="355" y="419"/>
      <point x="339" y="434"/>
    </contour>
    <contour>
      <point x="317" y="434" type="curve" smooth="yes"/>
      <point x="312" y="434" type="line"/>
      <point x="268" y="267"/>
      <point x="266" y="93"/>
      <point x="315" y="6" type="curve" smooth="yes"/>
      <point x="320" y="-4"/>
      <point x="331" y="-10"/>
      <point x="342" y="-10" type="curve" smooth="yes"/>
      <point x="354" y="-10" type="line" smooth="yes"/>
      <point x="372" y="-10"/>
      <point x="379" y="8"/>
      <point x="390" y="41" type="curve" smooth="yes"/>
      <point x="339" y="98"/>
      <point x="318" y="217"/>
      <point x="365" y="400" type="curve" smooth="yes"/>
      <point x="369" y="417"/>
      <point x="352" y="434"/>
    </contour>
    <contour>
      <point x="511" y="543" type="curve"/>
      <point x="431" y="216"/>
      <point x="400" y="146"/>
      <point x="329" y="64" type="curve"/>
      <point x="322" y="20"/>
      <point x="327" y="-10"/>
      <point x="349" y="-10" type="curve"/>
      <point x="370" y="-10" type="line"/>
      <point x="478" y="88"/>
      <point x="532" y="202"/>
      <point x="609" y="498" type="curve"/>
      <point x="612" y="510"/>
      <point x="610" y="517"/>
      <point x="606" y="521" type="curve" smooth="yes"/>
      <point x="590" y="539"/>
      <point x="560" y="545"/>
      <point x="537" y="545" type="curve"/>
      <point x="529" y="545"/>
      <point x="521" y="545"/>
    </contour>
    <contour>
      <point x="368" y="546" type="move" name="top"/>
    </contour>
  </outline>
</glyph>
<glyph name="y" format="1">
  <advance width="600"/>
  <unicode hex="0079"/>
  <outline>
    <contour>
      <point x="135" y="537" type="curve"/>
      <point x="134" y="483"/>
      <point x="128" y="448"/>
      <point x="114" y="390" type="curve" smooth="yes"/>
      <point x="47" y="138" type="line"/>
      <point x="41" y="111"/>
      <point x="58" y="100"/>
      <point x="132" y="102" type="curve"/>
      <point x="185" y="222"/>
      <point x="220" y="310"/>
      <point x="246" y="400" type="curve" smooth="yes"/>
      <point x="249" y="407" type="line" smooth="yes"/>
      <point x="279" y="513"/>
      <point x="246" y="541"/>
      <point x="178" y="541" type="curve" smooth="yes"/>
      <point x="162" y="541"/>
      <point x="149" y="539"/>
    </contour>
    <contour>
      <point x="140" y="-10" type="curve" smooth="yes"/>
      <point x="227" y="-10"/>
      <point x="333" y="86"/>
      <point x="399" y="203" type="curve" smooth="yes"/>
      <point x="434" y="271"/>
      <point x="448" y="341"/>
      <point x="443" y="393" type="curve"/>
      <point x="348" y="190"/>
      <point x="257" y="112"/>
      <point x="191" y="112" type="curve" smooth="yes"/>
      <point x="156" y="112"/>
      <point x="137" y="135"/>
      <point x="137" y="184" type="curve"/>
      <point x="86" y="184"/>
      <point x="54" y="162"/>
      <point x="47" y="138" type="curve" smooth="yes"/>
      <point x="31" y="75"/>
      <point x="67" y="-10"/>
    </contour>
    <contour>
      <point x="449" y="-4" type="curve" smooth="yes"/>
      <point x="578" y="492" type="line" smooth="yes"/>
      <point x="589" y="534"/>
      <point x="555" y="541"/>
      <point x="511" y="541" type="curve" smooth="yes"/>
      <point x="494" y="541"/>
      <point x="479" y="539"/>
      <point x="467" y="536" type="curve"/>
      <point x="332" y="13" type="line" smooth="yes"/>
      <point x="308" y="-81"/>
      <point x="285" y="-116"/>
      <point x="222" y="-170" type="curve"/>
      <point x="297" y="-222"/>
      <point x="421" y="-114"/>
    </contour>
    <contour>
      <point x="152" y="-138" type="curve" smooth="yes"/>
      <point x="77" y="-138"/>
      <point x="36" y="-130"/>
      <point x="-6" y="-106" type="curve"/>
      <point x="-10" y="-106" type="line"/>
      <point x="-15" y="-115"/>
      <point x="-19" y="-125"/>
      <point x="-22" y="-137" type="curve" smooth="yes"/>
      <point x="-30" y="-169"/>
      <point x="-29" y="-201"/>
      <point x="-17" y="-217" type="curve" smooth="yes"/>
      <point x="-3" y="-236"/>
      <point x="43" y="-250"/>
      <point x="139" y="-250" type="curve" smooth="yes"/>
      <point x="311" y="-250"/>
      <point x="410" y="-160"/>
      <point x="449" y="-4" type="curve" smooth="yes"/>
      <point x="452" y="5"/>
      <point x="429" y="27"/>
      <point x="410" y="27" type="curve"/>
      <point x="346" y="-110"/>
      <point x="234" y="-138"/>
    </contour>
  </outline>
</glyph>
<glyph name="z" format="1">
  <advance width="600"/>
  <unicode hex="007A"/>
  <outline>
    <contour>
      <point x="136" y="535" type="line"/>
      <point x="131" y="526"/>
      <point x="128" y="516"/>
      <point x="125" y="505" type="curve" smooth="yes"/>
      <point x="117" y="473"/>
      <point x="120" y="450"/>
      <point x="130" y="436" type="curve" smooth="yes"/>
      <point x="137" y="427"/>
      <point x="144" y="424"/>
      <point x="160" y="424" type="curve" smooth="yes"/>
      <point x="333" y="424" type="line" smooth="yes"/>
      <point x="401" y="424"/>
      <point x="511" y="427"/>
      <point x="580" y="438" type="curve"/>
      <point x="582" y="444" type="line" smooth="yes"/>
      <point x="590" y="477"/>
      <point x="581" y="502"/>
      <point x="566" y="522" type="curve" smooth="yes"/>
      <point x="559" y="532"/>
      <point x="551" y="535"/>
      <point x="533" y="535" type="curve" smooth="yes"/>
    </contour>
    <contour>
      <point x="477" y="479" type="curve"/>
      <point x="370" y="344"/>
      <point x="204" y="205"/>
      <point x="23" y="103" type="curve"/>
      <point x="13" y="68"/>
      <point x="85" y="55"/>
      <point x="136" y="78" type="curve" smooth="yes"/>
      <point x="322" y="174"/>
      <point x="569" y="393"/>
      <point x="580" y="438" type="curve"/>
      <point x="589" y="470"/>
      <point x="550" y="479"/>
    </contour>
    <contour>
      <point x="462" y="0" type="line"/>
      <point x="469" y="12"/>
      <point x="475" y="29"/>
      <point x="479" y="45" type="curve"/>
      <point x="492" y="96"/>
      <point x="483" y="112"/>
      <point x="439" y="112" type="curve" smooth="yes"/>
      <point x="276" y="112" type="line" smooth="yes"/>
      <point x="194" y="112"/>
      <point x="99" y="109"/>
      <point x="23" y="103" type="curve"/>
      <point x="20" y="92" type="line" smooth="yes"/>
      <point x="9" y="54"/>
      <point x="12" y="27"/>
      <point x="26" y="9" type="curve" smooth="yes"/>
      <point x="30" y="3"/>
      <point x="36" y="0"/>
      <point x="47" y="0" type="curve" smooth="yes"/>
    </contour>
    <contour>
      <point x="369" y="546" type="move" name="top"/>
    </contour>
  </outline>
</glyph>
<glyph name="braceleft" format="1">
  <advance width="600"/>
  <unicode hex="007B"/>
  <outline>
    <contour>
      <point x="539" y="655" type="curve" smooth="yes"/>
      <point x="567" y="655"/>
      <point x="589" y="652"/>
      <point x="605" y="647" type="curve"/>
      <point x="609" y="647" type="line"/>
      <point x="615" y="659"/>
      <point x="619" y="669"/>
      <point x="623" y="687" type="curve"/>
      <point x="635" y="732"/>
      <point x="616" y="770"/>
      <point x="578" y="770" type="curve" smooth="yes"/>
      <point x="573" y="770" type="line" smooth="yes"/>
      <point x="451" y="770"/>
      <point x="349" y="725"/>
      <point x="330" y="651" type="curve" smooth="yes"/>
      <point x="330" y="648" type="line" smooth="yes"/>
      <point x="323" y="620"/>
      <point x="346" y="594"/>
      <point x="379" y="592" type="curve"/>
      <point x="418" y="639"/>
      <point x="473" y="655"/>
    </contour>
    <contour>
      <point x="428" y="441" type="curve" smooth="yes"/>
      <point x="453" y="542"/>
      <point x="405" y="599"/>
      <point x="415" y="638" type="curve" smooth="yes"/>
      <point x="419" y="657"/>
      <point x="427" y="672"/>
      <point x="443" y="690" type="curve"/>
      <point x="394" y="701"/>
      <point x="341" y="693"/>
      <point x="330" y="649" type="curve" smooth="yes"/>
      <point x="329" y="645" type="line" smooth="yes"/>
      <point x="316" y="593"/>
      <point x="343" y="540"/>
      <point x="323" y="461" type="curve" smooth="yes"/>
      <point x="306" y="392"/>
      <point x="250" y="353"/>
      <point x="139" y="353" type="curve" smooth="yes"/>
      <point x="132" y="353" type="line"/>
      <point x="130" y="342" type="line" smooth="yes"/>
      <point x="122" y="312"/>
      <point x="123" y="284"/>
      <point x="154" y="284" type="curve" smooth="yes"/>
      <point x="172" y="284" type="line" smooth="yes"/>
      <point x="292" y="284"/>
      <point x="404" y="344"/>
    </contour>
    <contour>
      <point x="357" y="157" type="curve" smooth="yes"/>
      <point x="383" y="261"/>
      <point x="304" y="314"/>
      <point x="182" y="314" type="curve" smooth="yes"/>
      <point x="147" y="314"/>
      <point x="139" y="332"/>
      <point x="131" y="346" type="curve"/>
      <point x="129" y="338" type="line" smooth="yes"/>
      <point x="116" y="288"/>
      <point x="124" y="246"/>
      <point x="154" y="246" type="curve" smooth="yes"/>
      <point x="156" y="246" type="line" smooth="yes"/>
      <point x="224" y="246"/>
      <point x="259" y="205"/>
      <point x="243" y="138" type="curve" smooth="yes"/>
      <point x="223" y="58"/>
      <point x="168" y="1"/>
      <point x="155" y="-50" type="curve" smooth="yes"/>
      <point x="154" y="-54" type="line" smooth="yes"/>
      <point x="142" y="-101"/>
      <point x="194" y="-108"/>
      <point x="247" y="-97" type="curve"/>
      <point x="239" y="-79"/>
      <point x="239" y="-63"/>
      <point x="244" y="-43" type="curve" smooth="yes"/>
      <point x="254" y="-3"/>
      <point x="333" y="61"/>
    </contour>
    <contour>
      <point x="349" y="-56" type="curve" smooth="yes"/>
      <point x="281" y="-56"/>
      <point x="241" y="-42"/>
      <point x="229" y="3" type="curve"/>
      <point x="191" y="-3"/>
      <point x="160" y="-31"/>
      <point x="155" y="-52" type="curve" smooth="yes"/>
      <point x="154" y="-56" type="line" smooth="yes"/>
      <point x="135" y="-132"/>
      <point x="195" y="-172"/>
      <point x="335" y="-172" type="curve" smooth="yes"/>
      <point x="341" y="-172" type="line" smooth="yes"/>
      <point x="383" y="-172"/>
      <point x="418" y="-125"/>
      <point x="437" y="-52" type="curve"/>
      <point x="439" y="-44" type="line"/>
      <point x="435" y="-44" type="line"/>
      <point x="404" y="-52"/>
      <point x="383" y="-56"/>
    </contour>
  </outline>
</glyph>
<glyph name="bar" format="1">
  <advance width="600"/>
  <unicode hex="007C"/>
  <outline>
    <contour>
      <point x="351" y="759" type="curve"/>
      <point x="350" y="723"/>
      <point x="344" y="687"/>
      <point x="334" y="648" type="curve" smooth="yes"/>
      <point x="144" y="-111" type="line" smooth="yes"/>
      <point x="135" y="-146"/>
      <point x="164" y="-163"/>
      <point x="226" y="-163" type="curve" smooth="yes"/>
      <point x="238" y="-163"/>
      <point x="247" y="-162"/>
      <point x="254" y="-161" type="curve"/>
      <point x="469" y="698" type="line" smooth="yes"/>
      <point x="475" y="722"/>
      <point x="475" y="736"/>
      <point x="466" y="747" type="curve" smooth="yes"/>
      <point x="457" y="759"/>
      <point x="440" y="764"/>
      <point x="402" y="764" type="curve" smooth="yes"/>
      <point x="384" y="764"/>
      <point x="369" y="763"/>
    </contour>
  </outline>
</glyph>
<glyph name="braceright" format="1">
  <advance width="600"/>
  <unicode hex="007D"/>
  <outline>
    <contour>
      <point x="76" y="-57" type="curve" smooth="yes"/>
      <point x="49" y="-57"/>
      <point x="27" y="-54"/>
      <point x="11" y="-49" type="curve"/>
      <point x="7" y="-49" type="line"/>
      <point x="1" y="-61"/>
      <point x="-3" y="-71"/>
      <point x="-8" y="-89" type="curve"/>
      <point x="-19" y="-134"/>
      <point x="0" y="-172"/>
      <point x="38" y="-172" type="curve" smooth="yes"/>
      <point x="42" y="-172" type="line" smooth="yes"/>
      <point x="165" y="-172"/>
      <point x="267" y="-127"/>
      <point x="285" y="-53" type="curve" smooth="yes"/>
      <point x="286" y="-50" type="line" smooth="yes"/>
      <point x="293" y="-22"/>
      <point x="270" y="4"/>
      <point x="237" y="6" type="curve"/>
      <point x="198" y="-41"/>
      <point x="143" y="-57"/>
    </contour>
    <contour>
      <point x="188" y="157" type="curve" smooth="yes"/>
      <point x="162" y="56"/>
      <point x="211" y="-1"/>
      <point x="201" y="-40" type="curve" smooth="yes"/>
      <point x="196" y="-59"/>
      <point x="188" y="-74"/>
      <point x="173" y="-92" type="curve"/>
      <point x="221" y="-103"/>
      <point x="275" y="-95"/>
      <point x="286" y="-51" type="curve" smooth="yes"/>
      <point x="287" y="-47" type="line" smooth="yes"/>
      <point x="300" y="5"/>
      <point x="272" y="58"/>
      <point x="292" y="137" type="curve" smooth="yes"/>
      <point x="309" y="206"/>
      <point x="366" y="245"/>
      <point x="477" y="245" type="curve" smooth="yes"/>
      <point x="483" y="245" type="line"/>
      <point x="486" y="256" type="line" smooth="yes"/>
      <point x="493" y="286"/>
      <point x="492" y="314"/>
      <point x="462" y="314" type="curve" smooth="yes"/>
      <point x="444" y="314" type="line" smooth="yes"/>
      <point x="324" y="314"/>
      <point x="212" y="254"/>
    </contour>
    <contour>
      <point x="258" y="441" type="curve" smooth="yes"/>
      <point x="233" y="337"/>
      <point x="312" y="284"/>
      <point x="434" y="284" type="curve" smooth="yes"/>
      <point x="469" y="284"/>
      <point x="477" y="266"/>
      <point x="485" y="252" type="curve"/>
      <point x="487" y="260" type="line" smooth="yes"/>
      <point x="500" y="310"/>
      <point x="492" y="352"/>
      <point x="462" y="352" type="curve" smooth="yes"/>
      <point x="460" y="352" type="line" smooth="yes"/>
      <point x="392" y="352"/>
      <point x="356" y="393"/>
      <point x="373" y="460" type="curve" smooth="yes"/>
      <point x="393" y="540"/>
      <point x="448" y="597"/>
      <point x="461" y="648" type="curve" smooth="yes"/>
      <point x="462" y="652" type="line" smooth="yes"/>
      <point x="473" y="699"/>
      <point x="421" y="706"/>
      <point x="368" y="695" type="curve"/>
      <point x="377" y="677"/>
      <point x="377" y="661"/>
      <point x="371" y="641" type="curve" smooth="yes"/>
      <point x="362" y="601"/>
      <point x="283" y="537"/>
    </contour>
    <contour>
      <point x="267" y="654" type="curve" smooth="yes"/>
      <point x="334" y="654"/>
      <point x="375" y="640"/>
      <point x="387" y="595" type="curve"/>
      <point x="424" y="601"/>
      <point x="456" y="629"/>
      <point x="461" y="650" type="curve" smooth="yes"/>
      <point x="462" y="654" type="line" smooth="yes"/>
      <point x="481" y="730"/>
      <point x="421" y="770"/>
      <point x="280" y="770" type="curve" smooth="yes"/>
      <point x="275" y="770" type="line" smooth="yes"/>
      <point x="233" y="770"/>
      <point x="197" y="723"/>
      <point x="179" y="650" type="curve"/>
      <point x="177" y="642" type="line"/>
      <point x="181" y="642" type="line"/>
      <point x="212" y="650"/>
      <point x="233" y="654"/>
    </contour>
  </outline>
</glyph>
<glyph name="asciitilde" format="1">
  <advance width="600"/>
  <unicode hex="007E"/>
  <outline>
    <contour>
      <point x="432" y="308" type="curve" smooth="yes"/>
      <point x="344" y="308"/>
      <point x="294" y="424"/>
      <point x="205" y="424" type="curve" smooth="yes"/>
      <point x="152" y="424"/>
      <point x="113" y="398"/>
      <point x="87" y="360" type="curve" smooth="yes"/>
      <point x="76" y="345"/>
      <point x="64" y="321"/>
      <point x="55" y="285" type="curve" smooth="yes"/>
      <point x="51" y="270"/>
      <point x="48" y="249"/>
      <point x="50" y="235" type="curve"/>
      <point x="54" y="235" type="line"/>
      <point x="103" y="275"/>
      <point x="137" y="292"/>
      <point x="184" y="292" type="curve" smooth="yes"/>
      <point x="272" y="292"/>
      <point x="322" y="176"/>
      <point x="411" y="176" type="curve" smooth="yes"/>
      <point x="464" y="176"/>
      <point x="503" y="202"/>
      <point x="529" y="240" type="curve" smooth="yes"/>
      <point x="540" y="255"/>
      <point x="552" y="279"/>
      <point x="561" y="315" type="curve" smooth="yes"/>
      <point x="565" y="330"/>
      <point x="568" y="351"/>
      <point x="566" y="365" type="curve"/>
      <point x="562" y="365" type="line"/>
      <point x="513" y="325"/>
      <point x="479" y="308"/>
    </contour>
  </outline>
</glyph>
<glyph name="exclamdown" format="1">
  <advance width="600"/>
  <unicode hex="00A1"/>
  <outline>
    <contour>
      <point x="251" y="262" type="line"/>
      <point x="221" y="193"/>
      <point x="186" y="96"/>
      <point x="169" y="26" type="curve"/>
      <point x="133" y="-116" type="line" smooth="yes"/>
      <point x="123" y="-158"/>
      <point x="159" y="-175"/>
      <point x="220" y="-175" type="curve" smooth="yes"/>
      <point x="240" y="-175"/>
      <point x="255" y="-174"/>
      <point x="273" y="-169" type="curve"/>
      <point x="274" y="-134"/>
      <point x="280" y="-97"/>
      <point x="290" y="-58" type="curve" smooth="yes"/>
      <point x="310" y="23" type="line"/>
      <point x="334" y="116"/>
      <point x="349" y="219"/>
      <point x="335" y="238" type="curve" smooth="yes"/>
      <point x="323" y="254"/>
      <point x="299" y="262"/>
      <point x="263" y="262" type="curve"/>
    </contour>
    <contour>
      <point x="277" y="535" type="curve"/>
      <point x="249" y="423" type="line" smooth="yes"/>
      <point x="236" y="370"/>
      <point x="286" y="357"/>
      <point x="343" y="357" type="curve" smooth="yes"/>
      <point x="366" y="357"/>
      <point x="392" y="360"/>
      <point x="414" y="366" type="curve"/>
      <point x="442" y="478" type="line" smooth="yes"/>
      <point x="455" y="531"/>
      <point x="405" y="544"/>
      <point x="348" y="544" type="curve" smooth="yes"/>
      <point x="326" y="544"/>
      <point x="300" y="541"/>
    </contour>
  </outline>
</glyph>
<glyph name="cent" format="1">
  <advance width="600"/>
  <unicode hex="00A2"/>
  <outline>
    <contour>
      <point x="396" y="392" type="line"/>
      <point x="524" y="687" type="line" smooth="yes"/>
      <point x="551" y="747"/>
      <point x="537" y="782"/>
      <point x="478" y="782" type="curve" smooth="yes"/>
      <point x="464" y="782"/>
      <point x="443" y="779"/>
      <point x="429" y="774" type="curve"/>
      <point x="431" y="747"/>
      <point x="429" y="721"/>
      <point x="418" y="679" type="curve"/>
      <point x="357" y="433" type="line" smooth="yes"/>
      <point x="350" y="407"/>
      <point x="369" y="392"/>
      <point x="392" y="392" type="curve" smooth="yes"/>
    </contour>
    <contour>
      <point x="323" y="302" type="line"/>
      <point x="196" y="7" type="line" smooth="yes"/>
      <point x="168" y="-53"/>
      <point x="182" y="-88"/>
      <point x="242" y="-88" type="curve" smooth="yes"/>
      <point x="255" y="-88"/>
      <point x="276" y="-85"/>
      <point x="291" y="-80" type="curve"/>
      <point x="288" y="-53"/>
      <point x="291" y="-27"/>
      <point x="301" y="15" type="curve"/>
      <point x="363" y="261" type="line" smooth="yes"/>
      <point x="369" y="287"/>
      <point x="350" y="302"/>
      <point x="327" y="302" type="curve" smooth="yes"/>
    </contour>
    <contour>
      <point x="443" y="629" type="curve" smooth="yes"/>
      <point x="271" y="629"/>
      <point x="120" y="509"/>
      <point x="72" y="318" type="curve" smooth="yes"/>
      <point x="69" y="307" type="line" smooth="yes"/>
      <point x="34" y="168"/>
      <point x="126" y="71"/>
      <point x="272" y="71" type="curve" smooth="yes"/>
      <point x="292" y="71"/>
      <point x="304" y="86"/>
      <point x="314" y="122" type="curve"/>
      <point x="183" y="163"/>
      <point x="166" y="233"/>
      <point x="185" y="308" type="curve" smooth="yes"/>
      <point x="188" y="319" type="line" smooth="yes"/>
      <point x="216" y="430"/>
      <point x="302" y="511"/>
      <point x="404" y="511" type="curve" smooth="yes"/>
      <point x="476" y="511"/>
      <point x="510" y="492"/>
      <point x="548" y="448" type="curve"/>
      <point x="552" y="448" type="line"/>
      <point x="566" y="470"/>
      <point x="574" y="489"/>
      <point x="581" y="515" type="curve" smooth="yes"/>
      <point x="590" y="550"/>
      <point x="589" y="571"/>
      <point x="577" y="587" type="curve" smooth="yes"/>
      <point x="558" y="612"/>
      <point x="512" y="629"/>
    </contour>
    <contour>
      <point x="156" y="279" type="curve"/>
      <point x="78" y="195"/>
      <point x="145" y="71"/>
      <point x="272" y="71" type="curve" smooth="yes"/>
      <point x="369" y="71"/>
      <point x="427" y="93"/>
      <point x="459" y="119" type="curve" smooth="yes"/>
      <point x="481" y="136"/>
      <point x="502" y="177"/>
      <point x="510" y="206" type="curve"/>
      <point x="514" y="223"/>
      <point x="516" y="234"/>
      <point x="516" y="245" type="curve"/>
      <point x="512" y="245" type="line"/>
      <point x="448" y="203"/>
      <point x="389" y="183"/>
      <point x="307" y="183" type="curve" smooth="yes"/>
      <point x="220" y="183"/>
      <point x="186" y="206"/>
    </contour>
  </outline>
</glyph>
